<svg xmlns="http://www.w3.org/2000/svg" width="38.343" height="41.232" viewBox="0 0 38.343 41.232">
  <g id="Group_126" data-name="Group 126" transform="translate(-424 -1889)">
    <path id="Path_199" data-name="Path 199" d="M435.167,1901.026H424.859a.859.859,0,0,1-.859-.859v-10.308a.859.859,0,0,1,.859-.859h6.872a.859.859,0,1,1,0,1.718h-6.013v8.59h8.59v-3.436a.859.859,0,1,1,1.718,0v4.295A.859.859,0,0,1,435.167,1901.026Z" fill="#fff"/>
    <path id="Path_200" data-name="Path 200" d="M451.436,1898.449a.859.859,0,0,1-.607-.252l-2.577-2.577a.859.859,0,0,1,1.215-1.215l1.889,1.889,5.416-6.963a.859.859,0,0,1,1.356,1.055l-6.013,7.731a.859.859,0,0,1-.625.33Z" transform="translate(-21.423 0)" fill="#fff"/>
    <path id="Path_201" data-name="Path 201" d="M435.167,2029.026H424.859a.859.859,0,0,1-.859-.859v-10.308a.859.859,0,0,1,.859-.859h6.872a.859.859,0,1,1,0,1.718h-6.013v8.59h8.59v-3.436a.859.859,0,1,1,1.718,0v4.295A.859.859,0,0,1,435.167,2029.026Z" transform="translate(0 -114.256)" fill="#fff"/>
    <path id="Path_202" data-name="Path 202" d="M451.436,2026.449a.859.859,0,0,1-.607-.251l-2.577-2.577a.859.859,0,0,1,1.215-1.215l1.889,1.889,5.416-6.963a.859.859,0,1,1,1.356,1.054l-6.013,7.731a.859.859,0,0,1-.625.33Z" transform="translate(-21.423 -114.257)" fill="#fff"/>
    <path id="Path_203" data-name="Path 203" d="M451.436,2171.449a.859.859,0,0,1-.607-.251l-2.577-2.577a.859.859,0,0,1,1.215-1.215l1.889,1.889,5.416-6.963a.859.859,0,0,1,1.356,1.055l-6.013,7.731a.859.859,0,0,1-.625.33Z" transform="translate(-21.423 -243.687)" fill="#fff"/>
    <path id="Path_204" data-name="Path 204" d="M435.167,2173.026H424.859a.859.859,0,0,1-.859-.859v-10.308a.859.859,0,0,1,.859-.859h6.872a.859.859,0,1,1,0,1.718h-6.013v8.59h8.59v-.859a.859.859,0,0,1,1.718,0v1.718A.859.859,0,0,1,435.167,2173.026Z" transform="translate(0 -242.794)" fill="#fff"/>
    <path id="Path_205" data-name="Path 205" d="M549.559,1993.215a.859.859,0,0,1-.837-1.052,17.632,17.632,0,0,1,4.718-8.512l14.542-14.541a2.9,2.9,0,0,1,4.1,0l.722.722a2.9,2.9,0,0,1,0,4.1l-14.542,14.541a17.632,17.632,0,0,1-8.512,4.717A.853.853,0,0,1,549.559,1993.215Zm20.473-23.236a1.179,1.179,0,0,0-.836.346l-14.541,14.541a15.912,15.912,0,0,0-3.857,6.252,15.915,15.915,0,0,0,6.252-3.857l14.542-14.541a1.184,1.184,0,0,0,0-1.673l-.722-.722A1.179,1.179,0,0,0,570.032,1969.979Z" transform="translate(-111.31 -70.751)" fill="#fff"/>
    <path id="Path_206" data-name="Path 206" d="M706.616,2007.257a.859.859,0,0,1-.607-1.467l4.331-4.331a1.183,1.183,0,0,0,0-1.673l-4.331-4.331a.859.859,0,0,1,1.215-1.215l4.331,4.331a2.9,2.9,0,0,1,0,4.1l-4.331,4.331A.857.857,0,0,1,706.616,2007.257Z" transform="translate(-251.504 -93.716)" fill="#fff"/>
    <path id="Path_207" data-name="Path 207" d="M627.592,2081.946a.856.856,0,0,1-.607-.251l-3.609-3.609a.859.859,0,0,1,1.215-1.215l3.609,3.609a.859.859,0,0,1-.607,1.466Z" transform="translate(-177.743 -167.473)" fill="#fff"/>
  </g>
</svg>
