<svg xmlns="http://www.w3.org/2000/svg" width="43.516" height="43.515" viewBox="0 0 43.516 43.515">
  <g id="Group_492" data-name="Group 492" transform="translate(-6122.188 -2483.439)">
    <path id="Path_299" data-name="Path 299" d="M6220.658,2510.4a.9.9,0,0,1-.751-1.41l-.012-.012.128-.128,14.355-14.355-.374-3.835,7.219-7.219v5.489h5.49l-7.219,7.219-3.835-.375-14.483,14.484-.012-.012A.9.9,0,0,1,6220.658,2510.4Zm18.159-16.136,3.523-3.523h-2.928v-2.928l-3.523,3.523.26,2.668Z" transform="translate(-81.008 0)" fill="#fff"/>
    <path id="Path_300" data-name="Path 300" d="M6139.649,2569a17.589,17.589,0,0,1-3.518-.355,17.383,17.383,0,0,1-6.245-2.628,17.537,17.537,0,0,1-4.715-4.715,17.46,17.46,0,0,1,10.96-26.87,17.622,17.622,0,0,1,7.036,0,17.372,17.372,0,0,1,6.246,2.628c.288.195.574.4.851.613l.134.1-1.3,1.3-.1-.077a15.506,15.506,0,0,0-9.35-3.107,15.65,15.65,0,1,0,15.65,15.65,15.509,15.509,0,0,0-3.105-9.348l-.077-.1,1.3-1.3.1.134c.212.276.418.562.612.85A17.453,17.453,0,0,1,6139.649,2569Z" transform="translate(0 -42.047)" fill="#fff"/>
    <path id="Path_301" data-name="Path 301" d="M6166.122,2590.063a11.974,11.974,0,0,1-6.735-2.055,12.111,12.111,0,0,1-4.372-5.306,12.025,12.025,0,0,1,1.111-11.425,12.1,12.1,0,0,1,5.306-4.371,12.031,12.031,0,0,1,11.423,1.109l.148.1-1.3,1.3-.1-.064a10.24,10.24,0,0,0-12.718,15.9,10.363,10.363,0,0,0,1.52,1.254,10.219,10.219,0,0,0,11.442,0,10.285,10.285,0,0,0,3.717-4.511,10.215,10.215,0,0,0-.783-9.46l-.063-.1,1.305-1.305.1.149a12.046,12.046,0,0,1-10,18.783Z" transform="translate(-26.472 -68.518)" fill="#fff"/>
    <path id="Path_302" data-name="Path 302" d="M6192.592,2611.124a6.565,6.565,0,0,1-3.706-1.128,6.719,6.719,0,0,1-1.807-1.807,6.693,6.693,0,0,1-.611-1.124,6.705,6.705,0,0,1,0-5.164,6.674,6.674,0,0,1,.611-1.124,6.706,6.706,0,0,1,1.807-1.807,6.671,6.671,0,0,1,6.289-.61l.169.074.194.089-1.383,1.384-.086-.028a4.845,4.845,0,0,0-1.476-.227,4.761,4.761,0,0,0-2.692.818,4.947,4.947,0,0,0-1.32,1.32,4.812,4.812,0,0,0,0,5.385,4.893,4.893,0,0,0,.6.723,4.957,4.957,0,0,0,.723.6,4.809,4.809,0,0,0,5.385,0,4.931,4.931,0,0,0,1.32-1.32,4.76,4.76,0,0,0,.818-2.692,4.844,4.844,0,0,0-.226-1.474l-.027-.086,1.384-1.384.088.194c.027.059.052.114.074.168a6.617,6.617,0,0,1-.611,6.288,6.685,6.685,0,0,1-2.93,2.417A6.589,6.589,0,0,1,6192.592,2611.124Z" transform="translate(-52.944 -94.99)" fill="#fff"/>
  </g>
</svg>
