<svg xmlns="http://www.w3.org/2000/svg" width="27" height="48.052" viewBox="0 0 27 48.052">
  <g id="Group_127" data-name="Group 127" transform="translate(-30 -212)">
    <path id="Path_209" data-name="Path 209" d="M44,221a4,4,0,0,1-4-4v-1a4,4,0,0,1,8,0v1A4,4,0,0,1,44,221Zm0-7a2,2,0,0,0-2,2v1a2,2,0,0,0,4,0v-1A2,2,0,0,0,44,214Z" fill="#fff"/>
    <rect id="Rectangle_120" data-name="Rectangle 120" width="2" height="2.8" transform="translate(38 233.2)" fill="#fff"/>
    <rect id="Rectangle_121" data-name="Rectangle 121" width="2" height="27" transform="translate(48 233)" fill="#fff"/>
    <rect id="Rectangle_122" data-name="Rectangle 122" width="2" height="19.026" transform="translate(43.001 241.053) rotate(-3.013)" fill="#fff"/>
    <path id="Path_210" data-name="Path 210" d="M33.948,234.972a2.934,2.934,0,0,1-2.406-1.252,2.978,2.978,0,0,1,.156-3.629l5.016-6.021A3,3,0,0,1,39,223v2a.987.987,0,0,0-.755.358l-5.01,6.012a.979.979,0,0,0-.055,1.2.945.945,0,0,0,.952.382l8.064-1.613a1,1,0,0,0,.8-.981V227h2v3.36a3.008,3.008,0,0,1-2.412,2.942l-8.064,1.613A2.967,2.967,0,0,1,33.948,234.972Z" fill="#fff"/>
    <rect id="Rectangle_123" data-name="Rectangle 123" width="10" height="2" transform="translate(39 223)" fill="#fff"/>
    <path id="Path_211" data-name="Path 211" d="M54.051,234.972a2.957,2.957,0,0,1-.575-.057L45.412,233.3A3.008,3.008,0,0,1,43,230.36V227h2v3.36a1,1,0,0,0,.8.981l8.064,1.613a.943.943,0,0,0,.952-.382.978.978,0,0,0-.057-1.2l-5.013-6.016A.983.983,0,0,0,49,225v-2a2.993,2.993,0,0,1,2.28,1.063l5.021,6.026a2.966,2.966,0,0,1-2.25,4.883Z" fill="#fff"/>
    <rect id="Rectangle_124" data-name="Rectangle 124" width="5" height="2" transform="translate(44 235)" fill="#fff"/>
    <rect id="Rectangle_125" data-name="Rectangle 125" width="3" height="2" transform="translate(39 235)" fill="#fff"/>
    <path id="Path_212" data-name="Path 212" d="M47,247" fill="#fff" stroke="#464646" stroke-miterlimit="10" stroke-width="2"/>
    <path id="Path_213" data-name="Path 213" d="M45,249H33.5a3.5,3.5,0,0,1-2.474-5.975l7.245-7.71,1.458,1.37-7.268,7.732A1.5,1.5,0,0,0,33.5,247H45Z" fill="#fff"/>
    <rect id="Rectangle_126" data-name="Rectangle 126" width="7.16" height="2" transform="translate(37 243)" fill="#fff"/>
  </g>
</svg>
