<svg xmlns="http://www.w3.org/2000/svg" width="40.015" height="42" viewBox="0 0 40.015 42">
  <path id="Path_223" data-name="Path 223" d="M1045.755,285.635l-7.03-3.13h0l-3.658-1.629a10.572,10.572,0,0,0,4.765-8.843V260.839a6.36,6.36,0,0,0-6.32-6.384h-8.255a6.36,6.36,0,0,0-6.32,6.384v11.193a10.571,10.571,0,0,0,4.765,8.842l-3.66,1.629h0l-7.031,3.13a6.286,6.286,0,0,0-3.632,5.795v4.315a.7.7,0,1,0,1.405,0V291.43a4.867,4.867,0,0,1,2.793-4.5l6.411-2.854,5.339,11.721a.7.7,0,0,0,.638.413.666.666,0,0,0,.078,0,.7.7,0,0,0,.609-.56l1.793-8.623h1.883l1.793,8.623a.7.7,0,0,0,.609.56.662.662,0,0,0,.078,0,.7.7,0,0,0,.638-.413l5.339-11.72,6.411,2.853a4.867,4.867,0,0,1,2.793,4.5v4.315a.7.7,0,1,0,1.405,0V291.43A6.286,6.286,0,0,0,1045.755,285.635Zm-15.151-.028h-2.448a2.727,2.727,0,0,1-.8-1.925v-1.3a10.207,10.207,0,0,0,4.05,0v1.3A2.731,2.731,0,0,1,1030.6,285.607Zm-5.351-29.733h8.255a4.945,4.945,0,0,1,4.914,4.965v5.241c-3.648-.44-4.689-4.232-4.734-4.4a.707.707,0,0,0-.526-.511.682.682,0,0,0-.692.235c-3.378,4.063-10,4.633-12.131,4.71v-5.272A4.945,4.945,0,0,1,1025.252,255.874Zm10.9,13.748a2.437,2.437,0,1,1-2.436-2.359A2.4,2.4,0,0,1,1036.154,269.622Zm-2.436-3.778a3.827,3.827,0,0,0-3.768,3.068h-1.212a3.776,3.776,0,0,0-1.744-2.487,14.629,14.629,0,0,0,5.762-3.262,8.369,8.369,0,0,0,2.171,2.89A3.845,3.845,0,0,0,1033.719,265.844Zm-8.749,1.419a2.36,2.36,0,1,1-2.436,2.359A2.4,2.4,0,0,1,1024.97,267.263Zm-4.631,4.769v-4.5c.381-.011.887-.035,1.5-.091a3.708,3.708,0,0,0-.712,2.178,3.844,3.844,0,0,0,7.609.71h1.212a3.844,3.844,0,0,0,7.609-.71,3.727,3.727,0,0,0-1.078-2.614,6.519,6.519,0,0,0,1.94.471v4.553a9.1,9.1,0,0,1-9.041,9.133h0A9.1,9.1,0,0,1,1020.338,272.033Zm5.368,21.224-4.44-9.749,4-1.779c.223.1.454.179.686.26v1.694a4.165,4.165,0,0,0,1.151,2.869Zm7.346,0-1.394-6.7a4.167,4.167,0,0,0,1.151-2.869v-1.694c.231-.082.462-.163.685-.26l4,1.779Z" transform="translate(-1009.372 -254.455)" fill="#fff"/>
</svg>
