<svg xmlns="http://www.w3.org/2000/svg" width="48.583" height="53" viewBox="0 0 48.583 53">
  <g id="Group_89" data-name="Group 89" transform="translate(-69 -307)">
    <path id="Path_169" data-name="Path 169" d="M110.6,356.042H86.312a3.31,3.31,0,0,1-.6-6.566h0L109.6,345.1a5.405,5.405,0,0,1,1-.1,5.521,5.521,0,1,1,0,11.042Zm-24.493-4.395a1.1,1.1,0,0,0,.2,2.186H110.6a3.313,3.313,0,0,0,0-6.625,3.256,3.256,0,0,0-.6.063L86.11,351.647Z" transform="translate(1.458 3.958)" fill="#fff"/>
    <path id="Path_170" data-name="Path 170" d="M91.521,321.354A5.527,5.527,0,0,1,86,315.833v-3.312a5.521,5.521,0,1,1,11.042,0v3.313A5.527,5.527,0,0,1,91.521,321.354Zm0-12.146a3.317,3.317,0,0,0-3.312,3.313v3.313a3.313,3.313,0,0,0,6.625,0v-3.312A3.317,3.317,0,0,0,91.521,309.208Z" transform="translate(1.771)" fill="#fff"/>
    <path id="Path_171" data-name="Path 171" d="M116.375,345.187H111.6l-6.631-4.736a4.426,4.426,0,0,1-1.849-3.594V328.1a3.284,3.284,0,0,0-2.69-3.18,37.463,37.463,0,0,0-14.528.006A3.266,3.266,0,0,0,83.25,328.1v8.758a4.426,4.426,0,0,1-1.849,3.594l-6.631,4.736H70v-2.208h4.063l6.054-4.325a2.211,2.211,0,0,0,.924-1.8V328.1a5.479,5.479,0,0,1,4.44-5.342,39.635,39.635,0,0,1,15.38-.007,5.5,5.5,0,0,1,4.472,5.348v8.759a2.212,2.212,0,0,0,.925,1.8l6.053,4.324h4.063Z" transform="translate(0.104 1.563)" fill="#fff"/>
    <path id="Path_172" data-name="Path 172" d="M87.771,356.042H74.521a5.521,5.521,0,1,1,0-11.042,5.426,5.426,0,0,1,1,.1l17.969,3.292-.4,2.172-17.97-3.292a3.278,3.278,0,0,0-.6-.063,3.313,3.313,0,0,0,0,6.625h13.25Z" transform="translate(0 3.958)" fill="#fff"/>
    <path id="Path_173" data-name="Path 173" d="M98.611,349.751l-1.469-5.376A32.553,32.553,0,0,1,96,335.846V329h2.208v6.846a30.343,30.343,0,0,0,1.066,7.948l1.469,5.375Z" transform="translate(2.813 2.292)" fill="#fff"/>
    <path id="Path_174" data-name="Path 174" d="M83.836,349.751l-2.131-.582,1.469-5.377a30.314,30.314,0,0,0,1.066-7.946V329h2.208v6.846a32.524,32.524,0,0,1-1.143,8.526Z" transform="translate(1.323 2.292)" fill="#fff"/>
  </g>
</svg>
