<svg xmlns="http://www.w3.org/2000/svg" width="48.991" height="53.145" viewBox="0 0 48.991 53.145">
  <g id="Group_88" data-name="Group 88" transform="translate(-1268.259 -403.392)">
    <path id="Path_154" data-name="Path 154" d="M1473.675,598.006a1.475,1.475,0,0,0,1.395,1.015h1.028a1.475,1.475,0,0,0,1.395-1.015c1.23-.389,1.981-1.132,1.981-1.981,0-.027,0-.054,0-.082s0-.042,0-.063v-1.452a.475.475,0,0,0-.475-.475h-6.83a.475.475,0,0,0-.475.475v1.452c0,.021,0,.041,0,.062s0,.055,0,.082C1471.694,596.874,1472.445,597.617,1473.675,598.006Zm-1.031-2.134V594.9h5.879v.968a.482.482,0,0,0,0,.108c0,.017,0,.032,0,.046,0,.438-.639.908-1.555,1.143a.475.475,0,0,0-.356.424.519.519,0,0,1-.515.478h-1.028a.519.519,0,0,1-.515-.478.475.475,0,0,0-.356-.424c-.916-.235-1.555-.705-1.555-1.143,0-.014,0-.029,0-.044A.465.465,0,0,0,1472.644,595.872Z" transform="translate(-182.829 -171.246)" fill="#fff" stroke="#fff" stroke-width="0.5"/>
    <path id="Path_155" data-name="Path 155" d="M1437.447,416.862l1.469,4.69a.475.475,0,0,0,.907-.284l-1.509-4.817a.475.475,0,0,0-.143-.218,6.624,6.624,0,1,1,8.648,0,.473.473,0,0,0-.143.218l-1.509,4.818a.475.475,0,1,0,.907.284l1.469-4.691a7.574,7.574,0,1,0-10.1,0Z" transform="translate(-149.74)" fill="#fff" stroke="#fff" stroke-width="0.5"/>
    <path id="Path_156" data-name="Path 156" d="M1468.746,471.8a.5.5,0,0,0-.424.551l2.08,8.7a.38.38,0,0,0,.369.292.385.385,0,0,0,.089-.01.38.38,0,0,0,.281-.458l-2-8.377a1.368,1.368,0,0,0,.972-1.307.605.605,0,1,1,.605.605.38.38,0,1,0,0,.76,1.367,1.367,0,0,0,1.365-1.365.605.605,0,1,1,.605.605.38.38,0,1,0,0,.76,1.367,1.367,0,0,0,1.365-1.365.605.605,0,1,1,.605.605.379.379,0,0,0-.351.525l-2.044,8.554a.38.38,0,0,0,.74.177l2.043-8.552a977.395,977.395,0,0,1-6.3-2.675,1.367,1.367,0,0,0-1.366,1.365.38.38,0,0,0,.76,0,.605.605,0,1,1,.605.605Z" transform="translate(-178.947 -59.556)" fill="#fff" stroke="#fff" stroke-width="0.5"/>
    <path id="Path_157" data-name="Path 157" d="M1423.478,791.6a.506.506,0,0,0-.513.872,7.2,7.2,0,0,1,3.511,6.684c0,.767-.051,3.923-.132,5.148h-3.7v-4.186a.506.506,0,1,0-1.011,0V804.3h-9.1v-4.357a.506.506,0,1,0-1.011,0V804.3h-3.7c-.08-1.225-.132-4.381-.132-5.148a7.2,7.2,0,0,1,3.478-6.665.506.506,0,1,0-.518-.869,8.25,8.25,0,0,0-3.972,7.534c0,.564.057,5,.187,5.741a.506.506,0,0,0,.5.418H1426.8a.506.506,0,0,0,.5-.418c.13-.737.187-5.177.187-5.741A8.246,8.246,0,0,0,1423.478,791.6Z" transform="translate(-124.329 -349.027)" fill="#fff" stroke="#fff" stroke-width="0.5"/>
    <path id="Path_158" data-name="Path 158" d="M1445.721,675.757a6.492,6.492,0,1,0,6.492-6.492A6.5,6.5,0,0,0,1445.721,675.757Zm6.492-5.48a5.48,5.48,0,1,1-5.48,5.48A5.487,5.487,0,0,1,1452.213,670.276Z" transform="translate(-159.458 -239.012)" fill="#fff" stroke="#fff" stroke-width="0.5"/>
    <path id="Path_159" data-name="Path 159" d="M1280.315,767.221h-6.72v-4.756a.506.506,0,1,0-1.011,0v4.756h-2.958c-.065-1.07-.106-3.622-.106-4.252a5.98,5.98,0,0,1,2.915-5.556.506.506,0,0,0-.513-.872,7.016,7.016,0,0,0-3.413,6.428c0,.306.042,4.184.159,4.845a.506.506,0,0,0,.5.418h11.149a.506.506,0,0,0,0-1.012Z" transform="translate(0 -317.482)" fill="#fff" stroke="#fff" stroke-width="0.5"/>
    <path id="Path_160" data-name="Path 160" d="M1405.494,759.173a.506.506,0,0,0,.822-.589,6.762,6.762,0,0,0-2.056-1.867.506.506,0,1,0-.518.869A5.757,5.757,0,0,1,1405.494,759.173Z" transform="translate(-121.464 -317.639)" fill="#fff" stroke="#fff" stroke-width="0.5"/>
    <path id="Path_161" data-name="Path 161" d="M1394.617,811.251a.506.506,0,0,0-.506.506v1a.506.506,0,1,0,1.011,0v-1A.506.506,0,0,0,1394.617,811.251Z" transform="translate(-113.019 -366.773)" fill="#fff" stroke="#fff" stroke-width="0.5"/>
    <path id="Path_162" data-name="Path 162" d="M1306.906,664.665a5.543,5.543,0,1,0-5.543-5.544A5.55,5.55,0,0,0,1306.906,664.665Zm0-10.075a4.532,4.532,0,1,1-4.532,4.532A4.537,4.537,0,0,1,1306.906,654.59Z" transform="translate(-29.563 -224.897)" fill="#fff" stroke="#fff" stroke-width="0.5"/>
    <path id="Path_163" data-name="Path 163" d="M1638.538,756.542a.506.506,0,1,0-.513.872,5.98,5.98,0,0,1,2.915,5.556c0,.63-.041,3.182-.105,4.252h-2.958v-4.756a.506.506,0,1,0-1.011,0v4.756h-6.719a.506.506,0,1,0,0,1.012h11.149a.506.506,0,0,0,.5-.418c.116-.661.158-4.539.158-4.845A7.016,7.016,0,0,0,1638.538,756.542Z" transform="translate(-324.951 -317.482)" fill="#fff" stroke="#fff" stroke-width="0.5"/>
    <path id="Path_164" data-name="Path 164" d="M1591.293,756.892a.506.506,0,0,0-.693-.176,6.759,6.759,0,0,0-2.055,1.867.506.506,0,1,0,.822.589,5.755,5.755,0,0,1,1.751-1.588A.506.506,0,0,0,1591.293,756.892Z" transform="translate(-287.888 -317.639)" fill="#fff" stroke="#fff" stroke-width="0.5"/>
    <path id="Path_165" data-name="Path 165" d="M1617.34,811.251a.506.506,0,0,0-.506.506v1a.506.506,0,0,0,1.012,0v-1A.506.506,0,0,0,1617.34,811.251Z" transform="translate(-313.429 -366.773)" fill="#fff" stroke="#fff" stroke-width="0.5"/>
    <path id="Path_166" data-name="Path 166" d="M1609.013,659.121a5.543,5.543,0,1,0,5.543-5.543A5.55,5.55,0,0,0,1609.013,659.121Zm10.075,0a4.532,4.532,0,1,1-4.532-4.532A4.537,4.537,0,0,1,1619.088,659.121Z" transform="translate(-306.391 -224.897)" fill="#fff" stroke="#fff" stroke-width="0.5"/>
    <path id="Path_167" data-name="Path 167" d="M1594.552,528.237a15.383,15.383,0,0,1,6.271,8.81.505.505,0,0,0,.977-.258,16.393,16.393,0,0,0-6.682-9.389.505.505,0,0,0-.565.837Z" transform="translate(-293.178 -111.282)" fill="#fff" stroke="#fff" stroke-width="0.5"/>
    <path id="Path_168" data-name="Path 168" d="M1352.366,538.736a.5.5,0,0,0,.614-.366,15.386,15.386,0,0,1,6.127-8.838.505.505,0,1,0-.577-.829,16.4,16.4,0,0,0-6.529,9.419A.505.505,0,0,0,1352.366,538.736Z" transform="translate(-75.113 -112.451)" fill="#fff" stroke="#fff" stroke-width="0.5"/>
  </g>
</svg>
