<svg xmlns="http://www.w3.org/2000/svg" width="47.353" height="36.029" viewBox="0 0 47.353 36.029">
  <g id="Group_125" data-name="Group 125" transform="translate(-1686.176 -2466.228)">
    <g id="Group_124" data-name="Group 124" transform="translate(1686.176 2466.229)">
      <g id="Group_123" data-name="Group 123" transform="translate(0 0)">
        <g id="Group_122" data-name="Group 122">
          <path id="Path_191" data-name="Path 191" d="M1686.962,2489.933a.785.785,0,0,0,.786-.786v-20.575a.773.773,0,0,1,.772-.772h34.058a.786.786,0,0,0,0-1.572H1688.52a2.347,2.347,0,0,0-2.344,2.344v20.575A.786.786,0,0,0,1686.962,2489.933Z" transform="translate(-1686.176 -2466.229)" fill="#fff"/>
          <path id="Path_192" data-name="Path 192" d="M1775.508,2486.57h-26.286a.786.786,0,1,0,0,1.572h26.285a.786.786,0,0,0,0-1.572Z" transform="translate(-1733.177 -2481.584)" fill="#fff"/>
          <path id="Path_193" data-name="Path 193" d="M1704.246,2488.142h7.654a.786.786,0,0,0,0-1.572h-7.654a.786.786,0,0,0,0,1.572Z" transform="translate(-1699.224 -2481.584)" fill="#fff"/>
          <path id="Path_194" data-name="Path 194" d="M1742.341,2512.931a.786.786,0,0,0-.786-.786h-37.31a.786.786,0,0,0,0,1.572h37.31A.786.786,0,0,0,1742.341,2512.931Z" transform="translate(-1699.224 -2500.891)" fill="#fff"/>
          <path id="Path_195" data-name="Path 195" d="M1791.078,2538.508a.786.786,0,0,0-.786-.786h-3.238a.786.786,0,1,0,0,1.572h3.238A.786.786,0,0,0,1791.078,2538.508Z" transform="translate(-1761.735 -2520.199)" fill="#fff"/>
          <path id="Path_196" data-name="Path 196" d="M1704.246,2539.294h16.987a.786.786,0,1,0,0-1.572h-16.987a.786.786,0,0,0,0,1.572Z" transform="translate(-1699.224 -2520.199)" fill="#fff"/>
          <path id="Path_197" data-name="Path 197" d="M1704.246,2564.869h19.63a.786.786,0,1,0,0-1.572h-19.63a.786.786,0,0,0,0,1.572Z" transform="translate(-1699.224 -2539.506)" fill="#fff"/>
          <path id="Path_198" data-name="Path 198" d="M1731.186,2466.229h-5.242a.786.786,0,0,0,0,1.572h5.242a.773.773,0,0,1,.772.772v26.473a.773.773,0,0,1-.772.772h-2.731v-2.143a6.62,6.62,0,1,0-8.394,0v2.143H1688.52a.773.773,0,0,1-.772-.772v-2.585a.786.786,0,0,0-1.572,0v2.585a2.347,2.347,0,0,0,2.344,2.344h31.541v4.083a.786.786,0,0,0,1.371.524l2.813-3.141,2.841,3.144a.785.785,0,0,0,1.369-.527v-4.083h2.73a2.347,2.347,0,0,0,2.344-2.344v-26.473A2.346,2.346,0,0,0,1731.186,2466.229Zm-4.3,33.2h0l-2.058-2.277a.785.785,0,0,0-.583-.259h0a.785.785,0,0,0-.583.261l-2.025,2.261v-4.78a6.564,6.564,0,0,0,2.285.532q.17.009.341.009t.341-.009a6.564,6.564,0,0,0,2.285-.532v4.793Zm.2-6.687h0a5.088,5.088,0,0,1-.632.364l0,0a4.99,4.99,0,0,1-.915.336l-.019,0c-.077.02-.155.038-.233.054h0q-.122.025-.246.044h-.008c-.073.011-.146.02-.219.028l-.064.006q-.086.008-.173.013l-.07,0c-.075,0-.15.006-.226.006h-.017c-.076,0-.151,0-.226-.006l-.07,0c-.058,0-.116-.008-.173-.013l-.064-.006c-.073-.008-.146-.017-.219-.028h-.009q-.124-.019-.246-.044h0c-.078-.016-.156-.034-.232-.054l-.019,0a5.006,5.006,0,0,1-.914-.335l0,0a5.082,5.082,0,0,1-.632-.364h0a5.05,5.05,0,1,1,5.642,0Z" transform="translate(-1686.176 -2466.229)" fill="#fff"/>
        </g>
      </g>
    </g>
    <rect id="Rectangle_118" data-name="Rectangle 118" width="5.076" height="1.572" transform="translate(1721.897 2466.229)" fill="#fff"/>
    <rect id="Rectangle_119" data-name="Rectangle 119" width="1.572" height="6.243" transform="translate(1686.176 2488.395)" fill="#fff"/>
  </g>
</svg>
