<svg xmlns="http://www.w3.org/2000/svg" width="53.097" height="55.381" viewBox="0 0 53.097 55.381">
  <g id="Group_300" data-name="Group 300" transform="translate(-349.937 -38.011)">
    <g id="Group_306" data-name="Group 306" transform="translate(358.09 38.011)">
      <g id="Group_300-2" data-name="Group 300">
        <path id="Path_262" data-name="Path 262" d="M397.807,75.826a.871.871,0,0,1-.647-1.454,20.728,20.728,0,1,0-33.314-3.47.871.871,0,0,1-1.506.877,22.474,22.474,0,1,1,36.113,3.76A.869.869,0,0,1,397.807,75.826Z" transform="translate(-359.299 -38.011)" fill="#fff"/>
      </g>
      <g id="Group_301" data-name="Group 301" transform="translate(9.897)">
        <path id="Path_263" data-name="Path 263" d="M390.43,78.4a.871.871,0,0,1-.714-1.368c2.768-3.985,4.356-10.016,4.356-16.546,0-11.431-4.86-20.729-10.833-20.729s-10.833,9.3-10.833,20.729a35.61,35.61,0,0,0,1.563,10.658.871.871,0,1,1-1.66.529,37.393,37.393,0,0,1-1.645-11.187c0-12.6,5.524-22.471,12.575-22.471s12.575,9.871,12.575,22.471c0,6.877-1.7,13.27-4.667,17.54A.871.871,0,0,1,390.43,78.4Z" transform="translate(-370.664 -38.011)" fill="#fff"/>
      </g>
      <g id="Group_302" data-name="Group 302" transform="translate(11.504 30.71)">
        <path id="Path_264" data-name="Path 264" d="M399.513,80.382a.867.867,0,0,1-.584-.225c-3.561-3.219-9.337-5.14-15.451-5.14a27.217,27.217,0,0,0-9.78,1.753.871.871,0,0,1-.633-1.623,29,29,0,0,1,10.414-1.871c6.533,0,12.746,2.089,16.619,5.588a.871.871,0,0,1-.583,1.518Z" transform="translate(-372.51 -73.276)" fill="#fff"/>
      </g>
      <g id="Group_303" data-name="Group 303" transform="translate(5.566 7.127)">
        <path id="Path_265" data-name="Path 265" d="M382.6,53.3c-6.534,0-12.746-2.088-16.618-5.587a.87.87,0,1,1,1.166-1.292c3.562,3.217,9.338,5.138,15.452,5.138s11.89-1.921,15.451-5.139a.871.871,0,0,1,1.168,1.293C395.343,51.212,389.13,53.3,382.6,53.3Z" transform="translate(-365.69 -46.195)" fill="#fff"/>
      </g>
      <g id="Group_304" data-name="Group 304" transform="translate(0 21.6)">
        <path id="Path_266" data-name="Path 266" d="M403.372,64.557h-43.2a.871.871,0,0,1,0-1.742h43.2a.871.871,0,0,1,0,1.742Z" transform="translate(-359.299 -62.815)" fill="#fff"/>
      </g>
      <g id="Group_305" data-name="Group 305" transform="translate(21.601)">
        <path id="Path_267" data-name="Path 267" d="M384.975,73.721a.871.871,0,0,1-.871-.871V38.882a.871.871,0,1,1,1.742,0V72.851A.871.871,0,0,1,384.975,73.721Z" transform="translate(-384.104 -38.011)" fill="#fff"/>
      </g>
    </g>
    <g id="Group_312" data-name="Group 312" transform="translate(349.937 72.391)">
      <g id="Group_311" data-name="Group 311" transform="translate(0 0)">
        <g id="Group_310" data-name="Group 310">
          <g id="Group_307" data-name="Group 307" transform="translate(11.081 5.011)">
            <path id="Path_268" data-name="Path 268" d="M382.9,96a2.551,2.551,0,0,1-.728-.089c-2.356-.717-14.259-.935-18.646-.959a.871.871,0,0,1,.005-1.742h.005c.654,0,16.062.1,19.143,1.034,1.184.358,7.511-1.707,18.956-7.137a.315.315,0,0,0,.173-.21.329.329,0,0,0-.052-.278,3.907,3.907,0,0,0-4.589-1.362l-9.244,3.6a4.737,4.737,0,0,1-3.167.092l-4.866-1.574a.871.871,0,0,1,.536-1.657l4.865,1.574a2.988,2.988,0,0,0,2-.058l9.245-3.6a5.643,5.643,0,0,1,6.637,1.969,2.069,2.069,0,0,1-.789,3.077C395.165,92.1,386.228,96,382.9,96Z" transform="translate(-362.661 -83.244)" fill="#fff"/>
          </g>
          <g id="Group_308" data-name="Group 308" transform="translate(6.904)">
            <path id="Path_269" data-name="Path 269" d="M385.5,86.673H371.915a.871.871,0,0,1,0-1.742H385.38a3.153,3.153,0,0,0-3.063-3.046,53.036,53.036,0,0,1-5.538-.395,21.893,21.893,0,0,1-3.8-1.026,18.032,18.032,0,0,0-5.911-1.233c-3.495,0-7.639,4.669-7.681,4.716a.871.871,0,0,1-1.309-1.149c.191-.217,4.706-5.309,8.99-5.309a19.683,19.683,0,0,1,6.463,1.324,20.791,20.791,0,0,0,3.5.954,52.5,52.5,0,0,0,5.341.376,4.89,4.89,0,0,1,4.75,4.909A1.622,1.622,0,0,1,385.5,86.673Z" transform="translate(-357.865 -77.49)" fill="#fff"/>
          </g>
          <g id="Group_309" data-name="Group 309" transform="translate(0 2.393)">
            <path id="Path_270" data-name="Path 270" d="M356.911,98.846a.869.869,0,0,1-.8-.531l-6.1-14.43a.871.871,0,0,1,.462-1.142l5.759-2.437a.872.872,0,0,1,1.142.463l6.1,14.429a.871.871,0,0,1-.462,1.142l-5.759,2.437A.864.864,0,0,1,356.911,98.846Zm-4.963-14.838,5.426,12.826,4.155-1.757L356.1,82.251Z" transform="translate(-349.937 -80.238)" fill="#fff"/>
          </g>
        </g>
      </g>
    </g>
  </g>
</svg>
