<svg xmlns="http://www.w3.org/2000/svg" width="55.482" height="62.875"><g data-name="Group 44" fill="#444"><path data-name="Path 54" d="M48.11 56.359a4.627 4.627 0 0 1-3.338-1.325L27.054 37.311l1.865-1.865 17.718 17.721c1.047 1.045 3.094.633 4.663-.932 1.636-1.635 2-3.6.933-4.666l-7.46-7.46 1.865-1.865 7.46 7.46c2.129 2.128 1.767 5.7-.84 8.3a7.458 7.458 0 0 1-5.148 2.355z"/><path data-name="Path 55" d="M41.977 26.124l-1.865-1.865.932-.933-2.8-2.8-1.865 1.868-1.868-1.865 1.865-1.868a2.644 2.644 0 0 1 3.73 0l2.8 2.8a2.642 2.642 0 0 1 0 3.73z"/><path data-name="Path 56" d="M33.582 25.193l-1.865-1.865 2.8-2.8-2.8-2.8-2.8 2.8-1.865-1.865 2.8-2.8a2.644 2.644 0 0 1 3.73 0l2.8 2.8a2.64 2.64 0 0 1 0 3.733z"/><path data-name="Path 57" d="M38.239 38.091a2.628 2.628 0 0 1-1.851-.753l-2.428-2.389 1.848-1.882 2.431 2.392 6.536-6.539-2.8-2.795-3.733 3.727-1.865-1.865 3.733-3.727a2.637 2.637 0 0 1 3.73 0l2.8 2.795a2.642 2.642 0 0 1 0 3.73l-6.536 6.539a2.63 2.63 0 0 1-1.865.767z"/><path data-name="Path 58" d="M27.989 53.169l-1.865-1.865 1.865-1.865c1.131-1.129 2.705-1.095 4.089-1.078 1.582.034 2.6-.011 3.372-.787l2.8-2.8 1.862 1.868-2.8 2.795c-1.621 1.621-3.652 1.585-5.282 1.56-.947-.017-1.84-.031-2.179.305z"/><path data-name="Path 59" d="M26.122 41.978l-1.865-1.865a9.914 9.914 0 0 0 2.814-6.416 7.459 7.459 0 0 0-1.882-5.71 1.318 1.318 0 0 1 1.865-1.862l3.73 3.727a3.97 3.97 0 0 0 3.783 1.2 4.215 4.215 0 0 0 1.985-1.022l-9.5-9.5c-.863-.86-1.563-1.025-3.262-.767l-1.022.146c-1.479.207-3.954.554-4.612 1.039-.518.459-1.535 3.68-1.535 6.853 0 2.072-.165 7.06-1.691 8.586l-1.865 1.865-1.865-1.865 1.865-1.865c.28-.342.919-2.529.919-6.721 0-2.96.907-7.724 2.61-8.978 1.109-.812 3.2-1.159 5.808-1.523l.994-.143c2.092-.316 3.831-.182 5.523 1.509L39.18 28.924a1.323 1.323 0 0 1 .3 1.4 6.007 6.007 0 0 1-4.36 3.3 6.478 6.478 0 0 1-5.419-1.224 12.919 12.919 0 0 1 .005 1.437 12.578 12.578 0 0 1-3.584 8.141z"/><path data-name="Path 60" d="M41.977 43.681a2.629 2.629 0 0 1-1.865-.77l-2.8-2.8a2.637 2.637 0 0 1 0-3.73l.933-.933 1.865 1.865-.933.933 2.8 2.8 6.528-6.528-3.73-3.733 1.865-1.865 3.73 3.733a2.642 2.642 0 0 1 0 3.73l-6.528 6.531a2.638 2.638 0 0 1-1.865.767z"/><path data-name="Path 61" d="M21.462 62.877a1.309 1.309 0 0 1-.933-.386L1.875 43.849a1.319 1.319 0 0 1 0-1.865l7.455-7.46a1.361 1.361 0 0 1 1.865 0l18.658 18.642a1.318 1.318 0 0 1 0 1.865l-7.455 7.457a1.309 1.309 0 0 1-.936.389zM4.673 42.913L21.462 59.69l5.589-5.592-16.788-16.78z"/><path data-name="Rectangle 41" d="M45.707 48.507l1.865-1.865 2.798 2.797-1.866 1.865z"/><path data-name="Rectangle 42" d="M8.402 42.91l1.865-1.865 1.866 1.865-1.866 1.865z"/><path data-name="Path 62" d="M14.931 25.193l-2.826-2.828a11.111 11.111 0 0 1-8.833-3.234A11.229 11.229 0 0 1 1.091 6.378a1.319 1.319 0 0 1 2.123-.364l6.122 6.122 2.8-2.8-6.122-6.122a1.32 1.32 0 0 1 .364-2.123 11.2 11.2 0 0 1 15.744 12.635l4 4-1.865 1.865-4.539-4.539a1.312 1.312 0 0 1-.328-1.322A8.562 8.562 0 0 0 9.365 2.83l5.567 5.567a1.318 1.318 0 0 1 0 1.865l-4.663 4.663a1.318 1.318 0 0 1-1.865 0L2.837 9.358a8.548 8.548 0 0 0 9.569 10.314 1.327 1.327 0 0 1 1.117.372l3.274 3.277z"/></g></svg>