<svg data-name="Group 43" xmlns="http://www.w3.org/2000/svg" width="42.091" height="63.135"><path data-name="Rectangle 38" fill="#444" d="M30.253 43.406h2.631v13.153h-2.631z"/><path data-name="Path 46" d="M26.306 63.134h-2.631v-2.631a1.316 1.316 0 0 1 .62-1.117l10.521-6.577 1.4 2.231-9.906 6.192z" fill="#444"/><path data-name="Rectangle 39" fill="#444" d="M9.207 43.406h2.631v13.153H9.207z"/><path data-name="Path 47" d="M40.778 59.191h-2.631v-5.262c0-.681-.21-.91-.771-1.525l-.207-.229-3.9-3.893 1.86-1.86 4.187 4.206a4.422 4.422 0 0 1 1.46 3.3z" fill="#444"/><path data-name="Path 48" d="M3.947 59.191H1.316v-5.262a4.421 4.421 0 0 1 1.461-3.3l.19-.209 4-4 1.86 1.86-4.105 4.122c-.562.614-.771.843-.771 1.525z" fill="#444"/><path data-name="Path 49" d="M18.413 63.134h-2.628v-1.9l-9.906-6.192 1.394-2.231 10.523 6.577a1.313 1.313 0 0 1 .617 1.117z" fill="#444"/><path data-name="Path 50" d="M22.36 49.988h-2.631a10.777 10.777 0 0 1-7.488-3A53.282 53.282 0 0 1 6.8 41.505c-1.162-1.74-1.536-5.672-1.536-7.306v-7.893h2.631v7.893c0 1.944.477 4.924 1.095 5.848a50.978 50.978 0 0 0 5.044 5.01 8.168 8.168 0 0 0 5.7 2.3h2.631a8.142 8.142 0 0 0 5.667-2.265 51.38 51.38 0 0 0 5.078-5.041c.617-.924 1.094-3.9 1.094-5.848V26.31h2.631v7.893c0 1.634-.374 5.566-1.536 7.306a53.354 53.354 0 0 1-5.48 5.513 10.735 10.735 0 0 1-7.459 2.966z" fill="#444"/><path data-name="Path 51" d="M26.306 13.154h-2.631V2.631h-5.262v10.523h-2.628V1.315A1.313 1.313 0 0 1 17.098 0h7.893a1.314 1.314 0 0 1 1.315 1.315z" fill="#444"/><path data-name="Rectangle 40" fill="#444" d="M0 23.676h42.091v2.631H0z"/><path data-name="Path 52" d="M42.091 22.359H39.46v-1.814l-1.9-.952a1.319 1.319 0 0 1-.726-1.179v-2.629c0-4.488-1.991-7.814-6.577-10.825v4.248h-2.631V2.631a1.315 1.315 0 0 1 1.955-1.148c4.6 2.564 9.884 6.5 9.884 14.3v1.815l1.9.952a1.318 1.318 0 0 1 .726 1.176z" fill="#444"/><path data-name="Path 53" d="M2.631 22.36H0v-2.631a1.319 1.319 0 0 1 .726-1.176l1.9-.952v-1.815c0-7.915 5.287-11.805 9.9-14.311a1.317 1.317 0 0 1 1.944 1.156v6.577h-2.631V4.932c-4.586 2.955-6.577 6.289-6.577 10.853v2.628a1.317 1.317 0 0 1-.729 1.179l-1.9.952z" fill="#444"/></svg>