<svg xmlns="http://www.w3.org/2000/svg" width="39.34" height="31.092"><g fill="#fff"><path data-name="Path 185" d="M12.289 31.096a.816.816 0 0 1-.818-.819v-9.231a.821.821 0 0 1 .319-.65L38.015.171a.82.82 0 0 1 1 1.3L13.109 21.45v6.919l3.135-2.969a.819.819 0 1 1 1.126 1.189l-4.518 4.28a.816.816 0 0 1-.563.227z"/><path data-name="Path 186" d="M25.405 27.865a.8.8 0 0 1-.339-.074l-13.112-6a.82.82 0 1 1 .683-1.49l12.391 5.668L36.806 2.412l-33.884 14 6.843 2.965a.819.819 0 0 1-.651 1.5l-8.62-3.735a.82.82 0 0 1 .013-1.51L38.207.06a.82.82 0 0 1 1.046 1.125L26.139 27.41a.819.819 0 0 1-.734.455z"/></g></svg>