<svg xmlns="http://www.w3.org/2000/svg" width="26.377" height="35"><g data-name="Group 190" fill="#fff"><path data-name="Path 253" d="M13.206 18.852a5.529 5.529 0 1 1-.027-11.057h.007a5.529 5.529 0 1 1 .019 11.057zm-.027-8.844a3.241 3.241 0 0 0-3.311 3.313 3.317 3.317 0 1 0 6.634 0 3.241 3.241 0 0 0-3.309-3.313z"/><path data-name="Path 254" d="M13.188 35l-.848-1.007c-.344-.409-8.447-10.048-10.109-12.709a13.545 13.545 0 0 1-2.232-8.1 13.188 13.188 0 0 1 26.377 0 13.562 13.562 0 0 1-2.235 8.1c-1.661 2.661-9.764 12.3-10.109 12.709zm0-32.789A10.99 10.99 0 0 0 2.21 13.189a11.445 11.445 0 0 0 1.9 6.923c1.276 2.044 6.918 8.856 9.08 11.447 2.162-2.591 7.8-9.4 9.078-11.447a11.41 11.41 0 0 0 1.9-6.921 10.99 10.99 0 0 0-10.98-10.98z"/></g></svg>