<svg xmlns="http://www.w3.org/2000/svg" width="35.149" height="45.143"><path d="M10.736 31.746a35.76 35.76 0 0 1-3.13-4.16 32.631 32.631 0 0 1-2.485-4.408C3.597 19.792 2.293 14.098 3.04 9.76a8.7 8.7 0 0 1 1.137-3.188 4.847 4.847 0 0 1 2.229-1.975 7.678 7.678 0 0 1 4.426-.356c.02-.003.063.048.088.1a1.625 1.625 0 0 1 .213.348l1.238 3.475c.061.194.148.432.233.664.056.143.11.289.172.483.257.716.517 1.301.73 1.8.645 1.416.83 1.843-1.804 3.287-3.64 2-3.584 2.161-2.436 5.05l.102.212a28.547 28.547 0 0 0 3.364 6.508h0a29.738 29.738 0 0 0 5.02 5.238l.231.196c2.295 1.944 2.508 2.143 5.567-.609 2.26-2.035 2.579-1.738 3.707-.698a15.829 15.829 0 0 0 1.478 1.278h0c.169.147.294.245.418.341.19.164.378.31.565.455l2.423 1.909a3.631 3.631 0 0 1 .762.673.959.959 0 0 1-.007.562c-.045.248-.09.498-.14.71a5.9 5.9 0 0 1-2.58 4.02 6.555 6.555 0 0 1-4.39.52c-.25-.043-.482-.09-.714-.136a25.049 25.049 0 0 1-7.28-3.221 34.876 34.876 0 0 1-7.053-5.662zm-4.234-3.445a38.441 38.441 0 0 0 3.25 4.314 35.422 35.422 0 0 0 7.344 5.888 26.009 26.009 0 0 0 7.68 3.396c.272.06.543.12.795.164h0a7.836 7.836 0 0 0 5.253-.701 7.062 7.062 0 0 0 3.216-4.846c.061-.27.104-.537.15-.785a1.934 1.934 0 0 0-.159-1.44 4.047 4.047 0 0 0-1.071-1.046l-2.442-1.906c-.167-.13-.336-.278-.523-.423-.17-.147-.336-.276-.44-.357a17.926 17.926 0 0 1-1.394-1.213c-1.808-1.667-2.341-2.163-5.499.693-2.176 1.97-2.32 1.838-3.816.563l-.232-.197a27.879 27.879 0 0 1-4.81-5.002 27.162 27.162 0 0 1-3.216-6.226l-.08-.192c-.76-1.89-.811-1.995 1.822-3.44 3.694-2.025 3.406-2.682 2.391-4.952-.207-.461-.463-1.009-.698-1.69-.057-.162-.117-.342-.195-.518-.062-.194-.144-.395-.207-.61l-1.264-3.53-.026-.053a2.538 2.538 0 0 0-.362-.648 1.42 1.42 0 0 0-.92-.58 9.032 9.032 0 0 0-5.19.437 6.248 6.248 0 0 0-2.806 2.495 10.141 10.141 0 0 0-1.324 3.66c-.775 4.602.583 10.589 2.192 14.17A33.911 33.911 0 0 0 6.5 28.308z" fill="#fff" stroke="#fff" stroke-width=".25"/></svg>