<svg xmlns="http://www.w3.org/2000/svg" width="54" height="52.575" viewBox="0 0 54 52.575">
  <g id="Group_78" data-name="Group 78" transform="translate(-7517.501 -3729.707)">
    <path id="Path_138" data-name="Path 138" d="M7523.824,3938.383h.472l.821,6.155a1.273,1.273,0,0,0,1.26,1.105,1.351,1.351,0,0,0,.171-.011,1.274,1.274,0,0,0,1.094-1.431l-.969-7.26c0-.013,0-.025-.007-.038s-.008-.049-.014-.073-.009-.035-.014-.052-.012-.046-.02-.069a.56.56,0,0,0-.021-.054c-.007-.021-.016-.041-.024-.061s-.018-.038-.026-.056-.019-.036-.028-.053-.022-.038-.034-.056-.021-.032-.031-.047-.025-.036-.039-.053-.023-.03-.036-.044-.028-.032-.043-.047l-.041-.042-.045-.041-.049-.041-.045-.034-.055-.038-.047-.028c-.02-.011-.039-.023-.06-.033l-.05-.024c-.021-.01-.04-.019-.062-.027l-.055-.02-.06-.02-.063-.017-.057-.012-.071-.011-.053-.007-.076,0-.037,0h-1.587a.368.368,0,0,1-.367-.367v-5.378a.368.368,0,0,1,.367-.367H7551.2a.367.367,0,0,1,.366.367v5.378a.367.367,0,0,1-.366.367h-1.641l-.035,0c-.024,0-.049,0-.074,0l-.054.006-.071.01-.056.012-.063.017-.06.019-.056.021-.062.026-.05.024-.059.033-.048.029-.054.037c-.016.011-.032.022-.047.035l-.048.04c-.016.014-.031.027-.045.042s-.028.027-.042.041l-.044.048c-.012.014-.024.029-.035.043s-.028.035-.04.053l-.031.047c-.012.019-.023.037-.034.057s-.02.035-.028.052a.6.6,0,0,0-.026.057c-.01.02-.018.04-.026.061s-.013.036-.019.054-.015.045-.021.069-.009.034-.013.052-.01.049-.015.074,0,.022-.007.034l-1.021,7.261a1.274,1.274,0,0,0,1.084,1.438,1.222,1.222,0,0,0,.179.013,1.274,1.274,0,0,0,1.26-1.1l.867-6.164h.534a2.917,2.917,0,0,0,2.913-2.914v-5.378h0a2.917,2.917,0,0,0-2.913-2.914h-1.851c0-.035-.007-.07-.011-.105a1.23,1.23,0,0,0,0-.275,7.592,7.592,0,0,0-7.554-6.826h-8.82a7.592,7.592,0,0,0-7.554,6.827c-.013.129-.022.255-.032.38h-1.557a2.917,2.917,0,0,0-2.913,2.914v5.378A2.917,2.917,0,0,0,7523.824,3938.383Zm9.143-15.865h8.82a5.031,5.031,0,0,1,4.991,4.3,1.163,1.163,0,0,0,0,.24c0,.04.007.078.011.117h-18.854c0-.041.006-.082.011-.123A5.03,5.03,0,0,1,7532.967,3922.518Z" transform="translate(-3.155 -175.992)" fill="#fff"/>
    <path id="Path_139" data-name="Path 139" d="M7664.078,3758.286a6.033,6.033,0,1,0-6.033-6.033A6.04,6.04,0,0,0,7664.078,3758.286Zm0-9.52a3.486,3.486,0,1,1-3.485,3.487A3.491,3.491,0,0,1,7664.078,3748.767Z" transform="translate(-130.006 -15.276)" fill="#fff"/>
    <path id="Path_140" data-name="Path 140" d="M7798.606,3732.308h0l27.722-.054a.744.744,0,0,1,.742.744v19.791a.744.744,0,0,1-.742.743h0l-14.548.054a1.273,1.273,0,0,0,0,2.547h0l14.547-.054h0a3.294,3.294,0,0,0,3.281-3.29V3733h0a3.3,3.3,0,0,0-3.29-3.29h0l-27.725.054a1.273,1.273,0,0,0,0,2.546Z" transform="translate(-258.83)" fill="#fff"/>
    <path id="Path_141" data-name="Path 141" d="M7567.079,4286.968a37.362,37.362,0,0,1-13.995-4.418,5.621,5.621,0,0,0-4.326,2.023,15.281,15.281,0,0,1-12.842-2.023,5.549,5.549,0,0,1-8.557,0,34.184,34.184,0,0,0-9.859,9.851,1.274,1.274,0,0,0,2.549,0,3,3,0,0,1,6.008,0h0a1.274,1.274,0,0,0,2.549,0,3.031,3.031,0,0,1,6.062,0c0,.024,0,.047,0,.07s0,.04,0,.06c0,.04.011.08.019.119a.019.019,0,0,0,0,.007.839.839,0,0,0,.022.087c0,.012,0,.024.009.036a1.278,1.278,0,0,0,.6.732l.015.009a1.148,1.148,0,0,0,.11.053h0c.026.012.055.021.081.03l.036.014.068.017c.019,0,.036.01.055.014s.042.007.063.01l.063.01.063,0c.022,0,.046,0,.068,0h0c.023,0,.047,0,.069,0l.06,0c.041,0,.081-.01.12-.018h.007c.031-.006.059-.015.088-.022l.034-.008a1.276,1.276,0,0,0,.733-.6.166.166,0,0,1,.009-.015.716.716,0,0,0,.037-.078c.006-.011.012-.022.017-.033s.018-.046.025-.07l.018-.048c.007-.021.012-.044.018-.067s.01-.035.014-.054.006-.042.01-.063.007-.042.009-.063,0-.042,0-.063,0-.044,0-.068a3,3,0,0,1,6.008,0h0a1.274,1.274,0,0,0,2.549,0,3.031,3.031,0,0,1,6.062,0c0,.024,0,.047,0,.07s0,.04,0,.06a.967.967,0,0,0,.019.119v.007c.007.03.015.059.023.087,0,.012,0,.024.009.036a1.274,1.274,0,0,0,.6.732s.009.006.015.009c.035.019.072.037.109.053h0c.027.012.055.021.083.03l.035.014.068.017c.019,0,.035.01.054.014s.042.007.063.01l.063.01c.02,0,.042,0,.063,0s.045,0,.067,0h0c.024,0,.047,0,.07,0l.06,0c.041,0,.08-.01.12-.018h.008c.029-.006.058-.015.087-.022l.035-.008a1.279,1.279,0,0,0,.733-.6s.006-.009.008-.015a.722.722,0,0,0,.038-.078l.016-.033c.01-.023.018-.046.025-.07a.433.433,0,0,0,.018-.048c.007-.021.012-.044.018-.067s.01-.035.014-.054.007-.042.01-.063.008-.042.01-.063,0-.042,0-.063,0-.044,0-.068a3,3,0,0,1,6.008,0h0a1.274,1.274,0,0,0,2.549,0,3,3,0,0,1,6.009,0,1.274,1.274,0,0,0,2.548,0A5.558,5.558,0,0,0,7567.079,4286.968Zm-39.747,1.9a5.562,5.562,0,0,0-2.79-1.812,3,3,0,0,1,5.628-.014A5.575,5.575,0,0,0,7527.332,4288.868Zm8.6.007a5.623,5.623,0,0,0-2.836-1.823,3,3,0,0,1,5.632,0A5.566,5.566,0,0,0,7535.937,4288.875Zm8.564-.007a5.573,5.573,0,0,0-2.839-1.826,3,3,0,0,1,5.629.014A5.566,5.566,0,0,0,7544.5,4288.868Zm8.6.007a5.619,5.619,0,0,0-2.881-1.835,3.06,3.06,0,0,1,2.86-1.943,3.009,3.009,0,0,1,2.817,1.96A5.573,5.573,0,0,0,7553.1,4288.875Zm8.565-.007a5.57,5.57,0,0,0-2.84-1.826,3.005,3.005,0,0,1,5.63.014A5.558,5.558,0,0,0,7561.67,4288.868Z" transform="translate(0 -511.393)" fill="#fff"/>
    <path id="Path_142" data-name="Path 142" d="M7942.822,3816.653h12.693a1.049,1.049,0,0,0,0-2.1h-12.693a1.049,1.049,0,0,0,0,2.1Z" transform="translate(-392.453 -78.493)" fill="#fff"/>
    <path id="Path_143" data-name="Path 143" d="M7942.1,3888.249h7.261a1.049,1.049,0,1,0,0-2.1H7942.1a1.049,1.049,0,0,0,0,2.1Z" transform="translate(-391.801 -144.717)" fill="#fff"/>
  </g>
</svg>
