<svg xmlns="http://www.w3.org/2000/svg" width="44" height="44" viewBox="0 0 44 44">
  <g id="PDF_-_download" data-name="PDF - download" transform="translate(0 0)">
    <g id="Layer_23" data-name="Layer 23" transform="translate(0.97 44.503) rotate(-90)">
      <rect id="Rectangle_145" data-name="Rectangle 145" width="44" height="44" rx="9" transform="translate(44.503 -0.97) rotate(90)" fill="#f7001b"/>
    </g>
    <g id="Group_206" data-name="Group 206" transform="translate(-746 -4362)">
      <rect id="Rectangle_165" data-name="Rectangle 165" width="16.239" height="10.125" rx="2" transform="translate(751 4375.235)" fill="#fff" style="isolation: isolate"/>
    </g>
    <g id="Group_204" data-name="Group 204" transform="translate(8.731 5)">
      <path id="Path_255" data-name="Path 255" d="M318.208,417.4a2.046,2.046,0,0,1-2.044-2.044V405.011h-2.137v10.346a4.186,4.186,0,0,0,4.181,4.181h15.186l-1.865-2.137Zm11.628-31.557H318.208a4.186,4.186,0,0,0-4.181,4.181v3.246h2.137v-3.246a2.046,2.046,0,0,1,2.044-2.044h9.363v6a5.417,5.417,0,0,0,5.41,5.41h5.832v4.774h2.137v-7.2Zm3.145,11.409a3.278,3.278,0,0,1-3.274-3.274v-5.242l8.515,8.515Z" transform="translate(-314.027 -385.844)" fill="#fff"/>
    </g>
    <g id="Group_205" data-name="Group 205" transform="translate(6.422 15.431)" style="isolation: isolate">
      <path id="Path_256" data-name="Path 256" d="M310.785,400.6a8.606,8.606,0,0,1,1.427-.112,2.368,2.368,0,0,1,1.615.479,1.578,1.578,0,0,1,.5,1.2,1.694,1.694,0,0,1-.444,1.23,2.4,2.4,0,0,1-1.759.633,2.589,2.589,0,0,1-.6-.051v2.306h-.744Zm.744,2.776a2.492,2.492,0,0,0,.615.06c.9,0,1.444-.444,1.444-1.222s-.547-1.137-1.359-1.137a3.159,3.159,0,0,0-.7.06Z" transform="translate(-310.785 -400.488)"/>
      <path id="Path_257" data-name="Path 257" d="M317.169,400.616a9.616,9.616,0,0,1,1.581-.128,3.334,3.334,0,0,1,2.332.718,2.625,2.625,0,0,1,.82,2.067,3.077,3.077,0,0,1-.828,2.238,3.581,3.581,0,0,1-2.554.829,11.7,11.7,0,0,1-1.35-.069Zm.744,5.091a6.046,6.046,0,0,0,.752.034,2.209,2.209,0,0,0,2.451-2.442,2.054,2.054,0,0,0-2.331-2.222,4.206,4.206,0,0,0-.872.078Z" transform="translate(-312.622 -400.488)"/>
      <path id="Path_258" data-name="Path 258" d="M325.149,400.548h3.1v.624H325.9v1.913h2.17v.615H325.9v2.605h-.752Z" transform="translate(-314.918 -400.505)"/>
    </g>
    <path id="Path_259" data-name="Path 259" d="M348.316,422.1v-8.349a1.07,1.07,0,0,0-1.071-1.07h-6.238a1.07,1.07,0,0,0-1.07,1.071V422.1H336.6l7.528,8.628,7.529-8.628Z" transform="translate(-311.79 -388.566)" fill="#fff" style="isolation: isolate"/>
  </g>
</svg>
