<svg xmlns="http://www.w3.org/2000/svg" width="26.377" height="35" viewBox="0 0 26.377 35">
  <g id="Group_190" data-name="Group 190" transform="translate(-474.073 -116.047)">
    <path id="Path_253" data-name="Path 253" d="M482.8,130.341a5.529,5.529,0,1,1-.027-11.057h.007a5.529,5.529,0,1,1,.019,11.057Zm-.027-8.844a3.241,3.241,0,0,0-3.311,3.313,3.317,3.317,0,1,0,6.634,0,3.241,3.241,0,0,0-3.309-3.313Z" transform="translate(4.479 4.558)" fill="#fff"/>
    <path id="Path_254" data-name="Path 254" d="M487.261,151.047l-.848-1.007c-.344-.409-8.447-10.048-10.109-12.709a13.545,13.545,0,0,1-2.232-8.1,13.188,13.188,0,0,1,26.377,0,13.562,13.562,0,0,1-2.235,8.1c-1.661,2.661-9.764,12.3-10.109,12.709Zm0-32.789a10.99,10.99,0,0,0-10.978,10.978,11.445,11.445,0,0,0,1.9,6.923c1.276,2.044,6.918,8.856,9.08,11.447,2.162-2.591,7.8-9.4,9.078-11.447a11.41,11.41,0,0,0,1.9-6.921A10.99,10.99,0,0,0,487.261,118.258Z" transform="translate(0)" fill="#fff"/>
  </g>
</svg>
