<svg xmlns="http://www.w3.org/2000/svg" width="38.343" height="41.232"><g data-name="Group 126" fill="#fff"><path data-name="Path 199" d="M11.167 12.026H.859A.859.859 0 0 1 0 11.167V.859A.859.859 0 0 1 .859 0h6.872a.859.859 0 1 1 0 1.718H1.718v8.59h8.59V6.872a.859.859 0 1 1 1.718 0v4.295a.859.859 0 0 1-.859.859z"/><path data-name="Path 200" d="M6.013 9.449a.859.859 0 0 1-.607-.252L2.829 6.62a.86.86 0 0 1 1.215-1.215l1.889 1.889L11.349.331a.859.859 0 0 1 1.356 1.055L6.692 9.117a.859.859 0 0 1-.625.33z"/><path data-name="Path 201" d="M11.167 25.77H.859A.859.859 0 0 1 0 24.911V14.603a.859.859 0 0 1 .859-.859h6.872a.859.859 0 1 1 0 1.718H1.718v8.59h8.59v-3.436a.859.859 0 1 1 1.718 0v4.295a.859.859 0 0 1-.859.859z"/><path data-name="Path 202" d="M6.013 23.192a.859.859 0 0 1-.607-.251l-2.577-2.577a.86.86 0 0 1 1.215-1.215l1.889 1.889 5.416-6.963a.859.859 0 1 1 1.356 1.054L6.692 22.86a.859.859 0 0 1-.625.33z"/><path data-name="Path 203" d="M6.013 38.762a.859.859 0 0 1-.607-.251l-2.577-2.577a.86.86 0 0 1 1.215-1.215l1.889 1.889 5.416-6.963a.859.859 0 0 1 1.356 1.055l-6.013 7.731a.859.859 0 0 1-.625.33z"/><path data-name="Path 204" d="M11.167 41.232H.859A.859.859 0 0 1 0 40.373V30.065a.859.859 0 0 1 .859-.859h6.872a.859.859 0 1 1 0 1.718H1.718v8.59h8.59v-.859a.859.859 0 0 1 1.718 0v1.718a.859.859 0 0 1-.859.859z"/><path data-name="Path 205" d="M14.249 33.464a.859.859 0 0 1-.837-1.052A17.632 17.632 0 0 1 18.13 23.9L32.672 9.359a2.9 2.9 0 0 1 4.1 0l.722.722a2.9 2.9 0 0 1 0 4.1L22.952 28.722a17.632 17.632 0 0 1-8.512 4.717.853.853 0 0 1-.191.025zm20.473-23.236a1.179 1.179 0 0 0-.836.346L19.345 25.115a15.912 15.912 0 0 0-3.857 6.252 15.915 15.915 0 0 0 6.252-3.857l14.542-14.541a1.184 1.184 0 0 0 0-1.673l-.722-.722a1.179 1.179 0 0 0-.838-.346z"/><path data-name="Path 206" d="M31.112 24.541a.859.859 0 0 1-.607-1.467l4.331-4.331a1.183 1.183 0 0 0 0-1.673l-4.331-4.331a.86.86 0 0 1 1.215-1.215l4.331 4.331a2.9 2.9 0 0 1 0 4.1l-4.331 4.331a.857.857 0 0 1-.608.255z"/><path data-name="Path 207" d="M25.849 25.473a.856.856 0 0 1-.607-.251l-3.609-3.609a.86.86 0 0 1 1.215-1.215l3.609 3.609a.859.859 0 0 1-.607 1.466z"/></g></svg>