<svg xmlns="http://www.w3.org/2000/svg" width="27" height="48.052"><g data-name="Group 127" fill="#fff"><path data-name="Path 209" d="M14 9a4 4 0 0 1-4-4V4a4 4 0 0 1 8 0v1a4 4 0 0 1-4 4zm0-7a2 2 0 0 0-2 2v1a2 2 0 0 0 4 0V4a2 2 0 0 0-2-2z"/><path data-name="Rectangle 120" d="M8 21.2h2V24H8z"/><path data-name="Rectangle 121" d="M18 21h2v27h-2z"/><path data-name="Rectangle 122" d="M13.001 29.053l1.997-.105 1 19-1.997.105z"/><path data-name="Path 210" d="M3.948 22.972a2.934 2.934 0 0 1-2.406-1.252 2.978 2.978 0 0 1 .156-3.629l5.016-6.021A3 3 0 0 1 9 11v2a.987.987 0 0 0-.755.358l-5.01 6.012a.979.979 0 0 0-.055 1.2.945.945 0 0 0 .952.382l8.064-1.613a1 1 0 0 0 .8-.981V15h2v3.36a3.008 3.008 0 0 1-2.412 2.942L4.52 22.915a2.967 2.967 0 0 1-.572.057z"/><path data-name="Rectangle 123" d="M9 11h10v2H9z"/><path data-name="Path 211" d="M24.051 22.972a2.957 2.957 0 0 1-.575-.057L15.412 21.3A3.008 3.008 0 0 1 13 18.36V15h2v3.36a1 1 0 0 0 .8.981l8.064 1.613a.943.943 0 0 0 .952-.382.978.978 0 0 0-.057-1.2l-5.013-6.016A.983.983 0 0 0 19 13v-2a2.993 2.993 0 0 1 2.28 1.063l5.021 6.026a2.966 2.966 0 0 1-2.25 4.883z"/><path data-name="Rectangle 124" d="M14 23h5v2h-5z"/><path data-name="Rectangle 125" d="M9 23h3v2H9z"/><path data-name="Path 213" d="M15 37H3.5a3.5 3.5 0 0 1-2.474-5.975l7.245-7.71 1.458 1.37-7.268 7.732A1.5 1.5 0 0 0 3.5 35H15z"/><path data-name="Rectangle 126" d="M7 31h7.16v2H7z"/></g></svg>