<svg xmlns="http://www.w3.org/2000/svg" width="41.416" height="37.814"><g data-name="Group 5" fill="#fff"><path data-name="Path 30" d="M41.416 27.01h-25.21v-7.2h1.8v5.4h21.608V1.8H18.007v8.1h-1.8V0h25.209z"/><path data-name="Path 31" d="M9.004 10.803a4.585 4.585 0 0 1-4.5-4.757V4.758a4.508 4.508 0 1 1 9 0v1.288a4.584 4.584 0 0 1-4.5 4.757zm0-9a2.807 2.807 0 0 0-2.7 2.957v1.288a2.712 2.712 0 1 0 5.4 0V4.76a2.807 2.807 0 0 0-2.7-2.959z"/><path data-name="Path 32" d="M14.405 37.814h-1.8V15.306h6.3c1.536 0 2.372-.563 2.621-1.8H5.403c-2.44 0-3.6.674-3.6 4.5v6.3c0 1.008.234 2.7 1.8 2.7h.9v1.8h-.9c-2.222 0-3.6-1.725-3.6-4.5v-6.3c0-4.418 1.616-6.3 5.4-6.3h18.006v.9c0 2.861-1.641 4.5-4.5 4.5h-4.5z"/><path data-name="Rectangle 12" d="M8.103 25.209h1.801v12.605H8.103z"/><path data-name="Rectangle 13" d="M3.601 18.006h1.801v19.807H3.601z"/><path data-name="Path 33" d="M25.766 21.608h-5.058v-1.8h3.945l1.8-3.6h4.448l3.6-9h3.311v1.8h-2.091l-3.6 9h-4.555z"/></g></svg>