<svg xmlns="http://www.w3.org/2000/svg" width="40.015" height="42"><path data-name="Path 223" d="M36.383 31.18l-7.03-3.13-3.658-1.629a10.572 10.572 0 0 0 4.765-8.843V6.384A6.36 6.36 0 0 0 24.14 0h-8.255a6.36 6.36 0 0 0-6.32 6.384v11.193a10.571 10.571 0 0 0 4.765 8.842l-3.66 1.629-7.031 3.13a6.286 6.286 0 0 0-3.632 5.795v4.315a.702.702 0 1 0 1.405 0v-4.313a4.867 4.867 0 0 1 2.793-4.5l6.411-2.854 5.339 11.721a.7.7 0 0 0 .638.413.666.666 0 0 0 .078 0 .7.7 0 0 0 .609-.56l1.793-8.623h1.883l1.793 8.623a.7.7 0 0 0 .609.56.662.662 0 0 0 .078 0 .7.7 0 0 0 .638-.413l5.339-11.72 6.411 2.853a4.867 4.867 0 0 1 2.793 4.5v4.315a.702.702 0 1 0 1.405 0v-4.315a6.286 6.286 0 0 0-3.639-5.795zm-15.151-.028h-2.448a2.727 2.727 0 0 1-.8-1.925v-1.3a10.207 10.207 0 0 0 4.05 0v1.3a2.731 2.731 0 0 1-.806 1.925zM15.881 1.419h8.255a4.945 4.945 0 0 1 4.914 4.965v5.241c-3.648-.44-4.689-4.232-4.734-4.4a.707.707 0 0 0-.526-.511.682.682 0 0 0-.692.235c-3.378 4.063-10 4.633-12.131 4.71V6.387a4.945 4.945 0 0 1 4.913-4.968zm10.9 13.748a2.437 2.437 0 1 1-2.436-2.359 2.4 2.4 0 0 1 2.437 2.359zm-2.436-3.778a3.827 3.827 0 0 0-3.768 3.068h-1.212a3.776 3.776 0 0 0-1.744-2.487 14.629 14.629 0 0 0 5.762-3.262 8.369 8.369 0 0 0 2.171 2.89 3.845 3.845 0 0 0-1.207-.209zm-8.749 1.419a2.36 2.36 0 1 1-2.436 2.359 2.4 2.4 0 0 1 2.438-2.359zm-4.631 4.769v-4.5c.381-.011.887-.035 1.5-.091a3.708 3.708 0 0 0-.712 2.178 3.844 3.844 0 0 0 7.609.71h1.212a3.844 3.844 0 0 0 7.609-.71 3.727 3.727 0 0 0-1.078-2.614 6.519 6.519 0 0 0 1.94.471v4.553a9.1 9.1 0 0 1-9.041 9.133 9.1 9.1 0 0 1-9.038-9.129zm5.368 21.224l-4.44-9.749 4-1.779c.223.1.454.179.686.26v1.694a4.165 4.165 0 0 0 1.151 2.869zm7.346 0l-1.394-6.7a4.167 4.167 0 0 0 1.151-2.869v-1.694c.231-.082.462-.163.685-.26l4 1.779z" fill="#fff"/></svg>