<svg xmlns="http://www.w3.org/2000/svg" width="48.583" height="53"><g data-name="Group 89" fill="#fff"><path data-name="Path 169" d="M43.058 53H18.77a3.31 3.31 0 0 1-.6-6.566l23.888-4.376a5.405 5.405 0 0 1 1-.1 5.521 5.521 0 1 1 0 11.042zm-24.493-4.395a1.1 1.1 0 0 0 .2 2.186h24.293a3.313 3.313 0 0 0 0-6.625 3.256 3.256 0 0 0-.6.063l-23.89 4.376z"/><path data-name="Path 170" d="M24.292 14.354a5.527 5.527 0 0 1-5.521-5.521V5.521a5.521 5.521 0 1 1 11.042 0v3.313a5.527 5.527 0 0 1-5.521 5.52zm0-12.146a3.317 3.317 0 0 0-3.312 3.313v3.313a3.313 3.313 0 0 0 6.625 0V5.522a3.317 3.317 0 0 0-3.313-3.314z"/><path data-name="Path 171" d="M47.479 39.75h-4.775l-6.631-4.736a4.426 4.426 0 0 1-1.849-3.594v-8.757a3.284 3.284 0 0 0-2.69-3.18 37.463 37.463 0 0 0-14.528.006 3.266 3.266 0 0 0-2.652 3.174v8.758a4.426 4.426 0 0 1-1.849 3.594l-6.631 4.736h-4.77v-2.208h4.063l6.054-4.325a2.211 2.211 0 0 0 .924-1.8v-8.755a5.479 5.479 0 0 1 4.44-5.342 39.635 39.635 0 0 1 15.38-.007 5.5 5.5 0 0 1 4.472 5.348v8.759a2.212 2.212 0 0 0 .925 1.8l6.053 4.324h4.063z"/><path data-name="Path 172" d="M18.771 53H5.521a5.521 5.521 0 1 1 0-11.042 5.426 5.426 0 0 1 1 .1L24.49 45.35l-.4 2.172L6.12 44.23a3.278 3.278 0 0 0-.6-.063 3.313 3.313 0 0 0 0 6.625h13.25z"/><path data-name="Path 173" d="M32.424 45.043l-1.469-5.376a32.553 32.553 0 0 1-1.142-8.529v-6.846h2.208v6.846a30.343 30.343 0 0 0 1.066 7.948l1.469 5.375z"/><path data-name="Path 174" d="M16.159 45.043l-2.131-.582 1.469-5.377a30.314 30.314 0 0 0 1.066-7.946v-6.846h2.208v6.846a32.524 32.524 0 0 1-1.143 8.526z"/></g></svg>