<svg xmlns="http://www.w3.org/2000/svg" width="48.991" height="53.145"><g data-name="Group 88" fill="#fff" stroke="#fff" stroke-width=".5"><path data-name="Path 154" d="M22.587 23.368a1.475 1.475 0 0 0 1.395 1.015h1.028a1.475 1.475 0 0 0 1.395-1.015c1.23-.389 1.981-1.132 1.981-1.981V19.79a.475.475 0 0 0-.475-.475h-6.83a.475.475 0 0 0-.475.475v1.596c0 .85.751 1.593 1.981 1.982zm-1.031-2.134v-.972h5.879v.968a.482.482 0 0 0 0 .108v.046c0 .438-.639.908-1.555 1.143a.475.475 0 0 0-.356.424.519.519 0 0 1-.515.478h-1.028a.519.519 0 0 1-.515-.478.475.475 0 0 0-.356-.424c-.916-.235-1.555-.705-1.555-1.143v-.044a.465.465 0 0 0 .001-.106z"/><path data-name="Path 155" d="M19.448 13.47l1.469 4.69a.475.475 0 0 0 .907-.284l-1.509-4.817a.475.475 0 0 0-.143-.218 6.624 6.624 0 1 1 8.648 0 .473.473 0 0 0-.143.218l-1.509 4.818a.475.475 0 1 0 .907.284l1.469-4.691a7.574 7.574 0 1 0-10.1 0z"/><path data-name="Path 156" d="M21.54 8.852a.5.5 0 0 0-.424.551l2.08 8.7a.38.38 0 0 0 .369.292.385.385 0 0 0 .089-.01.38.38 0 0 0 .281-.458l-2-8.377a1.368 1.368 0 0 0 .972-1.307.605.605 0 1 1 .605.605.38.38 0 1 0 0 .76 1.367 1.367 0 0 0 1.365-1.365.605.605 0 1 1 .605.605.38.38 0 1 0 0 .76 1.367 1.367 0 0 0 1.365-1.365.605.605 0 1 1 .605.605.379.379 0 0 0-.351.525l-2.044 8.554a.38.38 0 0 0 .74.177l2.043-8.552a977.395 977.395 0 0 1-6.3-2.675 1.367 1.367 0 0 0-1.366 1.365.38.38 0 0 0 .76 0 .605.605 0 1 1 .605.605z"/><path data-name="Path 157" d="M30.89 39.181a.506.506 0 0 0-.513.872 7.2 7.2 0 0 1 3.511 6.684c0 .767-.051 3.923-.132 5.148h-3.7v-4.186a.506.506 0 1 0-1.011 0v4.182h-9.1v-4.357a.506.506 0 1 0-1.011 0v4.357h-3.7c-.08-1.225-.132-4.381-.132-5.148a7.2 7.2 0 0 1 3.478-6.665.506.506 0 1 0-.518-.869 8.25 8.25 0 0 0-3.972 7.534c0 .564.057 5 .187 5.741a.506.506 0 0 0 .5.418h19.435a.506.506 0 0 0 .5-.418c.13-.737.187-5.177.187-5.741a8.246 8.246 0 0 0-4.009-7.552z"/><path data-name="Path 158" d="M18.004 33.353a6.492 6.492 0 1 0 6.492-6.492 6.5 6.5 0 0 0-6.492 6.492zm6.492-5.48a5.48 5.48 0 1 1-5.48 5.48 5.487 5.487 0 0 1 5.48-5.481z"/><path data-name="Path 159" d="M12.056 46.347h-6.72v-4.756a.506.506 0 1 0-1.011 0v4.756H1.367c-.065-1.07-.106-3.622-.106-4.252a5.98 5.98 0 0 1 2.915-5.556.506.506 0 0 0-.513-.872A7.016 7.016 0 0 0 .25 42.095c0 .306.042 4.184.159 4.845a.506.506 0 0 0 .5.418h11.149a.506.506 0 0 0 0-1.012z"/><path data-name="Path 160" d="M15.771 38.142a.506.506 0 0 0 .822-.589 6.762 6.762 0 0 0-2.056-1.867.506.506 0 1 0-.518.869 5.757 5.757 0 0 1 1.752 1.587z"/><path data-name="Path 161" d="M13.339 41.086a.506.506 0 0 0-.506.506v1a.506.506 0 1 0 1.011 0v-1a.506.506 0 0 0-.505-.506z"/><path data-name="Path 162" d="M9.084 36.376a5.543 5.543 0 1 0-5.543-5.544 5.55 5.55 0 0 0 5.543 5.544zm0-10.075a4.532 4.532 0 1 1-4.532 4.532 4.537 4.537 0 0 1 4.532-4.532z"/><path data-name="Path 163" d="M45.328 35.668a.506.506 0 1 0-.513.872 5.98 5.98 0 0 1 2.915 5.556c0 .63-.041 3.182-.105 4.252h-2.958v-4.756a.506.506 0 1 0-1.011 0v4.756h-6.719a.506.506 0 1 0 0 1.012h11.149a.506.506 0 0 0 .5-.418c.116-.661.158-4.539.158-4.845a7.016 7.016 0 0 0-3.416-6.429z"/><path data-name="Path 164" d="M35.146 35.861a.506.506 0 0 0-.693-.176 6.759 6.759 0 0 0-2.055 1.867.506.506 0 1 0 .822.589 5.755 5.755 0 0 1 1.751-1.588.506.506 0 0 0 .175-.692z"/><path data-name="Path 165" d="M35.652 41.086a.506.506 0 0 0-.506.506v1a.506.506 0 0 0 1.012 0v-1a.506.506 0 0 0-.506-.506z"/><path data-name="Path 166" d="M34.363 30.832a5.543 5.543 0 1 0 5.543-5.543 5.55 5.55 0 0 0-5.543 5.543zm10.075 0a4.532 4.532 0 1 1-4.532-4.532 4.537 4.537 0 0 1 4.532 4.532z"/><path data-name="Path 167" d="M33.115 13.563a15.383 15.383 0 0 1 6.271 8.81.505.505 0 0 0 .977-.258 16.393 16.393 0 0 0-6.682-9.389.505.505 0 0 0-.565.837z"/><path data-name="Path 168" d="M8.994 22.893a.5.5 0 0 0 .614-.366 15.386 15.386 0 0 1 6.127-8.838.505.505 0 1 0-.577-.829 16.4 16.4 0 0 0-6.529 9.419.505.505 0 0 0 .365.614z"/></g></svg>