<svg xmlns="http://www.w3.org/2000/svg" width="47.353" height="36.029"><g data-name="Group 125"><g data-name="Group 124"><g data-name="Group 123"><g data-name="Group 122" fill="#fff"><path data-name="Path 191" d="M.786 23.705a.785.785 0 0 0 .786-.786V2.344a.773.773 0 0 1 .772-.772h34.058a.786.786 0 0 0 0-1.572H2.344A2.347 2.347 0 0 0 0 2.344v20.575a.786.786 0 0 0 .786.786z"/><path data-name="Path 192" d="M42.331 4.987H16.045a.786.786 0 1 0 0 1.572H42.33a.786.786 0 0 0 0-1.572z"/><path data-name="Path 193" d="M5.022 6.559h7.654a.786.786 0 0 0 0-1.572H5.022a.786.786 0 0 0 0 1.572z"/><path data-name="Path 194" d="M43.117 12.041a.786.786 0 0 0-.786-.786H5.021a.786.786 0 0 0 0 1.572h37.31a.786.786 0 0 0 .786-.786z"/><path data-name="Path 195" d="M29.343 18.31a.786.786 0 0 0-.786-.786h-3.238a.786.786 0 1 0 0 1.572h3.238a.786.786 0 0 0 .786-.786z"/><path data-name="Path 196" d="M5.022 19.096h16.987a.786.786 0 1 0 0-1.572H5.022a.786.786 0 0 0 0 1.572z"/><path data-name="Path 197" d="M5.022 25.364h19.63a.786.786 0 1 0 0-1.572H5.022a.786.786 0 0 0 0 1.572z"/><path data-name="Path 198" d="M45.01.001h-5.242a.786.786 0 0 0 0 1.572h5.242a.773.773 0 0 1 .772.772v26.473a.773.773 0 0 1-.772.772h-2.731v-2.143a6.62 6.62 0 1 0-8.394 0v2.143H2.344a.773.773 0 0 1-.772-.772v-2.585a.786.786 0 0 0-1.572 0v2.585a2.347 2.347 0 0 0 2.344 2.344h31.541v4.083a.786.786 0 0 0 1.371.524l2.813-3.141 2.841 3.144a.785.785 0 0 0 1.369-.527v-4.083h2.73a2.347 2.347 0 0 0 2.344-2.344V2.345A2.346 2.346 0 0 0 45.01.001zm-4.3 33.2l-2.058-2.277a.785.785 0 0 0-.583-.259.785.785 0 0 0-.583.261l-2.025 2.261v-4.78a6.564 6.564 0 0 0 2.285.532q.17.009.341.009t.341-.009a6.564 6.564 0 0 0 2.285-.532V33.2zm.2-6.687a5.088 5.088 0 0 1-.632.364 4.99 4.99 0 0 1-.915.336h-.019c-.077.02-.155.038-.233.054q-.122.025-.246.044h-.008a5.46 5.46 0 0 1-.219.028l-.064.006q-.086.008-.173.013h-.07c-.075 0-.15.006-.226.006h-.017c-.076 0-.151 0-.226-.006h-.07c-.058 0-.116-.008-.173-.013l-.064-.006a5.46 5.46 0 0 1-.219-.028h-.009q-.124-.019-.246-.044a4.35 4.35 0 0 1-.232-.054h-.019a5.006 5.006 0 0 1-.914-.335 5.082 5.082 0 0 1-.632-.364 5.05 5.05 0 1 1 5.642 0z"/></g></g></g><path data-name="Rectangle 118" fill="#fff" d="M35.721.001h5.076v1.572h-5.076z"/><path data-name="Rectangle 119" fill="#fff" d="M0 22.167h1.572v6.243H0z"/></g></svg>