<svg xmlns="http://www.w3.org/2000/svg" width="53.097" height="55.381"><g data-name="Group 300"><g data-name="Group 306"><g data-name="Group 300"><path data-name="Path 262" d="M46.661 37.815a.871.871 0 0 1-.647-1.454 20.728 20.728 0 1 0-33.314-3.47.871.871 0 0 1-1.506.877 22.474 22.474 0 1 1 36.113 3.76.869.869 0 0 1-.646.287z" fill="#fff"/></g><g data-name="Group 301"><path data-name="Path 263" d="M37.816 40.389a.871.871 0 0 1-.714-1.368c2.768-3.985 4.356-10.016 4.356-16.546 0-11.431-4.86-20.729-10.833-20.729s-10.833 9.3-10.833 20.729a35.61 35.61 0 0 0 1.563 10.658.871.871 0 1 1-1.66.529 37.393 37.393 0 0 1-1.645-11.187c0-12.6 5.524-22.471 12.575-22.471S43.2 9.875 43.2 22.475c0 6.877-1.7 13.27-4.667 17.54a.871.871 0 0 1-.717.374z" fill="#fff"/></g><g data-name="Group 302"><path data-name="Path 264" d="M46.66 37.816a.867.867 0 0 1-.584-.225c-3.561-3.219-9.337-5.14-15.451-5.14a27.217 27.217 0 0 0-9.78 1.753.871.871 0 0 1-.633-1.623 29 29 0 0 1 10.414-1.871c6.533 0 12.746 2.089 16.619 5.588a.871.871 0 0 1-.583 1.518z" fill="#fff"/></g><g data-name="Group 303"><path data-name="Path 265" d="M30.629 14.232c-6.534 0-12.746-2.088-16.618-5.587a.87.87 0 1 1 1.166-1.292c3.562 3.217 9.338 5.138 15.452 5.138s11.89-1.921 15.451-5.139a.871.871 0 0 1 1.168 1.293c-3.876 3.499-10.089 5.587-16.619 5.587z" fill="#fff"/></g><g data-name="Group 304"><path data-name="Path 266" d="M52.226 23.342h-43.2a.871.871 0 0 1 0-1.742h43.2a.871.871 0 0 1 0 1.742z" fill="#fff"/></g><g data-name="Group 305"><path data-name="Path 267" d="M30.625 35.71a.871.871 0 0 1-.871-.871V.871a.871.871 0 1 1 1.742 0V34.84a.871.871 0 0 1-.871.87z" fill="#fff"/></g></g><g data-name="Group 312"><g data-name="Group 311"><g data-name="Group 310"><g data-name="Group 307"><path data-name="Path 268" d="M31.32 52.147a2.551 2.551 0 0 1-.728-.089c-2.356-.717-14.259-.935-18.646-.959a.871.871 0 0 1 .005-1.742h.005c.654 0 16.062.1 19.143 1.034 1.184.358 7.511-1.707 18.956-7.137a.315.315 0 0 0 .173-.21.329.329 0 0 0-.052-.278 3.907 3.907 0 0 0-4.589-1.362l-9.244 3.6a4.737 4.737 0 0 1-3.167.092l-4.866-1.574a.871.871 0 0 1 .536-1.657l4.865 1.574a2.988 2.988 0 0 0 2-.058l9.245-3.6a5.643 5.643 0 0 1 6.637 1.969 2.069 2.069 0 0 1-.789 3.077c-7.219 3.42-16.156 7.32-19.484 7.32z" fill="#fff"/></g><g data-name="Group 308"><path data-name="Path 269" d="M34.539 43.563H20.954a.871.871 0 0 1 0-1.742h13.465a3.153 3.153 0 0 0-3.063-3.046 53.036 53.036 0 0 1-5.538-.395 21.893 21.893 0 0 1-3.8-1.026 18.032 18.032 0 0 0-5.911-1.233c-3.495 0-7.639 4.669-7.681 4.716a.871.871 0 0 1-1.309-1.149c.191-.217 4.706-5.309 8.99-5.309a19.683 19.683 0 0 1 6.463 1.324 20.791 20.791 0 0 0 3.5.954 52.5 52.5 0 0 0 5.341.376 4.89 4.89 0 0 1 4.75 4.909 1.622 1.622 0 0 1-1.622 1.621z" fill="#fff"/></g><g data-name="Group 309"><path data-name="Path 270" d="M6.974 55.381a.869.869 0 0 1-.8-.531l-6.1-14.43a.871.871 0 0 1 .462-1.142l5.759-2.437a.872.872 0 0 1 1.142.463l6.1 14.429a.871.871 0 0 1-.462 1.142l-5.759 2.437a.864.864 0 0 1-.342.069zM2.011 40.543l5.426 12.826 4.155-1.757-5.429-12.826z" fill="#fff"/></g></g></g></g></g></svg>