<svg id="Group_43" data-name="Group 43" xmlns="http://www.w3.org/2000/svg" width="42.091" height="63.135" viewBox="0 0 42.091 63.135">
  <rect id="Rectangle_38" data-name="Rectangle 38" width="2.631" height="13.153" transform="translate(30.253 43.406)" fill="#444"/>
  <path id="Path_46" data-name="Path 46" d="M948.686,146.731h-2.631V144.1a1.316,1.316,0,0,1,.62-1.117l10.521-6.577,1.4,2.231-9.906,6.192Z" transform="translate(-922.38 -83.597)" fill="#444"/>
  <rect id="Rectangle_39" data-name="Rectangle 39" width="2.631" height="13.153" transform="translate(9.207 43.406)" fill="#444"/>
  <path id="Path_47" data-name="Path 47" d="M957,146.89h-2.631v-5.262c0-.681-.21-.91-.771-1.525l-.207-.229-3.9-3.893,1.86-1.86,4.187,4.206a4.422,4.422,0,0,1,1.46,3.3Z" transform="translate(-916.222 -87.699)" fill="#444"/>
  <path id="Path_48" data-name="Path 48" d="M940.68,146.89h-2.631v-5.262a4.421,4.421,0,0,1,1.461-3.3l.19-.209,4-4,1.86,1.86-4.105,4.122c-.562.614-.771.843-.771,1.525Z" transform="translate(-936.733 -87.699)" fill="#444"/>
  <path id="Path_49" data-name="Path 49" d="M952.217,146.731h-2.628v-1.9l-9.906-6.192,1.394-2.231,10.523,6.577a1.313,1.313,0,0,1,.617,1.117Z" transform="translate(-933.804 -83.597)" fill="#444"/>
  <path id="Path_50" data-name="Path 50" d="M956.56,150.6h-2.631a10.777,10.777,0,0,1-7.488-3A53.282,53.282,0,0,1,941,142.117c-1.162-1.74-1.536-5.672-1.536-7.306v-7.893h2.631v7.893c0,1.944.477,4.924,1.095,5.848a50.978,50.978,0,0,0,5.044,5.01,8.168,8.168,0,0,0,5.7,2.3h2.631a8.142,8.142,0,0,0,5.667-2.265,51.38,51.38,0,0,0,5.078-5.041c.617-.924,1.094-3.9,1.094-5.848v-7.893h2.631v7.893c0,1.634-.374,5.566-1.536,7.306a53.354,53.354,0,0,1-5.48,5.513A10.735,10.735,0,0,1,956.56,150.6Z" transform="translate(-934.2 -100.612)" fill="#444"/>
  <path id="Path_51" data-name="Path 51" d="M953.751,130.653H951.12V120.13h-5.262v10.523H943.23V118.814a1.313,1.313,0,0,1,1.313-1.315h7.893a1.314,1.314,0,0,1,1.315,1.315Z" transform="translate(-927.445 -117.499)" fill="#444"/>
  <rect id="Rectangle_40" data-name="Rectangle 40" width="42.091" height="2.631" transform="translate(0 23.676)" fill="#444"/>
  <path id="Path_52" data-name="Path 52" d="M961.938,139.014h-2.631V137.2l-1.9-.952a1.319,1.319,0,0,1-.726-1.179V132.44c0-4.488-1.991-7.814-6.577-10.825v4.248h-2.631v-6.577a1.315,1.315,0,0,1,1.955-1.148c4.6,2.564,9.884,6.5,9.884,14.3v1.815l1.9.952a1.318,1.318,0,0,1,.726,1.176Z" transform="translate(-919.847 -116.655)" fill="#444"/>
  <path id="Path_53" data-name="Path 53" d="M940.209,139.015h-2.631v-2.631a1.319,1.319,0,0,1,.726-1.176l1.9-.952v-1.815c0-7.915,5.287-11.805,9.9-14.311a1.317,1.317,0,0,1,1.944,1.156v6.577h-2.631v-4.276c-4.586,2.955-6.577,6.289-6.577,10.853v2.628a1.317,1.317,0,0,1-.729,1.179l-1.9.952Z" transform="translate(-937.578 -116.655)" fill="#444"/>
</svg>
