<svg xmlns="http://www.w3.org/2000/svg" width="35.148" height="45.144" viewBox="0 0 35.148 45.144">
  <path id="telefon" d="M579.07,493.922a35.76,35.76,0,0,1-2.6-4.511,32.631,32.631,0,0,1-1.929-4.678c-1.1-3.546-1.7-9.356-.43-13.57a8.7,8.7,0,0,1,1.517-3.026,4.847,4.847,0,0,1,2.453-1.689,7.678,7.678,0,0,1,4.437.186c.019,0,.056.056.075.111a1.625,1.625,0,0,1,.169.371l.805,3.6c.037.2.094.446.15.687.038.149.075.3.112.5.168.742.355,1.355.505,1.875.468,1.485.6,1.931-2.191,3.044-3.857,1.541-3.82,1.708-3.033,4.715l.075.223a28.547,28.547,0,0,0,2.546,6.869h0a29.738,29.738,0,0,0,4.344,5.811l.206.223c2.041,2.209,2.228,2.432,5.6.074,2.49-1.745,2.771-1.411,3.764-.241a15.829,15.829,0,0,0,1.311,1.448h0c.15.167.262.279.374.39.169.186.337.353.505.52l2.172,2.19a3.631,3.631,0,0,1,.674.761.959.959,0,0,1-.075.557c-.075.241-.15.483-.225.687a5.9,5.9,0,0,1-3.052,3.676,6.555,6.555,0,0,1-4.419-.018c-.243-.074-.468-.149-.693-.223a25.049,25.049,0,0,1-6.834-4.084,34.876,34.876,0,0,1-6.31-6.479Zm-3.782-3.936a38.441,38.441,0,0,0,2.7,4.678,35.422,35.422,0,0,0,6.572,6.739,26.009,26.009,0,0,0,7.209,4.307c.262.093.524.186.768.26h0a7.836,7.836,0,0,0,5.3-.056,7.062,7.062,0,0,0,3.782-4.418c.094-.26.169-.52.244-.761a1.934,1.934,0,0,0,.019-1.448,4.047,4.047,0,0,0-.936-1.169l-2.191-2.19c-.15-.149-.3-.316-.468-.483-.15-.167-.3-.315-.393-.408a17.926,17.926,0,0,1-1.236-1.374c-1.591-1.875-2.06-2.432-5.542.018-2.4,1.689-2.528,1.541-3.857.093l-.206-.223A27.879,27.879,0,0,1,582.889,488a27.162,27.162,0,0,1-2.434-6.572l-.056-.2c-.524-1.968-.562-2.079,2.228-3.193,3.913-1.559,3.707-2.246,2.977-4.623-.15-.483-.337-1.058-.487-1.763-.037-.167-.075-.353-.131-.538-.037-.2-.094-.409-.131-.631l-.824-3.657-.019-.056a2.538,2.538,0,0,0-.281-.687,1.42,1.42,0,0,0-.842-.687,9.032,9.032,0,0,0-5.205-.2,6.248,6.248,0,0,0-3.089,2.135,10.141,10.141,0,0,0-1.76,3.471c-1.33,4.474-.712,10.581.449,14.331a33.911,33.911,0,0,0,2,4.864Z" transform="translate(-624.212 -387.923) rotate(-7)" fill="#444" stroke="#40403f" stroke-width="0.25"/>
</svg>
