<svg xmlns="http://www.w3.org/2000/svg" width="39.34" height="31.092" viewBox="0 0 39.34 31.092">
  <g id="samolot" transform="translate(-1026.667 -500.704)">
    <path id="Path_185" data-name="Path 185" d="M1035.5,531.8a.816.816,0,0,1-.818-.819V521.75a.821.821,0,0,1,.319-.65l26.225-20.225a.819.819,0,0,1,1,1.3l-25.906,19.979v6.919l3.135-2.969a.819.819,0,1,1,1.126,1.189l-4.518,4.28A.816.816,0,0,1,1035.5,531.8Z" transform="translate(3.456 0)" fill="#40403f"/>
    <path id="Path_186" data-name="Path 186" d="M1052.072,528.569a.8.8,0,0,1-.339-.074l-13.112-6a.819.819,0,1,1,.683-1.49l12.391,5.668,11.778-23.557-33.884,14,6.843,2.965a.819.819,0,0,1-.651,1.5l-8.62-3.735a.82.82,0,0,1,.013-1.51l37.7-15.572a.82.82,0,0,1,1.046,1.125l-13.114,26.225A.819.819,0,0,1,1052.072,528.569Z" transform="translate(0 0)" fill="#40403f"/>
  </g>
</svg>
