<svg xmlns="http://www.w3.org/2000/svg" width="48.845" height="32.563" viewBox="0 0 48.845 32.563">
  <g id="Group_58" data-name="Group 58" transform="translate(-1321.355 -136.023)">
    <path id="Path_106" data-name="Path 106" d="M1350.894,159.827h-2.036v-2.034h2.036a1.02,1.02,0,0,0,1.017-1.021v-6.908c0-.815-.342-1.229-1.017-1.229h-1.617l-3.756-6.758a1,1,0,0,0-.79-.365h-8.084v-2.036h8.084a3.045,3.045,0,0,1,2.521,1.333l3.222,5.79h.421a3,3,0,0,1,3.053,3.265v6.908A3.057,3.057,0,0,1,1350.894,159.827Z" transform="translate(16.252 3.67)" fill="#fff"/>
    <path id="Path_107" data-name="Path 107" d="M1346.578,163.5H1330.3v-2.035h14.246v-23.4h-16.281v-2.035h18.317Z" transform="translate(7.34 0)" fill="#fff"/>
    <rect id="Rectangle_73" data-name="Rectangle 73" width="5.088" height="2.035" transform="translate(1324.407 161.463)" fill="#fff"/>
    <path id="Path_108" data-name="Path 108" d="M1343.216,157.043a5.08,5.08,0,1,1,5.1-5.079A5.094,5.094,0,0,1,1343.216,157.043Zm0-8.123a3.044,3.044,0,1,0,3.061,3.045A3.057,3.057,0,0,0,1343.216,148.92Z" transform="translate(17.816 11.543)" fill="#fff"/>
    <path id="Path_109" data-name="Path 109" d="M1329.905,157.043a5.08,5.08,0,1,1,5.1-5.079A5.094,5.094,0,0,1,1329.905,157.043Zm0-8.123a3.044,3.044,0,1,0,3.061,3.045A3.057,3.057,0,0,0,1329.905,148.92Z" transform="translate(3.67 11.543)" fill="#fff"/>
    <rect id="Rectangle_74" data-name="Rectangle 74" width="4.07" height="2.035" transform="translate(1352.9 161.463)" fill="#fff"/>
    <path id="Path_110" data-name="Path 110" d="M1345.775,147.322h-8.141v-2.035h5.9l-1.66-2.49,1.693-1.129,2.206,3.308Z" transform="translate(17.301 5.999)" fill="#fff"/>
    <rect id="Rectangle_75" data-name="Rectangle 75" width="17.299" height="2.035" transform="translate(1321.355 148.234)" fill="#fff"/>
    <rect id="Rectangle_76" data-name="Rectangle 76" width="15.264" height="2.035" transform="translate(1329.495 142.128)" fill="#fff"/>
    <rect id="Rectangle_77" data-name="Rectangle 77" width="2.035" height="2.035" transform="translate(1325.425 142.128)" fill="#fff"/>
    <rect id="Rectangle_78" data-name="Rectangle 78" width="2.035" height="2.035" transform="translate(1331.531 136.023)" fill="#fff"/>
  </g>
</svg>
