<svg xmlns="http://www.w3.org/2000/svg" width="46.883" height="42.805" viewBox="0 0 46.883 42.805">
  <g id="Group_61" data-name="Group 61" transform="translate(-1324.043 -291.559)">
    <path id="Path_124" data-name="Path 124" d="M1343.225,316.2a18.265,18.265,0,0,1-8.628-2.149l.954-1.8a16.25,16.25,0,0,0,7.674,1.913Z" transform="translate(8.335 16.336)" fill="#fff"/>
    <path id="Path_125" data-name="Path 125" d="M1330.689,310.005l-2.03-.206c1.051-10.4,9.328-18.239,19.254-18.239V293.6C1339.039,293.6,1331.633,300.652,1330.689,310.005Z" transform="translate(3.646 0.001)" fill="#fff"/>
    <path id="Path_126" data-name="Path 126" d="M1344.435,332.326c-6.327,0-11.281-8.954-11.281-20.383s4.954-20.383,11.279-20.383V293.6c-5.01,0-9.24,8.4-9.24,18.345s4.231,18.345,9.242,18.345Z" transform="translate(7.195)" fill="#fff"/>
    <path id="Path_127" data-name="Path 127" d="M1339.418,332.531v-2.039c9.531,0,17.3-8.276,17.327-18.449a18.821,18.821,0,0,0-5.437-13.466,16.594,16.594,0,0,0-11.792-4.979h0V291.56h0a18.612,18.612,0,0,1,13.235,5.577,20.85,20.85,0,0,1,6.033,14.91C1358.756,323.342,1350.069,332.531,1339.418,332.531Z" transform="translate(12.142 0.001)" fill="#fff"/>
    <path id="Path_128" data-name="Path 128" d="M1339.456,332.326v-2.039c4.936,0,9.1-8.4,9.1-18.345s-4.168-18.345-9.1-18.345v-2.039c6.248,0,11.143,8.954,11.143,20.383S1345.7,332.326,1339.456,332.326Z" transform="translate(12.173)" fill="#fff"/>
    <rect id="Rectangle_92" data-name="Rectangle 92" width="34.651" height="2.038" transform="translate(1334.235 303.789)" fill="#fff"/>
    <rect id="Rectangle_93" data-name="Rectangle 93" width="29.556" height="2.038" transform="translate(1339.331 318.058)" fill="#fff"/>
    <rect id="Rectangle_94" data-name="Rectangle 94" width="2.038" height="38.728" transform="translate(1350.542 292.579)" fill="#fff"/>
    <path id="Path_129" data-name="Path 129" d="M1342.388,319.974h-2.037V315.9c0-2.529-4.619-4.077-7.136-4.077s-7.134,1.548-7.134,4.077v4.077h-2.039V315.9c0-4.269,6.074-6.116,9.173-6.116s9.172,1.847,9.172,6.116Z" transform="translate(0 14.391)" fill="#fff"/>
    <path id="Path_130" data-name="Path 130" d="M1331.416,314.608a4.929,4.929,0,0,1-5.1-5.1v-2.038a5.1,5.1,0,0,1,10.192,0v2.038A4.929,4.929,0,0,1,1331.416,314.608Zm0-10.191a2.894,2.894,0,0,0-3.057,3.057v2.038a3.058,3.058,0,0,0,6.115,0v-2.038A2.9,2.9,0,0,0,1331.416,304.418Z" transform="translate(1.799 8.545)" fill="#fff"/>
  </g>
</svg>
