<svg xmlns="http://www.w3.org/2000/svg" width="48.109" height="43.098" viewBox="0 0 48.109 43.098">
  <g id="Group_60" data-name="Group 60" transform="translate(-1329.429 -335.245)">
    <path id="Path_120" data-name="Path 120" d="M1373.531,372.33h-40.092a4.014,4.014,0,0,1-4.01-4.01V339.255a4.014,4.014,0,0,1,4.01-4.01h40.092a4.012,4.012,0,0,1,4.008,4.01V368.32A4.012,4.012,0,0,1,1373.531,372.33Zm-40.092-35.081a2.009,2.009,0,0,0-2.006,2.006V368.32a2.009,2.009,0,0,0,2.006,2.006h40.092a2.008,2.008,0,0,0,2-2.006V339.255a2.008,2.008,0,0,0-2-2.006Z" transform="translate(0 0)" fill="#fff"/>
    <rect id="Rectangle_83" data-name="Rectangle 83" width="2.005" height="4.009" transform="translate(1357.493 373.332)" fill="#fff"/>
    <rect id="Rectangle_84" data-name="Rectangle 84" width="2.005" height="4.009" transform="translate(1348.472 373.332)" fill="#fff"/>
    <rect id="Rectangle_85" data-name="Rectangle 85" width="17.039" height="2.005" transform="translate(1345.465 376.339)" fill="#fff"/>
    <rect id="Rectangle_86" data-name="Rectangle 86" width="46.105" height="2.005" transform="translate(1330.431 364.311)" fill="#fff"/>
    <rect id="Rectangle_87" data-name="Rectangle 87" width="3.007" height="2.005" transform="translate(1352.482 367.318)" fill="#fff"/>
    <path id="Path_121" data-name="Path 121" d="M1349.876,346.236h-4.01V344.23h4.01v-2h-6.014v-2h6.014a2.007,2.007,0,0,1,2,2v2A2.008,2.008,0,0,1,1349.876,346.236Z" transform="translate(14.634 5.046)" fill="#fff"/>
    <path id="Path_122" data-name="Path 122" d="M1340.917,346.236h-4.008a2.009,2.009,0,0,1-2.006-2.006v-2a2.007,2.007,0,0,1,2.006-2h9.021v2h-9.021v2h4.008Z" transform="translate(5.55 5.046)" fill="#fff"/>
    <path id="Path_123" data-name="Path 123" d="M1354.254,353.8h-14.472a2,2,0,0,1-1.944-1.521l-2.032-9.208,1.957-.431,2.024,9.182,14.466-.028,2.061-9.117,1.955.443-2.066,9.139A2.008,2.008,0,0,1,1354.254,353.8Z" transform="translate(6.466 7.502)" fill="#fff"/>
    <rect id="Rectangle_88" data-name="Rectangle 88" width="9.871" height="2.005" transform="matrix(0.406, -0.914, 0.914, 0.406, 1352.568, 349.872)" fill="#fff"/>
    <rect id="Rectangle_89" data-name="Rectangle 89" width="2.005" height="5.011" transform="translate(1348.472 352.284)" fill="#fff"/>
    <rect id="Rectangle_90" data-name="Rectangle 90" width="2.005" height="5.011" transform="translate(1352.482 352.284)" fill="#fff"/>
    <rect id="Rectangle_91" data-name="Rectangle 91" width="2.005" height="5.011" transform="translate(1356.491 352.284)" fill="#fff"/>
  </g>
</svg>
