<svg xmlns="http://www.w3.org/2000/svg" width="46.195" height="51.018" viewBox="0 0 46.195 51.018">
  <g id="Group_55" data-name="Group 55" transform="translate(-896.364 -155.407)">
    <path id="Path_88" data-name="Path 88" d="M915.274,183.38h-4.3a1.074,1.074,0,0,1-1.074-1.074v-2.462a3.385,3.385,0,0,1-.542-.228l-1.318,1.334a1.065,1.065,0,0,1-.759.322h0a1.081,1.081,0,0,1-.757-.312l-2.887-2.866a1.074,1.074,0,0,1,.007-1.53l1.309-1.281a3.217,3.217,0,0,1-.219-.492h-2.346a1.074,1.074,0,0,1-1.074-1.074v-4.3a1.074,1.074,0,0,1,1.074-1.074h2.344a3.121,3.121,0,0,1,.228-.531l-1.323-1.3a1.074,1.074,0,0,1,0-1.523l2.88-2.887a1.079,1.079,0,0,1,.759-.315h0a1.078,1.078,0,0,1,.759.317l1.323,1.327a3.467,3.467,0,0,1,.549-.235v-1.3a1.074,1.074,0,0,1,1.074-1.074h4.3a1.074,1.074,0,0,1,1.074,1.074v1.3a3.187,3.187,0,0,1,.465.208l1.229-1.3a1.076,1.076,0,0,1,.764-.333,1.212,1.212,0,0,1,.773.312l2.887,2.88a1.076,1.076,0,0,1,0,1.523l-1.323,1.311a3.34,3.34,0,0,1,.23.536h1.421a1.072,1.072,0,0,1,1.072,1.074v4.3a1.072,1.072,0,0,1-1.072,1.074h-1.421a3.5,3.5,0,0,1-.207.479l1.309,1.247a1.071,1.071,0,0,1,.02,1.532l-2.864,2.887a1.072,1.072,0,0,1-.761.317h0a1.062,1.062,0,0,1-.764-.324l-1.275-1.3a3.147,3.147,0,0,1-.477.21v2.472A1.074,1.074,0,0,1,915.274,183.38Zm-3.222-2.148H914.2v-2.239a1.073,1.073,0,0,1,.9-1.06,1.671,1.671,0,0,0,.912-.335c.128-.087.264-.18.44-.28a1.068,1.068,0,0,1,1.3.182l1.122,1.147,1.323-1.334-1.149-1.1a1.076,1.076,0,0,1-.189-1.311c.094-.162.18-.292.262-.413a1.8,1.8,0,0,0,.342-.949,1.075,1.075,0,0,1,1.06-.9h1.195v-2.148h-1.195a1.075,1.075,0,0,1-1.06-.9,1.987,1.987,0,0,0-.369-1.015c-.078-.119-.16-.244-.246-.4a1.074,1.074,0,0,1,.176-1.3l1.163-1.151-1.343-1.338-1.078,1.135a1.077,1.077,0,0,1-1.311.192c-.176-.1-.31-.192-.438-.278a1.684,1.684,0,0,0-.914-.335,1.073,1.073,0,0,1-.9-1.06v-1.072h-2.148v1.072a1.075,1.075,0,0,1-.9,1.06,2.083,2.083,0,0,0-1.042.381c-.114.075-.237.153-.381.235a1.071,1.071,0,0,1-1.3-.173l-1.16-1.165-1.357,1.357,1.161,1.14a1.074,1.074,0,0,1,.178,1.3c-.087.153-.167.276-.244.392a2.01,2.01,0,0,0-.369,1.019,1.075,1.075,0,0,1-1.06.9h-2.118v2.148h2.118a1.075,1.075,0,0,1,1.06.9,1.729,1.729,0,0,0,.342.933c.086.125.175.26.273.429a1.078,1.078,0,0,1-.18,1.3l-1.152,1.129,1.35,1.338,1.154-1.17a1.075,1.075,0,0,1,1.3-.178c.137.08.255.155.365.226a2.148,2.148,0,0,0,1.058.381,1.075,1.075,0,0,1,.9,1.06Z" transform="translate(6.336 6.939)" fill="#fff"/>
    <path id="Path_89" data-name="Path 89" d="M908.885,172.293a4.32,4.32,0,1,1,4.321-4.321A4.325,4.325,0,0,1,908.885,172.293Zm0-6.491a2.172,2.172,0,1,0,2.173,2.171A2.173,2.173,0,0,0,908.885,165.8Z" transform="translate(10.501 10.556)" fill="#fff"/>
    <path id="Path_90" data-name="Path 90" d="M922.049,194.926H919.9V192.74c0-3.5,1.678-5,3.8-6.895.49-.438,1.019-.91,1.573-1.448a14.6,14.6,0,0,0,4.412-10.6c0-7.118-6.448-13.136-14.082-13.136s-14.082,6.017-14.082,13.136a14.6,14.6,0,0,0,4.41,10.6c.556.538,1.083,1.01,1.573,1.446,2.125,1.9,3.8,3.4,3.8,6.9v2.187h-2.148V192.74c0-2.54-1.1-3.518-3.085-5.294-.511-.454-1.06-.946-1.639-1.507a16.738,16.738,0,0,1-5.062-12.137c0-8.284,7.431-15.283,16.23-15.283s16.23,7,16.23,15.283a16.738,16.738,0,0,1-5.064,12.137c-.579.561-1.129,1.053-1.639,1.507-1.988,1.776-3.083,2.754-3.083,5.294Z" transform="translate(3.856 3.982)" fill="#fff"/>
    <rect id="Rectangle_47" data-name="Rectangle 47" width="12.886" height="2.148" transform="translate(913.018 199.983)" fill="#fff"/>
    <path id="Path_91" data-name="Path 91" d="M911.656,179.592h-4.3a1.076,1.076,0,0,1-.759-.315l-.759-.759h-1.7V176.37h2.148a1.075,1.075,0,0,1,.759.315l.76.759h3.406l.759-.759a1.076,1.076,0,0,1,.759-.315h2.148v2.148h-1.7l-.759.759A1.079,1.079,0,0,1,911.656,179.592Z" transform="translate(9.953 26.834)" fill="#fff"/>
    <rect id="Rectangle_48" data-name="Rectangle 48" width="6.443" height="2.148" transform="translate(916.24 196.761)" fill="#fff"/>
    <rect id="Rectangle_49" data-name="Rectangle 49" width="2.147" height="4.296" transform="matrix(0.966, -0.259, 0.259, 0.966, 912.309, 155.963)" fill="#fff"/>
    <rect id="Rectangle_50" data-name="Rectangle 50" width="2.147" height="4.296" transform="matrix(0.707, -0.707, 0.707, 0.707, 901.996, 162.56)" fill="#fff"/>
    <rect id="Rectangle_51" data-name="Rectangle 51" width="2.147" height="4.295" transform="translate(896.364 173.428) rotate(-75)" fill="#fff"/>
    <rect id="Rectangle_52" data-name="Rectangle 52" width="4.295" height="2.147" transform="translate(896.364 183.582) rotate(-15)" fill="#fff"/>
    <rect id="Rectangle_53" data-name="Rectangle 53" width="4.296" height="2.147" transform="translate(901.997 194.451) rotate(-45)" fill="#fff"/>
    <rect id="Rectangle_54" data-name="Rectangle 54" width="2.147" height="4.296" transform="matrix(0.707, -0.707, 0.707, 0.707, 932.37, 192.933)" fill="#fff"/>
    <rect id="Rectangle_55" data-name="Rectangle 55" width="2.147" height="4.295" transform="translate(937.854 184.545) rotate(-75)" fill="#fff"/>
    <rect id="Rectangle_56" data-name="Rectangle 56" width="4.295" height="2.147" transform="translate(937.854 172.465) rotate(-15)" fill="#fff"/>
    <rect id="Rectangle_57" data-name="Rectangle 57" width="4.296" height="2.147" transform="translate(932.37 164.078) rotate(-45)" fill="#fff"/>
    <rect id="Rectangle_58" data-name="Rectangle 58" width="4.296" height="2.147" transform="translate(923.427 159.557) rotate(-75)" fill="#fff"/>
  </g>
</svg>
