<svg xmlns="http://www.w3.org/2000/svg" width="47.388" height="45.416" viewBox="0 0 47.388 45.416">
  <g id="Group_57" data-name="Group 57" transform="translate(-1322.811 -212.831)">
    <rect id="Rectangle_60" data-name="Rectangle 60" width="1.975" height="8.886" transform="translate(1332.683 238.5)" fill="#fff"/>
    <rect id="Rectangle_61" data-name="Rectangle 61" width="1.975" height="8.886" transform="translate(1344.53 238.5)" fill="#fff"/>
    <path id="Path_98" data-name="Path 98" d="M1334.431,235.6a6.911,6.911,0,1,1,6.911-6.911A6.919,6.919,0,0,1,1334.431,235.6Zm0-11.848a4.937,4.937,0,1,0,4.937,4.937A4.944,4.944,0,0,0,1334.431,223.754Z" transform="translate(5.162 9.809)" fill="#fff"/>
    <path id="Path_99" data-name="Path 99" d="M1345.78,223.464h-7.9v-5.924h1.975v3.949h3.949v-3.949h1.975Z" transform="translate(16.521 5.163)" fill="#fff"/>
    <path id="Path_100" data-name="Path 100" d="M1342.864,224.679a5.924,5.924,0,1,1,5.922-5.924A5.93,5.93,0,0,1,1342.864,224.679Zm0-9.873a3.949,3.949,0,1,0,3.948,3.949A3.954,3.954,0,0,0,1342.864,214.806Z" transform="translate(15.489)" fill="#fff"/>
    <path id="Path_101" data-name="Path 101" d="M1342.955,227.915l-1.579-1.184,2.448-3.265-2.067-2.067h-.578v-1.975h1.4l3.856,3.857Z" transform="translate(20.136 7.228)" fill="#fff"/>
    <path id="Path_102" data-name="Path 102" d="M1339.323,227.915l-3.476-4.634,3.857-3.857h1.4V221.4h-.579l-2.067,2.067,2.448,3.265Z" transform="translate(14.291 7.228)" fill="#fff"/>
    <path id="Path_103" data-name="Path 103" d="M1330.618,226.092a5.924,5.924,0,1,1,5.924-5.924A5.931,5.931,0,0,1,1330.618,226.092Zm0-9.873a3.949,3.949,0,1,0,3.949,3.949A3.953,3.953,0,0,0,1330.618,216.219Z" transform="translate(2.064 1.549)" fill="#fff"/>
    <rect id="Rectangle_62" data-name="Rectangle 62" width="15.919" height="1.974" transform="translate(1335.522 216.788) rotate(-7.125)" fill="#fff"/>
    <rect id="Rectangle_63" data-name="Rectangle 63" width="15.102" height="1.974" transform="translate(1336.439 223.712) rotate(-11.321)" fill="#fff"/>
    <rect id="Rectangle_64" data-name="Rectangle 64" width="1.975" height="7.119" transform="translate(1329.887 229.175) rotate(-33.69)" fill="#fff"/>
    <rect id="Rectangle_65" data-name="Rectangle 65" width="1.976" height="6.322" transform="matrix(0.781, -0.625, 0.625, 0.781, 1335.86, 228.257)" fill="#fff"/>
    <path id="Path_104" data-name="Path 104" d="M1347.8,236.924h-9.871a.987.987,0,0,1-.988-.987v-9.873a.987.987,0,0,1,.988-.987h9.871a.986.986,0,0,1,.987.987v9.873A.986.986,0,0,1,1347.8,236.924Zm-8.884-1.975h7.9v-7.9h-7.9Z" transform="translate(15.489 13.424)" fill="#fff"/>
    <rect id="Rectangle_66" data-name="Rectangle 66" width="1.975" height="1.975" transform="translate(1363.288 252.322)" fill="#fff"/>
    <rect id="Rectangle_67" data-name="Rectangle 67" width="1.975" height="1.975" transform="translate(1327.746 252.322)" fill="#fff"/>
    <rect id="Rectangle_68" data-name="Rectangle 68" width="1.975" height="1.975" transform="translate(1333.67 252.322)" fill="#fff"/>
    <rect id="Rectangle_69" data-name="Rectangle 69" width="1.975" height="1.975" transform="translate(1339.594 252.322)" fill="#fff"/>
    <rect id="Rectangle_70" data-name="Rectangle 70" width="1.975" height="1.975" transform="translate(1345.518 252.322)" fill="#fff"/>
    <rect id="Rectangle_71" data-name="Rectangle 71" width="1.975" height="1.975" transform="translate(1351.441 252.322)" fill="#fff"/>
    <rect id="Rectangle_72" data-name="Rectangle 72" width="1.975" height="1.975" transform="translate(1357.365 252.322)" fill="#fff"/>
    <path id="Path_105" data-name="Path 105" d="M1365.262,239.659h-37.517a4.937,4.937,0,0,1,0-9.873h37.517a4.937,4.937,0,0,1,0,9.873Zm-37.517-7.9a2.962,2.962,0,0,0,0,5.924h37.517a2.962,2.962,0,0,0,0-5.924Z" transform="translate(0 18.587)" fill="#fff"/>
  </g>
</svg>
