<svg xmlns="http://www.w3.org/2000/svg" width="46.872" height="38.772" viewBox="0 0 46.872 38.772">
  <g id="Group_56" data-name="Group 56" transform="translate(-1326.054 -254.265)">
    <path id="Path_92" data-name="Path 92" d="M1370.974,285.513h-42.967a1.958,1.958,0,0,1-1.954-1.954V256.216a1.956,1.956,0,0,1,1.954-1.951h42.967a1.954,1.954,0,0,1,1.951,1.951v27.343A1.956,1.956,0,0,1,1370.974,285.513Zm-42.967-29.3v27.343h42.967V256.216Z" transform="translate(0 0)" fill="#fff"/>
    <path id="Path_93" data-name="Path 93" d="M1351.987,273.773l-1.666-1.666h-15.792l-1.668,1.666-1.381-1.381,1.954-1.954a.984.984,0,0,1,.69-.285h16.6a.976.976,0,0,1,.69.285l1.954,1.954Z" transform="translate(6.578 19.264)" fill="#fff"/>
    <path id="Path_94" data-name="Path 94" d="M1346.253,272.389H1344.3V269.46h-8.787v2.929h-1.954v-3.907a.974.974,0,0,1,.976-.976h10.741a.976.976,0,0,1,.978.976Z" transform="translate(9.098 16.053)" fill="#fff"/>
    <rect id="Rectangle_59" data-name="Rectangle 59" width="1.953" height="13.671" transform="translate(1349.491 263.053)" fill="#fff"/>
    <path id="Path_95" data-name="Path 95" d="M1340.046,271.907h-1.954V268h-5.858v-2.265l5.356-7.5h2.456v7.812h.976V268h-.976Zm-5.637-5.858h3.684v-5.155Z" transform="translate(7.492 4.816)" fill="#fff"/>
    <path id="Path_96" data-name="Path 96" d="M1339.5,266.049h-2.411V264.1h1.5l4.364-5.236v-.623h1.953v1.33Z" transform="translate(13.378 4.816)" fill="#fff"/>
    <path id="Path_97" data-name="Path 97" d="M1343.76,268.963h-1.953v-.717l-3.777-6.61,1.7-.969,4.035,7.06Z" transform="translate(14.519 7.761)" fill="#fff"/>
  </g>
</svg>
