<svg xmlns="http://www.w3.org/2000/svg" width="48.804" height="38.56" viewBox="0 0 48.804 38.56">
  <g id="Group_59" data-name="Group 59" transform="translate(-1321.395 -170.804)">
    <path id="Path_111" data-name="Path 111" d="M1326.345,188.074H1324.3v-5.111h-2.044V176.83h2.044v-3.066h13.288v2.044h-11.244v3.066H1324.3v2.044h2.044Z" transform="translate(0.924 3.173)" fill="#fff"/>
    <rect id="Rectangle_79" data-name="Rectangle 79" width="2.044" height="7.155" transform="translate(1327.269 170.804)" fill="#fff"/>
    <rect id="Rectangle_80" data-name="Rectangle 80" width="2.044" height="3.066" transform="translate(1331.358 174.893)" fill="#fff"/>
    <rect id="Rectangle_81" data-name="Rectangle 81" width="2.044" height="2.044" transform="translate(1328.292 182.048)" fill="#fff"/>
    <path id="Path_112" data-name="Path 112" d="M1333.674,185.43h-2.044v-9.2H1343.9v7.155h-2.044v-5.111h-8.177Z" transform="translate(10.972 5.817)" fill="#fff"/>
    <path id="Path_113" data-name="Path 113" d="M1338.961,186.452H1326.7V176.231h12.264Zm-10.221-2.045h8.178v-6.133h-8.178Z" transform="translate(5.684 5.818)" fill="#fff"/>
    <path id="Path_114" data-name="Path 114" d="M1348.829,183.386h-2.044v-5.111h-8.177v5.111h-2.044v-7.155h12.266Z" transform="translate(16.26 5.817)" fill="#fff"/>
    <path id="Path_115" data-name="Path 115" d="M1341.429,181.977h-12.266v-9.2h12.266Zm-10.221-2.043h8.176v-5.112h-8.176Z" transform="translate(8.327 2.115)" fill="#fff"/>
    <path id="Path_116" data-name="Path 116" d="M1346.362,181.977H1334.1v-9.2h12.266Zm-10.221-2.043h8.178v-5.112h-8.178Z" transform="translate(13.616 2.115)" fill="#fff"/>
    <path id="Path_117" data-name="Path 117" d="M1361.456,192.513l-1.977-.522c.423-1.6,1.828-2.917,3.316-4.316,1.947-1.83,3.953-3.713,4.364-6.44h-16.976l-4.795,2.045H1324.3v5.031a5.244,5.244,0,0,0,.4,2.638l-1.713,1.117a6.583,6.583,0,0,1-.725-3.755v-7.076h22.714l4.794-2.045h19.51v1.024c0,4.177-2.818,6.823-5.081,8.951C1362.927,190.356,1361.729,191.481,1361.456,192.513Z" transform="translate(0.924 8.99)" fill="#fff"/>
    <path id="Path_118" data-name="Path 118" d="M1362.782,189.137l-3.375-2.646a.768.768,0,0,0-1.086.091l-1.262,1.268a2.823,2.823,0,0,1-3.856.213l-1.9-1.56a.763.763,0,0,0-1.082.052l-1.442,1.365a2.825,2.825,0,0,1-3.848.1l-1.726-1.5a.765.765,0,0,0-1.08.01l-1.618,1.45a2.819,2.819,0,0,1-3.846-.023l-1.552-1.419a.765.765,0,0,0-1.08-.027l-1.792,1.523a2.823,2.823,0,0,1-3.852-.141l-1.372-1.33a.766.766,0,0,0-1.081-.066l-3.259,2.631-1.283-1.591,3.257-2.632a2.8,2.8,0,0,1,3.789.191l1.372,1.33a.766.766,0,0,0,1.1.05l1.792-1.523a2.794,2.794,0,0,1,3.784.079l1.552,1.419a.764.764,0,0,0,1.1.006l1.62-1.45a2.8,2.8,0,0,1,3.781-.033l1.728,1.5a.766.766,0,0,0,1.1-.033l1.442-1.368a2.8,2.8,0,0,1,3.786-.145l1.9,1.56a.767.767,0,0,0,1.106-.075l1.262-1.27a2.8,2.8,0,0,1,3.8-.259l3.377,2.646Z" transform="translate(0 14.419)" fill="#fff"/>
    <path id="Path_119" data-name="Path 119" d="M1326.662,191.936l-1.282-1.591,3.259-2.631a2.8,2.8,0,0,1,3.787.191l1.374,1.33a.766.766,0,0,0,1.1.052l1.795-1.525a2.8,2.8,0,0,1,3.781.077l1.552,1.421a.766.766,0,0,0,1.1.006l1.618-1.45a2.8,2.8,0,0,1,3.783-.033l1.726,1.5a.765.765,0,0,0,1.1-.033l1.44-1.368a2.8,2.8,0,0,1,3.788-.145l1.9,1.56a.766.766,0,0,0,1.106-.075l1.26-1.268a2.8,2.8,0,0,1,3.8-.261l.881.692-1.258,1.61-.885-.692a.767.767,0,0,0-1.086.091l-1.262,1.27a2.822,2.822,0,0,1-3.854.211l-1.9-1.56a.764.764,0,0,0-1.082.052l-1.44,1.365a2.827,2.827,0,0,1-3.848.1l-1.728-1.5a.761.761,0,0,0-1.078.01l-1.62,1.452a2.825,2.825,0,0,1-3.846-.023l-1.552-1.421a.765.765,0,0,0-1.08-.027l-1.792,1.525a2.823,2.823,0,0,1-3.85-.143l-1.372-1.328a.769.769,0,0,0-1.084-.068Z" transform="translate(4.272 17.429)" fill="#fff"/>
    <rect id="Rectangle_82" data-name="Rectangle 82" width="2.044" height="2.044" transform="translate(1351.801 192.269)" fill="#fff"/>
  </g>
</svg>
