<svg xmlns="http://www.w3.org/2000/svg" width="38.636" height="53" viewBox="0 0 38.636 53">
  <g id="Group_86" data-name="Group 86" transform="translate(-839.735 -625.093)">
    <path id="Path_144" data-name="Path 144" d="M868.085,653.821a13.286,13.286,0,0,0,4.3-9.781v-5.612a13.349,13.349,0,0,0-13.334-13.334H846.605a.886.886,0,0,0-.886.886v18.06a13.286,13.286,0,0,0,4.3,9.781,19.3,19.3,0,0,0-10.286,17.038v6.348a.887.887,0,0,0,1.773,0v-6.348a17.537,17.537,0,0,1,8.731-15.15c7.1,19.372,7.915,20.959,8.722,20.959a1.3,1.3,0,0,0,.224-.027.964.964,0,0,0,.7-.648l7.958-20.3a17.536,17.536,0,0,1,8.752,15.162v6.348a.887.887,0,0,0,1.773,0v-6.348A19.3,19.3,0,0,0,868.085,653.821Zm-5.859,11.354-.953-3.806a3.3,3.3,0,0,0,.559-4.291,13.235,13.235,0,0,0,4.244-1.725Zm-3.173-38.308a11.574,11.574,0,0,1,11.561,11.561v1.506a8.75,8.75,0,0,1-5.457-7.941.887.887,0,0,0-1.773,0c0,4.852-10.673,7.447-15.892,8.225V626.866ZM856.8,643.426a2.6,2.6,0,1,1-2.6-2.6A2.6,2.6,0,0,1,856.8,643.426Zm-9.3.614v-2.03c.663-.094,1.621-.244,2.785-.472a4.319,4.319,0,0,0-.447,1.888,4.369,4.369,0,0,0,8.647.887h1.151a4.37,4.37,0,1,0,0-1.773h-1.151a4.375,4.375,0,0,0-1.8-2.706c2.94-1.04,5.736-2.514,7.268-4.528,1.416,4.048,5.17,5.94,6.669,6.544v2.19a11.569,11.569,0,0,1-11.379,11.552c-.062,0-.12-.019-.183-.019s-.121.015-.183.019A11.569,11.569,0,0,1,847.492,644.04Zm13.819-.614a2.6,2.6,0,1,1,2.6,2.6A2.6,2.6,0,0,1,861.311,643.426Zm-4.478,17.943-1.04,4.155c-1.279-3.371-2.658-7.079-3.8-10.195a13.226,13.226,0,0,0,4.284,1.749,3.3,3.3,0,0,0,.559,4.291Zm2.1,12.2c-.515-1.235-1.236-3.068-2.051-5.185a.9.9,0,0,0,.042-.088l1.742-6.957a.707.707,0,0,0,.032-.1.885.885,0,0,0-.415-1,1.536,1.536,0,0,1,.658-2.875c.037,0,.073.006.11.006s.073-.005.11-.006a1.536,1.536,0,0,1,.658,2.875.884.884,0,0,0-.411,1c.006.022.013.044.02.065l1.682,6.714Z" fill="#fff"/>
    <path id="Path_145" data-name="Path 145" d="M906.761,722.648h-4.112a.887.887,0,1,0,0,1.773h4.112a.887.887,0,0,0,0-1.773Z" transform="translate(-35.26 -55.455)" fill="#fff"/>
  </g>
</svg>
