<svg xmlns="http://www.w3.org/2000/svg" width="49.107" height="54.163" viewBox="0 0 49.107 54.163">
  <g id="Group_49" data-name="Group 49" transform="translate(-426.283 -757.042)">
    <path id="Path_67" data-name="Path 67" d="M514.838,828.966v-25.88a2.8,2.8,0,0,0-2.8-2.8h-18.1a2.8,2.8,0,0,0-2.8,2.8v25.88a2.8,2.8,0,0,0,2.8,2.8h18.1A2.8,2.8,0,0,0,514.838,828.966Zm-22.137,0v-25.88a1.234,1.234,0,0,1,1.233-1.233h18.1a1.234,1.234,0,0,1,1.233,1.233v25.88a1.235,1.235,0,0,1-1.233,1.233h-18.1A1.235,1.235,0,0,1,492.7,828.966Z" transform="translate(-39.448 -26.305)" fill="#fff"/>
    <path id="Path_68" data-name="Path 68" d="M516.289,808.914H501.026a.784.784,0,0,0-.783.783v4.662a.783.783,0,0,0,.783.783h15.263a.783.783,0,0,0,.783-.783V809.7A.784.784,0,0,0,516.289,808.914Zm-.783,4.662h-13.7v-3.095h13.7Z" transform="translate(-44.989 -31.553)" fill="#fff"/>
    <path id="Path_69" data-name="Path 69" d="M516.289,829.06H501.026a.784.784,0,0,0-.783.783v15.263a.783.783,0,0,0,.783.783h15.263a.783.783,0,0,0,.783-.783V829.843A.784.784,0,0,0,516.289,829.06Zm-.783,5.087h-3.52v-3.52h3.52Zm-5.087,10.176H506.9V840.8h3.523Zm0-5.086H506.9v-3.523h3.523Zm-5.09,0H501.81v-3.523h3.519Zm1.567-5.09v-3.52h3.523v3.52Zm-1.567-3.52v3.52H501.81v-3.52ZM501.81,840.8h3.519v3.52H501.81Zm10.176,3.52v-8.609h3.52v8.609Z" transform="translate(-44.989 -43.808)" fill="#fff"/>
    <path id="Path_70" data-name="Path 70" d="M464.82,819.271v-1.042a.783.783,0,0,0-1.567,0v1.042a1.568,1.568,0,0,1-1.567,1.567h-32.27a1.568,1.568,0,0,1-1.567-1.567V778.588a1.568,1.568,0,0,1,1.567-1.567h4.4a.783.783,0,1,0,0-1.567h-4.4a3.137,3.137,0,0,0-3.134,3.134v40.683a3.137,3.137,0,0,0,3.134,3.134h32.27A3.137,3.137,0,0,0,464.82,819.271Z" transform="translate(0 -11.2)" fill="#fff"/>
    <path id="Path_71" data-name="Path 71" d="M510.972,784.4a.783.783,0,0,0,.783-.783v-5.026a3.137,3.137,0,0,0-3.134-3.134h-4.4a.783.783,0,1,0,0,1.567h4.4a1.568,1.568,0,0,1,1.567,1.567v5.026A.783.783,0,0,0,510.972,784.4Z" transform="translate(-46.935 -11.2)" fill="#fff"/>
    <path id="Path_72" data-name="Path 72" d="M469.85,765.337v-1.659a3.137,3.137,0,0,0-3.134-3.134h-2.75a.246.246,0,0,1-.107-.167,4.288,4.288,0,0,0-8.361,0,.249.249,0,0,1-.106.166H452.64a3.137,3.137,0,0,0-3.134,3.134v1.659a3.137,3.137,0,0,0,3.134,3.134h14.077A3.137,3.137,0,0,0,469.85,765.337Zm-18.777,0v-1.659a1.568,1.568,0,0,1,1.567-1.567h2.752a1.71,1.71,0,0,0,1.634-1.387,2.721,2.721,0,0,1,5.305,0,1.71,1.71,0,0,0,1.634,1.388h2.752a1.569,1.569,0,0,1,1.567,1.567v1.659a1.569,1.569,0,0,1-1.567,1.567H452.64A1.568,1.568,0,0,1,451.073,765.337Z" transform="translate(-14.126)" fill="#fff"/>
    <path id="Path_73" data-name="Path 73" d="M474.257,763.879a.783.783,0,0,0-.783.783v0a.783.783,0,1,0,.783-.787Z" transform="translate(-28.706 -4.159)" fill="#fff"/>
    <path id="Path_74" data-name="Path 74" d="M442.282,805.109a6.765,6.765,0,1,0,6.766-6.765A6.773,6.773,0,0,0,442.282,805.109Zm11.9-.783h-4.35v-4.35A5.2,5.2,0,0,1,454.181,804.326Zm-5.916-4.35v5.133a.783.783,0,0,0,.783.783h5.133a5.2,5.2,0,1,1-5.916-5.916Z" transform="translate(-9.732 -25.124)" fill="#fff"/>
    <path id="Path_75" data-name="Path 75" d="M440.3,844.353a.784.784,0,0,0-.783.783v11.782a.784.784,0,0,0,.783.783h14.355a.783.783,0,1,0,0-1.567H441.083v-11A.783.783,0,0,0,440.3,844.353Z" transform="translate(-8.049 -53.11)" fill="#fff"/>
    <path id="Path_76" data-name="Path 76" d="M449.9,860.152v-6.026a.783.783,0,0,0-1.567,0v6.026a.783.783,0,1,0,1.567,0Z" transform="translate(-13.412 -58.579)" fill="#fff"/>
    <path id="Path_77" data-name="Path 77" d="M457.332,864.831v-3.013a.783.783,0,1,0-1.567,0v3.013a.783.783,0,1,0,1.567,0Z" transform="translate(-17.934 -63.257)" fill="#fff"/>
    <path id="Path_78" data-name="Path 78" d="M464.764,861.789v-4.972a.783.783,0,1,0-1.567,0v4.972a.783.783,0,0,0,1.567,0Z" transform="translate(-22.454 -60.216)" fill="#fff"/>
    <path id="Path_79" data-name="Path 79" d="M472.2,867.264v-1.447a.783.783,0,0,0-1.567,0v1.447a.783.783,0,0,0,1.567,0Z" transform="translate(-26.976 -65.69)" fill="#fff"/>
  </g>
</svg>
