<?xml version="1.0" standalone="no"?>
<!DOCTYPE svg PUBLIC "-//W3C//DTD SVG 20010904//EN"
 "http://www.w3.org/TR/2001/REC-SVG-20010904/DTD/svg10.dtd">
<svg version="1.0" xmlns="http://www.w3.org/2000/svg"
 width="2928.000000pt" height="2928.000000pt" viewBox="0 0 2928.000000 2928.000000"
 preserveAspectRatio="xMidYMid meet">
<metadata>
Created by potrace 1.11, written by Peter Selinger 2001-2013
</metadata>
<g transform="translate(0.000000,2928.000000) scale(0.100000,-0.100000)"
fill="#000000" stroke="none">
<path d="M1843 18193 c-11 -27 -26 -63 -32 -82 -15 -48 -14 -4280 1 -4401 6
-47 12 -218 13 -381 2 -248 5 -300 18 -320 9 -13 18 -40 22 -59 11 -62 56
-132 100 -157 32 -18 55 -23 115 -23 170 1 353 41 405 90 24 23 131 44 277 55
113 9 165 34 193 92 18 38 24 43 65 49 98 14 186 35 215 52 17 10 39 36 50 60
14 30 27 44 45 48 102 20 189 69 226 126 12 19 47 45 90 67 59 31 73 43 95 86
21 42 35 55 85 80 53 27 62 36 91 95 27 53 40 69 74 85 40 19 82 76 118 160 5
11 36 48 69 81 53 54 61 68 72 120 18 90 18 92 63 116 23 13 51 38 64 56 21
32 28 58 52 201 6 40 17 68 26 74 37 20 72 66 87 112 23 71 26 93 50 360 29
317 35 705 14 915 -9 85 -20 213 -26 284 -18 217 -35 271 -93 306 -52 31 -55
36 -62 107 -15 156 -43 217 -115 251 -31 15 -35 23 -47 79 -19 95 -65 179
-112 202 -31 16 -43 31 -61 78 -29 73 -52 99 -104 116 -26 8 -45 22 -51 37
-39 92 -49 104 -105 125 -50 19 -56 24 -72 70 -22 61 -32 71 -94 93 -41 14
-52 25 -69 59 -30 62 -51 80 -128 109 -52 20 -85 41 -121 77 -52 53 -114 86
-157 87 -33 0 -99 27 -99 40 0 21 -64 80 -103 94 -23 9 -105 25 -182 36 -76
11 -144 25 -149 30 -6 6 -158 10 -401 10 l-391 0 -21 -47z"/>
<path d="M7035 18231 c-9 -9 -66 -19 -279 -51 -84 -13 -122 -34 -147 -82 -23
-46 -42 -56 -122 -69 -78 -13 -153 -54 -184 -101 -18 -27 -42 -44 -89 -64 -66
-28 -114 -71 -114 -103 0 -25 -27 -45 -77 -60 -52 -14 -80 -42 -94 -93 -10
-40 -35 -61 -82 -72 -37 -9 -73 -48 -81 -88 -7 -37 -32 -68 -55 -68 -41 0 -79
-38 -105 -108 -21 -55 -33 -72 -56 -82 -15 -6 -37 -21 -48 -33 -27 -30 -68
-131 -76 -190 -7 -45 -10 -50 -51 -67 -24 -10 -51 -29 -59 -42 -18 -27 -42
-127 -51 -216 -6 -54 -11 -64 -34 -76 -30 -16 -63 -51 -81 -85 -18 -34 -39
-199 -40 -306 -2 -110 -21 -242 -47 -315 -18 -50 -20 -78 -18 -312 3 -238 4
-259 23 -285 25 -35 30 -67 42 -283 16 -266 29 -314 106 -385 42 -39 44 -43
59 -140 20 -128 47 -183 102 -213 34 -19 45 -31 53 -63 5 -21 15 -57 21 -80 5
-22 22 -50 36 -62 59 -50 86 -86 127 -167 l43 -85 92 -51 c51 -28 105 -64 121
-79 l29 -28 33 33 c25 25 53 39 114 56 45 12 91 27 102 33 18 10 42 64 42 97
0 17 32 41 65 48 51 12 74 34 86 81 13 53 32 70 83 78 51 8 76 34 83 86 6 47
26 65 84 75 46 8 68 32 83 93 10 40 17 49 42 56 74 22 99 41 113 87 22 71 25
75 76 82 60 9 85 33 92 89 7 56 16 66 61 74 54 9 80 33 99 95 l18 55 54 10
c62 12 91 41 91 91 0 42 30 74 69 74 41 0 79 34 87 78 10 57 30 82 65 82 38 0
86 25 92 47 3 10 8 34 11 54 8 47 19 55 80 62 59 6 73 22 82 89 8 55 15 63 68
72 50 9 82 43 91 94 8 50 17 58 80 66 62 8 76 22 82 82 3 27 10 54 15 61 5 6
34 15 64 19 65 8 84 28 84 90 0 40 22 74 48 74 47 0 112 65 112 112 0 20 29
44 62 52 42 10 87 53 94 91 7 40 26 58 76 74 40 13 88 62 88 90 0 29 27 57 69
69 43 13 91 62 91 93 0 26 43 69 69 69 31 0 80 48 92 91 14 45 25 56 83 84 32
16 47 32 71 79 25 50 38 64 80 85 38 20 55 37 72 70 29 56 50 80 89 96 31 13
43 25 87 95 13 21 43 45 72 60 39 20 55 35 71 70 19 40 20 56 15 135 -8 116
-26 142 -125 190 -40 19 -78 35 -84 35 -6 0 -36 29 -67 64 -50 56 -64 66 -109
77 -71 16 -83 24 -91 59 -12 53 -79 90 -227 124 -14 3 -44 28 -68 56 -50 60
-93 75 -235 86 -62 4 -109 13 -133 25 -34 18 -75 19 -792 19 -459 0 -760 -4
-765 -9z"/>
<path d="M11515 18212 c-22 -15 -49 -45 -60 -67 -20 -39 -20 -63 -23 -1435 -3
-1466 -2 -1483 42 -1565 24 -46 98 -99 159 -116 48 -13 173 -6 231 13 57 18
101 64 122 128 17 50 19 106 22 667 l3 613 22 4 c12 3 207 7 432 10 423 6 474
10 558 51 22 10 50 35 63 55 18 27 39 42 72 54 98 35 115 47 137 105 22 58 28
63 92 80 24 7 47 20 52 29 8 15 30 130 47 249 3 20 18 45 39 65 47 44 65 104
66 218 2 140 -24 230 -74 263 -23 15 -36 56 -52 167 -9 58 -57 143 -98 172
-40 29 -96 84 -124 124 -33 47 -106 80 -213 99 -52 9 -108 23 -124 31 -24 12
-135 14 -690 14 l-661 -1 -40 -27z m1200 -463 c32 -8 50 -20 67 -45 12 -18 32
-38 43 -45 11 -6 38 -34 60 -61 22 -27 61 -72 88 -99 47 -48 47 -49 47 -116 0
-114 -8 -140 -42 -147 -42 -8 -85 -56 -94 -102 -9 -53 -30 -74 -73 -74 -20 0
-85 -10 -146 -21 -166 -31 -242 -38 -443 -38 l-183 -1 -14 34 c-19 45 -23 689
-5 712 10 12 65 14 332 14 200 0 336 -4 363 -11z"/>
<path d="M28746 18232 c-24 -39 -27 -209 -24 -1577 3 -1372 4 -1442 21 -1488
25 -62 82 -110 156 -131 151 -42 308 3 359 104 l22 44 0 1512 c0 832 -3 1519
-6 1528 -5 14 -38 16 -264 16 -143 0 -261 -4 -264 -8z"/>
<path d="M14286 17555 c-189 -21 -232 -39 -262 -111 -15 -36 -40 -54 -76 -54
-45 -1 -98 -34 -121 -75 -12 -22 -38 -49 -57 -61 -53 -34 -78 -63 -85 -97 -14
-71 -26 -97 -45 -97 -42 0 -87 -32 -98 -69 -21 -67 -42 -167 -42 -194 0 -18
-12 -37 -36 -59 -20 -18 -45 -50 -55 -70 -29 -56 -42 -205 -37 -420 5 -230 23
-302 89 -363 26 -24 40 -47 44 -72 18 -110 28 -144 58 -188 18 -27 46 -59 64
-70 22 -14 41 -41 64 -93 30 -69 72 -112 108 -112 18 0 71 -42 71 -56 0 -24
54 -77 99 -96 25 -11 77 -26 114 -34 58 -12 74 -21 110 -58 68 -71 105 -78
418 -84 361 -5 449 10 537 92 23 23 57 41 92 51 135 38 150 48 176 119 8 23
19 31 58 41 60 16 85 41 101 102 11 45 15 49 60 65 69 25 82 41 101 127 14 61
25 85 55 120 22 24 39 50 39 58 0 7 -18 33 -40 57 -22 24 -40 47 -40 52 0 20
-93 126 -124 141 -27 12 -51 14 -122 8 l-89 -7 -46 -49 c-52 -55 -77 -100 -87
-161 -7 -40 -8 -41 -67 -58 -65 -17 -148 -74 -178 -121 -27 -42 -65 -51 -329
-79 -102 -11 -206 -4 -357 24 -75 14 -81 18 -113 76 -10 17 -31 38 -49 48 -58
32 -78 53 -89 91 -12 46 -51 87 -91 96 -39 9 -45 24 -53 126 -5 65 -4 89 6 97
9 7 281 12 903 14 l890 3 43 23 c83 44 109 164 92 417 -14 203 -30 249 -101
285 -40 21 -44 28 -54 101 -7 54 -71 160 -113 186 -15 10 -31 24 -36 31 -4 8
-17 23 -27 33 -10 10 -25 31 -33 48 -20 39 -49 60 -141 106 -45 22 -96 57
-123 85 -41 42 -56 49 -119 64 -161 36 -613 47 -857 21z m549 -465 c14 -5 36
-19 48 -31 47 -44 124 -87 177 -98 59 -13 90 -34 90 -62 0 -28 46 -75 90 -93
47 -19 56 -35 43 -79 l-9 -32 -574 4 c-600 3 -605 4 -640 46 -12 14 -10 19 13
38 30 24 57 83 57 121 0 26 2 28 77 40 18 3 52 14 75 24 24 10 58 25 76 32 18
7 48 31 66 53 30 36 39 40 97 48 78 9 278 3 314 -11z"/>
<path d="M16844 17560 c-152 -17 -227 -55 -241 -120 -6 -34 -21 -45 -76 -55
-54 -10 -95 -48 -108 -100 -10 -40 -14 -44 -54 -54 -50 -13 -81 -47 -91 -100
-11 -57 -32 -99 -53 -106 -33 -10 -80 -73 -95 -128 -8 -28 -22 -127 -31 -218
-14 -159 -17 -169 -49 -223 -64 -106 -66 -130 -66 -670 0 -456 1 -488 20 -547
11 -36 35 -81 53 -102 17 -20 41 -49 52 -63 30 -38 87 -53 200 -53 106 -1 162
15 196 55 42 50 43 60 49 764 6 755 0 700 79 778 25 24 44 55 51 83 28 102 44
135 93 183 65 65 100 88 170 109 35 11 75 33 98 54 31 28 59 41 132 60 50 14
103 31 115 40 34 21 49 66 57 169 12 154 -17 212 -116 234 -69 15 -293 21
-385 10z"/>
<path d="M17890 17555 c-115 -16 -157 -32 -178 -63 -23 -36 -69 -80 -92 -87
-29 -9 -68 -61 -80 -105 -8 -30 -20 -44 -50 -61 -27 -15 -47 -38 -62 -68 -22
-43 -23 -58 -23 -256 0 -240 6 -263 86 -345 24 -25 52 -61 62 -80 60 -117 59
-116 158 -175 43 -26 79 -50 79 -55 0 -5 25 -28 55 -52 43 -34 73 -47 137 -63
75 -18 85 -23 108 -58 22 -33 150 -127 173 -127 5 0 26 -18 47 -40 64 -67 65
-165 0 -202 -16 -9 -40 -34 -53 -56 -30 -46 -55 -57 -160 -72 -57 -9 -92 -8
-135 0 -116 23 -132 30 -143 58 -33 91 -71 111 -209 112 -149 0 -190 -31 -224
-170 -9 -40 -24 -83 -33 -96 -14 -22 -13 -25 6 -50 12 -15 21 -33 21 -40 0
-23 56 -153 75 -174 20 -22 104 -56 179 -72 42 -8 58 -19 93 -58 61 -69 91
-75 363 -75 220 0 226 1 275 25 32 16 60 40 78 67 18 27 38 45 55 49 80 17
107 30 129 63 13 19 23 45 23 58 0 19 11 28 54 47 65 29 78 49 100 166 10 47
24 110 33 140 42 147 43 161 18 185 -31 32 -34 42 -46 179 -16 186 -31 221
-114 249 -34 12 -42 21 -57 63 -21 59 -42 78 -112 98 -49 14 -56 20 -77 63
-29 59 -82 88 -192 107 -84 15 -97 21 -97 43 0 32 -49 82 -93 94 -60 18 -74
33 -81 92 -4 29 -11 67 -17 85 -8 24 -8 37 2 48 6 8 20 43 29 77 20 71 24 74
149 76 73 1 74 1 110 -37 48 -51 125 -98 181 -111 61 -14 229 -14 271 0 80 27
98 69 102 235 3 135 -13 171 -83 193 -81 25 -89 30 -103 63 -21 48 -54 74
-117 92 -122 35 -451 46 -620 21z"/>
<path d="M19815 17560 c-206 -21 -263 -43 -300 -114 -21 -40 -42 -54 -83 -55
-40 -1 -87 -29 -107 -63 -22 -38 -56 -70 -105 -101 -28 -18 -39 -34 -54 -84
-17 -53 -23 -62 -49 -67 -39 -8 -85 -59 -93 -104 -13 -78 -39 -139 -80 -187
-71 -84 -82 -131 -88 -378 -6 -255 7 -369 56 -499 7 -18 19 -28 43 -32 38 -7
39 -12 60 -148 16 -109 45 -163 105 -198 33 -19 51 -39 70 -77 32 -65 55 -90
91 -98 32 -7 71 -43 103 -95 31 -51 104 -83 236 -105 25 -4 41 -14 57 -39 28
-43 90 -72 190 -86 105 -15 559 -8 621 10 26 8 65 32 95 60 42 38 65 50 122
64 39 9 88 26 110 36 40 19 75 63 75 94 0 9 16 23 38 32 99 42 107 48 123 94
26 74 29 77 73 94 60 23 74 42 102 137 20 71 31 89 78 139 31 32 59 73 66 96
9 26 14 148 17 371 5 339 -3 466 -32 536 -15 36 -67 87 -90 87 -15 0 -29 35
-43 111 -12 66 -41 111 -123 192 -33 33 -69 77 -79 97 -21 42 -113 100 -198
125 -37 11 -51 22 -66 49 -26 50 -55 65 -160 88 -76 16 -140 20 -391 23 -165
2 -340 0 -390 -5z m517 -501 c39 -43 145 -94 225 -109 58 -10 73 -21 73 -53 0
-46 50 -104 97 -113 42 -8 46 -17 68 -154 10 -58 21 -121 27 -140 28 -111 29
-191 2 -345 -41 -239 -37 -228 -128 -318 -44 -44 -97 -90 -118 -104 -22 -13
-48 -39 -59 -57 -24 -41 -50 -52 -149 -67 -202 -28 -240 -29 -405 -8 -88 11
-171 25 -185 30 -14 6 -34 28 -45 52 -14 30 -32 48 -61 62 -56 27 -73 43 -90
84 -17 41 -52 81 -70 81 -6 0 -22 8 -35 19 -21 17 -24 32 -35 167 -16 186 -17
303 -4 419 19 166 24 179 102 254 56 55 72 77 82 116 l12 49 65 17 c139 36
210 72 234 118 18 36 33 39 222 37 l142 -1 33 -36z"/>
<path d="M22255 17554 c-143 -18 -188 -36 -250 -98 -28 -29 -80 -66 -120 -86
-59 -30 -73 -42 -93 -80 -29 -58 -60 -100 -73 -100 -6 0 -24 -9 -39 -20 -41
-29 -66 -106 -85 -256 -9 -71 -25 -165 -37 -209 -11 -44 -24 -129 -28 -190 -4
-60 -15 -159 -24 -220 -14 -89 -17 -197 -19 -570 l-1 -460 27 -50 c50 -93 102
-160 137 -178 29 -15 55 -18 157 -15 133 3 159 13 195 74 33 57 38 150 38 764
0 333 5 635 9 672 8 61 13 70 54 110 36 35 49 57 66 114 12 39 24 93 27 120 8
61 18 74 58 74 54 1 225 65 260 98 27 27 40 31 111 37 70 6 90 4 158 -19 44
-14 92 -37 109 -51 16 -14 55 -32 86 -41 60 -16 102 -51 102 -84 0 -26 48 -80
86 -96 30 -13 31 -15 37 -90 4 -42 7 -381 7 -753 0 -389 5 -705 10 -744 21
-142 61 -178 211 -185 142 -7 188 7 260 78 49 49 61 68 79 129 22 71 22 79 17
584 -4 423 -7 522 -21 572 -8 33 -16 101 -16 150 0 108 -22 207 -55 255 -20
29 -28 60 -40 160 -23 193 -35 220 -117 255 -33 13 -40 22 -53 69 -17 56 -44
89 -85 101 -65 17 -82 29 -101 71 -35 73 -74 88 -279 109 -184 19 -613 18
-765 -1z"/>
<path d="M24684 17555 c-56 -7 -117 -18 -137 -23 -46 -13 -125 -68 -138 -96
-6 -12 -36 -35 -67 -51 -90 -47 -108 -62 -131 -107 -27 -57 -40 -72 -78 -91
-72 -38 -96 -101 -118 -316 -13 -124 -21 -162 -41 -201 l-25 -48 0 -666 0
-667 24 -52 c14 -29 30 -72 37 -97 14 -55 52 -97 99 -110 62 -17 211 -12 256
9 50 22 59 33 81 101 17 51 19 102 20 675 1 341 4 651 8 688 7 58 13 75 40
105 18 21 38 47 45 59 19 37 50 145 57 198 10 73 17 81 71 88 66 8 222 72 258
106 29 28 35 29 130 30 127 2 198 -17 240 -66 21 -24 45 -38 82 -47 67 -18 89
-34 116 -87 12 -24 38 -54 57 -66 19 -13 40 -27 46 -32 17 -14 24 -308 24
-951 0 -596 4 -659 42 -733 27 -53 86 -78 198 -85 97 -5 159 8 188 41 78 85
94 108 113 157 20 52 21 72 18 330 -1 151 1 291 5 312 4 20 18 46 31 58 l23
22 6 -29 c3 -15 11 -71 17 -123 6 -60 20 -115 35 -150 26 -56 39 -73 87 -103
17 -11 40 -43 57 -81 29 -65 68 -106 102 -106 22 0 78 -52 78 -72 0 -41 125
-107 232 -122 35 -5 51 -13 59 -29 46 -89 159 -111 535 -104 303 5 337 12 418
80 44 38 68 50 145 70 102 27 125 43 151 103 16 36 23 42 58 48 59 9 98 46
112 106 9 39 16 50 31 50 25 0 69 23 91 47 10 10 26 55 36 100 14 58 28 92 51
119 17 21 31 42 31 47 0 8 -13 25 -41 55 -9 9 -27 37 -40 61 -51 93 -69 115
-113 138 -39 20 -180 9 -224 -17 -47 -29 -122 -145 -122 -190 0 -38 -10 -46
-68 -60 -40 -9 -70 -26 -118 -67 -35 -30 -64 -59 -64 -64 0 -21 -72 -38 -249
-59 -190 -22 -243 -21 -425 10 -77 14 -90 22 -118 72 -14 26 -38 49 -63 62
-47 24 -60 37 -84 92 -21 45 -63 84 -92 84 -28 0 -40 33 -46 128 -4 68 -3 90
8 99 11 9 242 13 894 15 l880 3 47 23 c39 19 52 33 75 80 28 56 28 59 28 247
0 156 -3 201 -18 249 -18 57 -55 105 -100 131 -12 6 -23 34 -32 79 -16 76 -71
168 -115 194 -15 8 -46 49 -71 91 -39 66 -53 80 -105 108 -32 18 -78 38 -102
44 -31 9 -53 24 -79 56 -47 57 -72 69 -180 89 -121 22 -556 31 -745 15 -240
-21 -282 -35 -321 -110 -21 -41 -28 -47 -73 -58 -75 -19 -95 -34 -120 -89 -19
-43 -28 -52 -63 -62 -43 -13 -76 -50 -85 -95 -3 -15 -8 -38 -11 -51 -3 -16
-14 -26 -32 -31 -75 -18 -104 -69 -123 -210 -18 -146 -16 -141 -60 -154 -35
-10 -78 -50 -106 -97 -9 -15 -13 -3 -17 66 -29 438 -30 446 -68 494 -12 15
-39 34 -60 43 -34 13 -41 22 -61 75 -21 59 -60 98 -96 98 -34 0 -79 32 -91 65
-15 41 -50 71 -101 85 -140 38 -717 53 -936 25z m2860 -455 c92 -11 102 -16
181 -89 29 -27 57 -39 114 -52 55 -11 65 -20 75 -63 9 -38 57 -85 96 -92 42
-9 54 -34 40 -85 -9 -33 -14 -39 -28 -33 -9 4 -271 10 -582 12 -560 4 -566 4
-610 26 -24 12 -45 26 -47 32 -2 5 13 16 33 23 40 15 70 56 79 113 7 40 4 38
84 54 51 11 176 78 207 112 28 30 40 36 95 42 97 11 165 11 263 0z"/>
<path d="M8408 15826 c-37 -13 -90 -29 -118 -36 -70 -17 -105 -49 -120 -109
-10 -45 -15 -50 -46 -55 -51 -10 -87 -47 -104 -108 -15 -52 -17 -53 -64 -65
-62 -15 -92 -44 -109 -102 -11 -41 -16 -46 -52 -53 -52 -11 -94 -52 -101 -99
-8 -49 -12 -53 -63 -68 -57 -17 -89 -50 -97 -101 -7 -43 -17 -52 -78 -65 -42
-9 -84 -56 -92 -103 -6 -38 -9 -41 -51 -51 -54 -14 -90 -51 -99 -100 -9 -58
-11 -60 -53 -67 -63 -10 -98 -37 -112 -86 -6 -24 -13 -48 -14 -54 -2 -6 -21
-14 -43 -17 -52 -9 -87 -46 -102 -108 -10 -41 -16 -50 -39 -55 -80 -17 -117
-51 -127 -116 -5 -31 -12 -39 -33 -44 -89 -19 -120 -48 -136 -126 -4 -22 -13
-29 -48 -39 -57 -15 -85 -43 -103 -106 -12 -43 -20 -53 -37 -53 -20 0 -107
-34 -107 -42 0 -2 -9 -27 -19 -57 -17 -51 -20 -55 -64 -68 -54 -16 -85 -50
-93 -104 -8 -45 -17 -54 -65 -63 -53 -9 -87 -40 -102 -94 -13 -43 -18 -48 -57
-59 -56 -16 -87 -47 -102 -97 -15 -53 -25 -66 -53 -66 -40 0 -89 -42 -105 -90
-21 -63 -25 -67 -69 -74 -48 -7 -81 -40 -101 -101 -14 -44 -19 -48 -65 -64
-52 -17 -82 -52 -94 -113 -6 -27 -14 -33 -61 -49 -63 -20 -86 -44 -101 -105
-9 -34 -16 -44 -37 -49 -59 -13 -84 -29 -103 -66 -10 -21 -19 -47 -19 -57 0
-26 -17 -39 -63 -47 -53 -10 -85 -39 -100 -93 -13 -43 -18 -48 -60 -62 -93
-31 -113 -74 -103 -223 10 -145 30 -181 111 -207 50 -16 85 -39 85 -55 0 -41
91 -102 200 -135 44 -13 58 -22 72 -49 25 -50 48 -70 92 -82 110 -30 131 -40
151 -72 32 -52 110 -84 265 -108 123 -19 137 -24 162 -51 55 -58 141 -80 388
-98 172 -13 551 -13 745 0 275 18 344 36 399 101 25 29 32 32 144 45 64 8 135
19 157 25 45 13 118 62 140 95 9 14 36 29 72 40 145 41 153 47 179 118 9 26
18 31 65 41 65 13 162 73 189 117 18 30 50 54 125 92 29 15 47 35 65 71 19 37
36 55 67 70 52 25 90 60 97 90 9 36 47 89 80 110 43 29 104 121 123 186 13 48
20 57 49 68 43 16 82 62 89 109 10 54 35 132 44 132 14 0 62 53 87 96 18 31
29 76 44 179 15 108 23 141 37 148 55 31 85 97 104 232 14 91 19 938 7 1126
-12 190 -37 272 -100 330 -27 24 -33 39 -43 112 -29 193 -49 240 -113 266 -26
11 -31 22 -50 97 -30 122 -49 155 -102 182 -56 28 -66 41 -75 99 -8 54 -48
100 -94 109 -26 5 -33 13 -42 48 -17 63 -35 92 -67 105 -16 7 -42 26 -58 42
-15 16 -30 29 -33 29 -3 0 -36 -11 -73 -24z"/>
<path d="M12288 14470 c-37 -5 -83 -13 -102 -20 -37 -12 -96 -71 -96 -95 0
-17 -40 -39 -88 -50 -47 -10 -90 -50 -98 -90 -7 -41 -15 -48 -72 -64 -48 -13
-77 -51 -88 -111 -13 -66 -32 -105 -71 -146 -57 -60 -76 -135 -71 -284 4 -134
19 -174 78 -213 32 -22 39 -32 44 -74 14 -98 45 -180 77 -207 17 -14 38 -26
48 -26 23 0 61 -41 61 -66 0 -39 37 -81 87 -100 57 -21 83 -41 83 -64 0 -32
43 -72 106 -100 47 -21 70 -39 90 -69 33 -50 120 -97 199 -106 57 -8 85 -29
85 -66 0 -29 40 -68 83 -81 57 -16 66 -24 79 -75 13 -52 55 -98 96 -106 38 -8
41 -19 49 -194 7 -161 2 -175 -62 -187 -38 -7 -73 -45 -82 -88 -10 -51 -27
-57 -194 -66 -135 -6 -276 2 -331 20 -6 2 -17 26 -27 53 -17 53 -64 95 -106
95 -30 0 -41 16 -49 69 -9 57 -25 85 -83 149 l-49 52 -87 0 -86 0 -73 -66
c-40 -36 -89 -76 -109 -89 -54 -35 -72 -69 -65 -122 7 -56 40 -130 70 -163 13
-14 29 -41 35 -60 22 -67 75 -142 113 -162 40 -21 83 -66 110 -116 19 -35 106
-84 184 -103 38 -9 58 -22 92 -60 39 -43 49 -49 120 -66 96 -22 460 -25 557
-4 72 15 135 50 167 91 15 19 45 37 83 51 91 32 113 48 132 99 22 59 29 67 64
75 54 12 86 50 114 134 17 52 36 88 56 107 43 41 75 100 88 162 23 109 6 411
-25 459 -8 12 -32 28 -54 34 -42 13 -43 14 -55 94 -15 104 -82 215 -129 215
-14 0 -66 61 -66 78 0 20 -45 64 -88 86 -26 13 -54 32 -63 43 -89 99 -145 138
-227 157 -52 11 -56 15 -69 52 -17 51 -53 81 -105 89 -55 8 -72 21 -87 66 -14
45 -33 62 -92 87 -42 18 -49 26 -64 71 -18 54 -52 89 -97 98 -33 7 -38 19 -45
114 -7 90 2 111 57 139 28 14 47 34 64 69 35 68 58 76 209 67 179 -10 188 -13
208 -66 19 -51 46 -76 99 -90 44 -12 53 -22 69 -71 14 -42 44 -72 87 -86 68
-23 236 29 270 84 10 15 28 41 41 56 12 15 28 47 34 70 7 23 18 49 25 57 10
12 10 19 -2 34 -8 11 -14 28 -14 38 0 11 -7 51 -16 91 -19 83 -49 120 -111
136 -45 12 -67 34 -77 72 -9 39 -43 67 -116 96 -41 16 -79 40 -103 65 -57 59
-126 86 -243 98 -114 11 -279 11 -376 0z"/>
<path d="M1372 13783 c-13 -3 -45 -26 -72 -53 -44 -44 -54 -49 -107 -54 -88
-9 -190 -34 -219 -53 -15 -9 -35 -36 -45 -60 -14 -32 -25 -44 -46 -48 -107
-22 -115 -28 -142 -101 -17 -43 -23 -49 -65 -61 -52 -15 -79 -49 -91 -112 -8
-44 -21 -61 -46 -61 -11 0 -35 -15 -54 -32 -31 -29 -39 -47 -61 -138 -24 -96
-29 -108 -64 -138 -70 -59 -75 -87 -75 -417 0 -343 7 -382 80 -450 39 -37 44
-47 58 -123 18 -95 62 -176 112 -210 24 -15 45 -45 69 -96 35 -73 69 -106 109
-106 18 0 53 -38 76 -81 21 -42 116 -93 202 -110 49 -10 63 -17 77 -41 43 -74
145 -103 353 -102 160 0 199 14 233 80 21 39 21 49 24 1169 2 752 -1 1153 -8
1198 -12 81 -54 163 -95 188 -23 15 -48 19 -105 18 -41 -1 -85 -4 -98 -6z"/>
<path d="M17635 13746 c-27 -13 -69 -42 -93 -63 -40 -37 -117 -73 -153 -73 -9
0 -24 10 -35 21 -25 28 -47 36 -146 49 -60 8 -92 18 -115 36 -40 30 -54 30
-82 0 -17 -18 -40 -26 -99 -35 -171 -26 -196 -31 -230 -49 -24 -12 -44 -34
-59 -64 -16 -33 -33 -50 -60 -62 -82 -36 -88 -41 -120 -108 -28 -58 -38 -69
-76 -86 -34 -15 -49 -30 -66 -66 -26 -54 -51 -139 -51 -178 0 -20 -10 -34 -42
-55 -83 -56 -96 -110 -107 -480 -12 -384 -13 -1101 -1 -1181 21 -153 65 -195
217 -207 129 -11 175 7 256 99 104 120 100 92 95 680 -4 377 -2 530 8 616 7
63 16 162 20 220 4 58 10 115 15 127 4 12 28 30 53 42 45 19 86 68 86 102 0
25 30 45 95 64 40 11 77 31 110 59 66 56 61 54 150 71 117 22 139 42 159 145
l11 55 73 19 c44 12 77 15 82 10 5 -5 16 -54 25 -109 23 -141 74 -243 123
-245 17 0 29 -34 37 -106 13 -103 41 -179 80 -213 20 -17 42 -31 50 -31 17 0
20 -11 36 -132 17 -130 50 -183 132 -211 4 -1 15 -47 23 -102 24 -164 29 -173
111 -243 30 -25 35 -38 52 -132 11 -58 23 -114 27 -125 11 -29 53 -86 90 -120
32 -31 48 -74 58 -168 13 -108 51 -179 117 -213 15 -7 43 -36 63 -64 23 -32
51 -57 74 -67 33 -14 39 -14 77 5 30 15 50 36 78 82 20 35 37 66 37 70 0 4 7
14 17 21 24 21 92 115 103 144 5 14 17 69 25 123 9 53 18 106 20 118 3 13 19
27 44 36 65 26 83 70 106 263 8 62 10 65 59 90 51 26 73 69 86 170 16 111 28
155 45 155 8 0 30 14 49 30 37 33 61 91 71 175 11 95 26 135 55 150 39 20 86
100 100 170 29 149 30 150 82 206 62 67 73 88 86 169 35 210 28 283 -31 347
-67 73 -86 79 -181 57 -44 -10 -88 -26 -97 -35 -10 -10 -38 -27 -64 -38 -82
-36 -199 -180 -211 -259 -4 -26 -14 -83 -23 -126 -15 -77 -18 -80 -56 -100
-63 -33 -74 -64 -111 -291 -3 -23 -13 -34 -42 -47 -61 -28 -89 -95 -108 -259
-7 -66 -9 -69 -55 -92 -20 -10 -45 -35 -57 -55 -22 -40 -42 -124 -42 -176 0
-18 -6 -40 -13 -50 -18 -25 -32 -6 -47 69 -15 73 -51 137 -96 171 -38 30 -39
31 -58 140 -17 100 -51 172 -97 202 -45 31 -48 37 -64 147 -8 52 -21 109 -28
128 -15 35 -70 87 -92 87 -16 0 -26 36 -44 150 -15 96 -46 158 -93 189 -30 19
-41 35 -53 78 -17 59 -50 87 -113 99 -18 4 -67 24 -108 45 -41 22 -80 39 -87
39 -7 0 -34 -11 -62 -24z"/>
<path d="M14545 13727 c-57 -27 -92 -37 -175 -46 -224 -26 -288 -48 -320 -112
-22 -42 -39 -54 -110 -75 -56 -17 -66 -27 -89 -91 -14 -42 -23 -51 -69 -73
-59 -29 -70 -42 -101 -127 -17 -45 -33 -70 -63 -93 -24 -20 -50 -54 -63 -84
-21 -46 -55 -226 -55 -294 0 -15 -7 -38 -15 -52 -28 -51 -55 -109 -55 -122 0
-31 21 -86 41 -107 19 -20 23 -41 31 -155 23 -348 26 -376 50 -424 16 -33 36
-54 67 -72 45 -26 54 -41 66 -114 5 -30 21 -54 73 -106 37 -37 80 -84 95 -104
16 -20 35 -36 43 -36 8 0 41 -27 73 -61 56 -59 61 -62 152 -85 77 -20 98 -30
117 -55 53 -67 140 -87 407 -96 339 -10 491 16 540 94 22 34 26 36 129 58 88
19 123 41 215 132 40 40 82 75 92 78 21 7 105 114 124 159 8 17 32 49 55 71
110 105 111 267 1 321 -28 13 -50 34 -64 60 -59 106 -224 104 -285 -4 -16 -29
-31 -42 -61 -51 -47 -14 -78 -49 -87 -100 -10 -55 -20 -68 -61 -76 -74 -14
-104 -40 -126 -116 -4 -11 -28 -20 -84 -29 -140 -22 -407 -47 -438 -39 -16 4
-82 14 -145 23 -167 25 -157 21 -165 62 -9 50 -53 92 -104 100 -51 8 -57 16
-65 83 -9 66 -33 140 -55 165 -9 10 -33 29 -53 42 -40 26 -52 50 -40 83 l7 21
910 3 c897 2 910 2 945 23 19 11 48 43 65 71 16 28 45 70 63 94 18 23 35 53
39 67 7 30 -23 97 -55 122 -20 16 -26 33 -33 102 -5 46 -14 121 -19 168 -13
110 -47 183 -99 209 -27 14 -42 32 -55 63 -49 117 -40 108 -137 146 -20 8 -28
20 -33 48 -9 44 -52 91 -92 99 -44 9 -94 37 -94 51 0 7 -14 29 -30 48 -33 37
-91 61 -170 70 -172 20 -233 32 -298 58 -56 22 -94 30 -170 34 -95 6 -98 5
-167 -29z m321 -508 c73 -10 83 -15 98 -40 19 -32 59 -63 96 -74 64 -19 138
-62 177 -104 24 -25 43 -48 43 -52 0 -4 11 -21 25 -38 l26 -30 -31 -35 -31
-34 -564 -2 -565 -1 -17 36 c-16 33 -16 37 0 70 9 19 21 35 26 35 16 0 72 52
81 74 8 22 63 53 143 81 35 13 55 28 77 60 27 39 35 44 87 53 82 13 234 14
329 1z"/>
<path d="M21750 13751 c-25 -4 -67 -19 -95 -33 -41 -21 -79 -29 -207 -42 -86
-9 -177 -24 -201 -32 -51 -17 -94 -55 -103 -90 -6 -24 -31 -36 -107 -55 -53
-13 -86 -42 -102 -90 -9 -26 -20 -36 -52 -46 -55 -19 -83 -52 -97 -114 -11
-48 -15 -53 -52 -66 -21 -7 -48 -24 -60 -37 -23 -25 -48 -115 -59 -209 -6 -44
-12 -60 -29 -69 -36 -18 -67 -51 -82 -87 -42 -100 -45 -540 -5 -688 13 -48 53
-101 87 -113 22 -9 28 -27 48 -150 9 -54 62 -137 104 -164 27 -17 49 -44 73
-91 31 -61 39 -69 100 -101 45 -24 75 -48 97 -79 37 -53 93 -81 200 -100 100
-17 110 -22 127 -55 36 -71 118 -89 428 -97 225 -6 400 6 463 32 17 7 46 31
64 53 39 49 36 48 160 67 134 20 176 42 201 107 13 32 42 53 97 67 42 12 92
59 92 89 1 30 25 62 60 80 18 9 43 30 54 45 42 57 16 166 -51 211 -19 13 -42
39 -52 57 -10 19 -38 45 -62 59 -40 22 -54 25 -138 22 -116 -3 -172 -25 -200
-81 -23 -44 -50 -69 -104 -96 -30 -15 -48 -33 -62 -62 -11 -24 -31 -46 -45
-52 -51 -20 -358 -44 -473 -37 -144 8 -347 30 -368 40 -9 4 -19 21 -23 37 -7
39 -56 88 -95 95 -36 8 -55 27 -70 75 -14 43 -43 73 -93 94 -44 18 -43 13 -59
210 -14 175 -6 425 16 511 12 47 23 67 57 97 24 21 55 49 70 62 14 14 29 39
33 57 12 62 15 66 53 73 20 3 65 19 99 36 34 16 66 29 71 29 5 0 29 21 52 46
42 46 44 47 124 55 101 11 363 10 436 -2 42 -6 61 -15 80 -37 42 -50 112 -89
178 -102 69 -14 70 -15 92 -80 21 -62 60 -86 156 -95 42 -4 109 -5 149 -3 133
9 254 93 241 168 -3 14 -8 52 -11 84 -7 60 -25 87 -120 178 -11 10 -57 54
-101 98 -72 69 -88 80 -138 91 -32 7 -56 18 -56 25 0 19 -49 73 -81 89 -28 15
-87 25 -278 45 -57 6 -113 18 -125 25 -12 7 -52 23 -90 34 -68 21 -131 24
-216 12z"/>
<path d="M24161 13750 c-128 -14 -158 -20 -180 -39 -15 -13 -51 -23 -109 -30
-48 -7 -120 -16 -160 -21 -91 -12 -127 -32 -153 -86 -26 -54 -34 -60 -93 -69
-45 -6 -56 -14 -121 -81 -39 -41 -76 -74 -83 -74 -17 0 -35 -38 -47 -100 -11
-52 -14 -56 -61 -80 -64 -32 -88 -81 -107 -215 -14 -95 -16 -100 -51 -128 -54
-43 -73 -89 -86 -208 -14 -121 -5 -370 16 -439 9 -31 27 -57 58 -85 45 -40 45
-41 61 -140 22 -140 29 -158 88 -208 45 -38 57 -57 86 -130 35 -91 56 -118
111 -141 42 -17 79 -51 101 -93 22 -41 106 -80 203 -94 71 -11 77 -14 110 -54
19 -23 50 -50 69 -58 54 -26 251 -40 472 -34 237 6 303 21 377 87 37 32 61 43
129 60 110 26 128 39 169 129 3 8 26 20 51 28 62 19 79 35 99 95 15 46 22 54
51 63 76 23 100 52 114 134 5 31 17 55 39 75 44 43 66 77 66 103 0 13 -21 44
-52 76 -28 30 -63 76 -77 103 -37 69 -79 94 -155 94 -132 -1 -181 -24 -228
-104 -25 -42 -34 -69 -52 -157 -5 -23 -12 -27 -53 -33 -74 -10 -171 -64 -197
-108 -27 -48 -45 -54 -241 -74 -159 -16 -219 -15 -395 7 -96 12 -130 23 -130
41 0 37 -39 82 -91 107 -47 23 -56 31 -69 71 -24 71 -37 87 -85 105 -50 20
-51 22 -60 125 -10 124 -116 110 910 113 822 2 892 3 922 19 79 44 108 128
105 309 -2 165 -17 292 -39 337 -16 32 -62 73 -95 84 -6 2 -15 31 -20 63 -13
85 -64 184 -106 206 -49 25 -73 49 -89 89 -22 52 -40 67 -120 106 -40 19 -79
44 -85 55 -17 27 -95 82 -136 97 -18 6 -96 19 -173 27 -129 15 -143 19 -190
51 -56 37 -72 39 -218 24z m211 -531 c43 -9 63 -21 108 -65 44 -43 66 -56 114
-68 70 -19 79 -26 108 -82 15 -32 33 -50 64 -64 62 -30 69 -43 55 -90 l-12
-40 -565 0 c-609 0 -592 -1 -651 52 l-22 21 32 21 c22 15 37 36 46 66 27 87
26 87 75 93 63 9 202 82 223 118 11 19 28 31 48 34 97 16 309 18 377 4z"/>
<path d="M20078 13718 c-20 -18 -48 -41 -62 -51 -29 -20 -41 -59 -58 -179 -16
-123 -27 -2053 -11 -2093 6 -16 17 -58 24 -92 16 -83 40 -120 95 -144 39 -18
57 -20 137 -13 57 4 106 14 128 25 44 22 74 78 87 164 5 34 9 526 8 1155 -2
1053 -2 1096 -21 1134 -12 25 -31 44 -54 55 -20 9 -47 24 -61 33 -23 15 -120
38 -160 38 -9 0 -32 -15 -52 -32z"/>
</g>
</svg>
