<svg xmlns="http://www.w3.org/2000/svg" width="48.845" height="32.563"><g data-name="Group 58" fill="#fff"><path data-name="Path 106" d="M45.791 27.474h-2.036V25.44h2.036a1.02 1.02 0 0 0 1.017-1.021v-6.908c0-.815-.342-1.229-1.017-1.229h-1.617l-3.756-6.758a1 1 0 0 0-.79-.365h-8.084V7.123h8.084a3.045 3.045 0 0 1 2.521 1.333l3.222 5.79h.421a3 3 0 0 1 3.053 3.265v6.908a3.057 3.057 0 0 1-3.054 3.055z"/><path data-name="Path 107" d="M32.563 27.477H16.285v-2.035h14.246v-23.4H14.25V.007h18.317z"/><path data-name="Rectangle 73" d="M3.052 25.44H8.14v2.035H3.052z"/><path data-name="Path 108" d="M39.677 32.563a5.08 5.08 0 1 1 5.1-5.079 5.094 5.094 0 0 1-5.1 5.079zm0-8.123a3.044 3.044 0 1 0 3.061 3.045 3.057 3.057 0 0 0-3.061-3.045z"/><path data-name="Path 109" d="M12.22 32.563a5.08 5.08 0 1 1 5.1-5.079 5.094 5.094 0 0 1-5.1 5.079zm0-8.123a3.044 3.044 0 1 0 3.061 3.045 3.057 3.057 0 0 0-3.061-3.045z"/><path data-name="Rectangle 74" d="M31.545 25.44h4.07v2.035h-4.07z"/><path data-name="Path 110" d="M41.721 17.298H33.58v-2.035h5.9l-1.66-2.49 1.693-1.129 2.206 3.308z"/><path data-name="Rectangle 75" d="M0 12.211h17.299v2.035H0z"/><path data-name="Rectangle 76" d="M8.14 6.105h15.264V8.14H8.14z"/><path data-name="Rectangle 77" d="M4.07 6.105h2.035V8.14H4.07z"/><path data-name="Rectangle 78" d="M10.176 0h2.035v2.035h-2.035z"/></g></svg>