<svg xmlns="http://www.w3.org/2000/svg" width="46.883" height="42.805"><g data-name="Group 61" fill="#fff"><path data-name="Path 124" d="M27.517 40.977a18.265 18.265 0 0 1-8.628-2.149l.954-1.8a16.25 16.25 0 0 0 7.674 1.913z"/><path data-name="Path 125" d="M10.292 18.447l-2.03-.206C9.313 7.841 17.59.002 27.516.002v2.04c-8.874 0-16.28 7.052-17.224 16.405z"/><path data-name="Path 126" d="M27.587 40.767c-6.327 0-11.281-8.954-11.281-20.383S21.26.001 27.585.001v2.04c-5.01 0-9.24 8.4-9.24 18.345s4.231 18.345 9.242 18.345z"/><path data-name="Path 127" d="M27.517 40.973v-2.039c9.531 0 17.3-8.276 17.327-18.449a18.821 18.821 0 0 0-5.437-13.466A16.594 16.594 0 0 0 27.615 2.04V.002A18.612 18.612 0 0 1 40.85 5.579a20.85 20.85 0 0 1 6.033 14.91c-.028 11.295-8.715 20.484-19.366 20.484z"/><path data-name="Path 128" d="M27.586 40.767v-2.039c4.936 0 9.1-8.4 9.1-18.345s-4.168-18.345-9.1-18.345V-.001c6.248 0 11.143 8.954 11.143 20.383S33.83 40.767 27.586 40.767z"/><path data-name="Rectangle 92" d="M10.192 12.23h34.651v2.038H10.192z"/><path data-name="Rectangle 93" d="M15.288 26.499h29.556v2.038H15.288z"/><path data-name="Rectangle 94" d="M26.499 1.02h2.038v38.728h-2.038z"/><path data-name="Path 129" d="M18.345 42.806h-2.037v-4.074c0-2.529-4.619-4.077-7.136-4.077s-7.134 1.548-7.134 4.077v4.077H-.001v-4.077c0-4.269 6.074-6.116 9.173-6.116s9.172 1.847 9.172 6.116z"/><path data-name="Path 130" d="M9.172 31.594a4.929 4.929 0 0 1-5.1-5.1v-2.038a5.1 5.1 0 0 1 10.192 0v2.038a4.929 4.929 0 0 1-5.092 5.1zm0-10.191a2.894 2.894 0 0 0-3.057 3.057v2.038a3.058 3.058 0 0 0 6.115 0V24.46a2.9 2.9 0 0 0-3.058-3.056z"/></g></svg>