<svg xmlns="http://www.w3.org/2000/svg" width="48.109" height="43.098"><g data-name="Group 60" fill="#fff"><path data-name="Path 120" d="M44.102 37.085H4.01A4.014 4.014 0 0 1 0 33.075V4.01A4.014 4.014 0 0 1 4.01 0h40.092a4.012 4.012 0 0 1 4.008 4.01v29.065a4.012 4.012 0 0 1-4.008 4.01zM4.01 2.004A2.009 2.009 0 0 0 2.004 4.01v29.065a2.009 2.009 0 0 0 2.006 2.006h40.092a2.008 2.008 0 0 0 2-2.006V4.01a2.008 2.008 0 0 0-2-2.006z"/><path data-name="Rectangle 83" d="M28.064 38.087h2.005v4.009h-2.005z"/><path data-name="Rectangle 84" d="M19.043 38.087h2.005v4.009h-2.005z"/><path data-name="Rectangle 85" d="M16.036 41.094h17.039v2.005H16.036z"/><path data-name="Rectangle 86" d="M1.002 29.066h46.105v2.005H1.002z"/><path data-name="Rectangle 87" d="M23.053 32.073h3.007v2.005h-3.007z"/><path data-name="Path 121" d="M35.081 16.037h-4.01v-2.006h4.01v-2h-6.014v-2h6.014a2.007 2.007 0 0 1 2 2v2a2.008 2.008 0 0 1-2 2.006z"/><path data-name="Path 122" d="M17.038 16.037H13.03a2.009 2.009 0 0 1-2.006-2.006v-2a2.007 2.007 0 0 1 2.006-2h9.021v2H13.03v2h4.008z"/><path data-name="Path 123" d="M31.291 26.057H16.819a2 2 0 0 1-1.944-1.521l-2.032-9.208 1.957-.431 2.024 9.182 14.466-.028 2.061-9.117 1.955.443-2.066 9.139a2.008 2.008 0 0 1-1.949 1.541z"/><path data-name="Rectangle 88" d="M23.139 14.627l4.008-9.022 1.832.814-4.007 9.022z"/><path data-name="Rectangle 89" d="M19.043 17.039h2.005v5.011h-2.005z"/><path data-name="Rectangle 90" d="M23.053 17.039h2.005v5.011h-2.005z"/><path data-name="Rectangle 91" d="M27.062 17.039h2.005v5.011h-2.005z"/></g></svg>