<svg xmlns="http://www.w3.org/2000/svg" width="46.195" height="51.018"><g data-name="Group 55" fill="#fff"><path data-name="Path 88" d="M25.246 34.912h-4.3a1.074 1.074 0 0 1-1.074-1.074v-2.462a3.385 3.385 0 0 1-.542-.228l-1.318 1.334a1.065 1.065 0 0 1-.759.322 1.081 1.081 0 0 1-.757-.312l-2.887-2.866a1.074 1.074 0 0 1 .007-1.53l1.309-1.281a3.217 3.217 0 0 1-.219-.492H12.36a1.074 1.074 0 0 1-1.074-1.074v-4.3a1.074 1.074 0 0 1 1.074-1.074h2.344a3.121 3.121 0 0 1 .228-.531l-1.323-1.3a1.074 1.074 0 0 1 0-1.523l2.88-2.887a1.079 1.079 0 0 1 .759-.315 1.078 1.078 0 0 1 .759.317l1.323 1.327a3.467 3.467 0 0 1 .549-.235v-1.3a1.074 1.074 0 0 1 1.074-1.074h4.3a1.074 1.074 0 0 1 1.074 1.074v1.3a3.187 3.187 0 0 1 .465.208l1.229-1.3a1.076 1.076 0 0 1 .764-.333 1.212 1.212 0 0 1 .773.312l2.887 2.88a1.076 1.076 0 0 1 0 1.523l-1.323 1.311a3.34 3.34 0 0 1 .23.536h1.421a1.072 1.072 0 0 1 1.072 1.074v4.3a1.072 1.072 0 0 1-1.072 1.074h-1.421a3.5 3.5 0 0 1-.207.479l1.309 1.247a1.071 1.071 0 0 1 .02 1.532l-2.864 2.887a1.072 1.072 0 0 1-.761.317 1.062 1.062 0 0 1-.764-.324l-1.275-1.3a3.147 3.147 0 0 1-.477.21v2.472a1.074 1.074 0 0 1-1.087 1.079zm-3.222-2.148h2.148v-2.239a1.073 1.073 0 0 1 .9-1.06 1.671 1.671 0 0 0 .912-.335c.128-.087.264-.18.44-.28a1.068 1.068 0 0 1 1.3.182l1.122 1.147 1.323-1.334-1.149-1.1a1.076 1.076 0 0 1-.189-1.311c.094-.162.18-.292.262-.413a1.8 1.8 0 0 0 .342-.949 1.075 1.075 0 0 1 1.06-.9h1.195v-2.148h-1.195a1.075 1.075 0 0 1-1.06-.9 1.987 1.987 0 0 0-.369-1.015c-.078-.119-.16-.244-.246-.4a1.074 1.074 0 0 1 .176-1.3l1.163-1.151-1.343-1.338-1.078 1.135a1.077 1.077 0 0 1-1.311.192c-.176-.1-.31-.192-.438-.278a1.684 1.684 0 0 0-.914-.335 1.073 1.073 0 0 1-.9-1.06v-1.072h-2.148v1.072a1.075 1.075 0 0 1-.9 1.06 2.083 2.083 0 0 0-1.042.381 6.807 6.807 0 0 1-.381.235 1.071 1.071 0 0 1-1.3-.173l-1.16-1.165-1.357 1.357 1.161 1.14a1.074 1.074 0 0 1 .178 1.3 6.403 6.403 0 0 1-.244.392 2.01 2.01 0 0 0-.369 1.019 1.075 1.075 0 0 1-1.06.9h-2.118v2.148h2.118a1.075 1.075 0 0 1 1.06.9 1.729 1.729 0 0 0 .342.933c.086.125.175.26.273.429a1.078 1.078 0 0 1-.18 1.3l-1.152 1.129 1.35 1.338 1.154-1.17a1.075 1.075 0 0 1 1.3-.178c.137.08.255.155.365.226a2.148 2.148 0 0 0 1.058.381 1.075 1.075 0 0 1 .9 1.06z"/><path data-name="Path 89" d="M23.022 27.442a4.32 4.32 0 1 1 4.321-4.321 4.325 4.325 0 0 1-4.321 4.321zm0-6.491a2.172 2.172 0 1 0 2.173 2.171 2.173 2.173 0 0 0-2.173-2.173z"/><path data-name="Path 90" d="M29.541 43.501h-2.149v-2.186c0-3.5 1.678-5 3.8-6.895.49-.438 1.019-.91 1.573-1.448a14.6 14.6 0 0 0 4.412-10.6c0-7.118-6.448-13.136-14.082-13.136S9.013 15.253 9.013 22.372a14.6 14.6 0 0 0 4.41 10.6c.556.538 1.083 1.01 1.573 1.446 2.125 1.9 3.8 3.4 3.8 6.9v2.187h-2.148v-2.19c0-2.54-1.1-3.518-3.085-5.294a50.392 50.392 0 0 1-1.639-1.507 16.738 16.738 0 0 1-5.062-12.137c0-8.284 7.431-15.283 16.23-15.283s16.23 7 16.23 15.283a16.738 16.738 0 0 1-5.064 12.137 51.454 51.454 0 0 1-1.639 1.507c-1.988 1.776-3.083 2.754-3.083 5.294z"/><path data-name="Rectangle 47" d="M16.654 44.576H29.54v2.148H16.654z"/><path data-name="Path 91" d="M25.245 51.019h-4.3a1.076 1.076 0 0 1-.759-.315l-.759-.759h-1.7v-2.148h2.148a1.075 1.075 0 0 1 .759.315l.76.759H24.8l.759-.759a1.076 1.076 0 0 1 .759-.315h2.148v2.148h-1.7l-.759.759a1.079 1.079 0 0 1-.762.315z"/><path data-name="Rectangle 48" d="M19.876 41.354h6.443v2.148h-6.443z"/><path data-name="Rectangle 49" d="M15.945.556L18.019 0l1.113 4.15-2.074.556z"/><path data-name="Rectangle 50" d="M5.632 7.153L7.15 5.635l3.037 3.037L8.67 10.19z"/><path data-name="Rectangle 51" d="M0 18.021l.556-2.074 4.148 1.112-.555 2.074z"/><path data-name="Rectangle 52" d="M0 28.175l4.149-1.112.555 2.074L.556 30.25z"/><path data-name="Rectangle 53" d="M5.633 39.044l3.038-3.038 1.518 1.518-3.038 3.038z"/><path data-name="Rectangle 54" d="M36.006 37.526l1.518-1.518 3.037 3.037-1.518 1.518z"/><path data-name="Rectangle 55" d="M41.49 29.138l.556-2.074 4.148 1.112-.555 2.074z"/><path data-name="Rectangle 56" d="M41.49 17.058l4.149-1.112.555 2.074-4.148 1.112z"/><path data-name="Rectangle 57" d="M36.006 8.671l3.038-3.038 1.518 1.518-3.038 3.038z"/><path data-name="Rectangle 58" d="M27.063 4.15L28.175 0l2.074.556-1.112 4.15z"/></g></svg>