<svg xmlns="http://www.w3.org/2000/svg" width="47.388" height="45.416"><g data-name="Group 57" fill="#fff"><path data-name="Rectangle 60" d="M9.872 25.669h1.975v8.886H9.872z"/><path data-name="Rectangle 61" d="M21.719 25.669h1.975v8.886h-1.975z"/><path data-name="Path 98" d="M16.782 32.578a6.911 6.911 0 1 1 6.911-6.911 6.919 6.919 0 0 1-6.911 6.911zm0-11.848a4.937 4.937 0 1 0 4.937 4.937 4.944 4.944 0 0 0-4.937-4.935z"/><path data-name="Path 99" d="M39.49 15.796h-7.9V9.872h1.975v3.949h3.949V9.872h1.975z"/><path data-name="Path 100" d="M35.542 11.848a5.924 5.924 0 1 1 5.922-5.924 5.93 5.93 0 0 1-5.922 5.924zm0-9.873a3.949 3.949 0 1 0 3.948 3.949 3.954 3.954 0 0 0-3.948-3.949z"/><path data-name="Path 101" d="M40.28 22.312l-1.579-1.184 2.448-3.265-2.067-2.067h-.578v-1.975h1.4l3.856 3.857z"/><path data-name="Path 102" d="M30.803 22.312l-3.476-4.634 3.857-3.857h1.4v1.976h-.579l-2.067 2.067 2.448 3.265z"/><path data-name="Path 103" d="M9.871 14.81a5.924 5.924 0 1 1 5.924-5.924 5.931 5.931 0 0 1-5.924 5.924zm0-9.873a3.949 3.949 0 1 0 3.949 3.949 3.953 3.953 0 0 0-3.949-3.949z"/><path data-name="Rectangle 62" d="M12.711 3.957l15.796-1.975.245 1.96-15.796 1.974z"/><path data-name="Rectangle 63" d="M13.628 10.881l14.808-2.965.388 1.936-14.808 2.965z"/><path data-name="Rectangle 64" d="M7.076 16.344l1.643-1.096 3.95 5.924-1.644 1.095z"/><path data-name="Rectangle 65" d="M13.049 15.426l1.543-1.235 3.952 4.937L17 20.363z"/><path data-name="Path 104" d="M40.478 37.517h-9.871a.987.987 0 0 1-.988-.987v-9.873a.987.987 0 0 1 .988-.987h9.871a.986.986 0 0 1 .987.987v9.873a.986.986 0 0 1-.987.987zm-8.884-1.975h7.9v-7.9h-7.9z"/><path data-name="Rectangle 66" d="M40.477 39.491h1.975v1.975h-1.975z"/><path data-name="Rectangle 67" d="M4.935 39.491H6.91v1.975H4.935z"/><path data-name="Rectangle 68" d="M10.859 39.491h1.975v1.975h-1.975z"/><path data-name="Rectangle 69" d="M16.783 39.491h1.975v1.975h-1.975z"/><path data-name="Rectangle 70" d="M22.707 39.491h1.975v1.975h-1.975z"/><path data-name="Rectangle 71" d="M28.63 39.491h1.975v1.975H28.63z"/><path data-name="Rectangle 72" d="M34.554 39.491h1.975v1.975h-1.975z"/><path data-name="Path 105" d="M42.451 45.415H4.934a4.937 4.937 0 0 1 0-9.873h37.517a4.937 4.937 0 0 1 0 9.873zm-37.517-7.9a2.962 2.962 0 0 0 0 5.924h37.517a2.962 2.962 0 0 0 0-5.924z"/></g></svg>