<svg xmlns="http://www.w3.org/2000/svg" width="46.872" height="38.772"><g data-name="Group 56" fill="#fff"><path data-name="Path 92" d="M44.92 31.248H1.953a1.958 1.958 0 0 1-1.954-1.954V1.951A1.956 1.956 0 0 1 1.953 0H44.92a1.954 1.954 0 0 1 1.951 1.951v27.343a1.956 1.956 0 0 1-1.951 1.954zM1.953 1.948v27.343H44.92V1.951z"/><path data-name="Path 93" d="M32.511 38.772l-1.666-1.666H15.053l-1.668 1.666-1.381-1.381 1.954-1.954a.984.984 0 0 1 .69-.285h16.6a.976.976 0 0 1 .69.285l1.954 1.954z"/><path data-name="Path 94" d="M29.297 34.177h-1.953v-2.929h-8.787v2.929h-1.954V30.27a.974.974 0 0 1 .976-.976H28.32a.976.976 0 0 1 .978.976z"/><path data-name="Rectangle 59" d="M23.437 8.788h1.953v13.671h-1.953z"/><path data-name="Path 95" d="M21.484 22.458H19.53v-3.907h-5.858v-2.265l5.356-7.5h2.456v7.812h.976v1.953h-.976zM15.847 16.6h3.684v-5.155z"/><path data-name="Path 96" d="M26.824 16.6h-2.411v-1.949h1.5l4.364-5.236v-.623h1.953v1.33z"/><path data-name="Path 97" d="M32.225 22.459h-1.953v-.717l-3.777-6.61 1.7-.969 4.035 7.06z"/></g></svg>