<svg xmlns="http://www.w3.org/2000/svg" width="48.804" height="38.56"><g data-name="Group 59" fill="#fff"><path data-name="Path 111" d="M5.874 20.443H3.829v-5.111H1.785V9.199h2.044V6.133h13.288v2.044H5.873v3.066H3.829v2.044h2.044z"/><path data-name="Rectangle 79" d="M5.874 0h2.044v7.155H5.874z"/><path data-name="Rectangle 80" d="M9.963 4.089h2.044v3.066H9.963z"/><path data-name="Rectangle 81" d="M6.897 11.244h2.044v2.044H6.897z"/><path data-name="Path 112" d="M23.251 20.443h-2.044v-9.2h12.27v7.155h-2.044v-5.111h-8.177z"/><path data-name="Path 113" d="M23.25 21.466H10.989V11.245h12.264zm-10.221-2.045h8.178v-6.133h-8.178z"/><path data-name="Path 114" d="M43.694 18.399H41.65v-5.111h-8.177v5.111h-2.044v-7.155h12.266z"/><path data-name="Path 115" d="M28.361 13.288H16.095v-9.2h12.266zM18.14 11.245h8.176V6.133H18.14z"/><path data-name="Path 116" d="M38.583 13.288H26.321v-9.2h12.266zm-10.221-2.043h8.178V6.133h-8.178z"/><path data-name="Path 117" d="M40.985 30.699l-1.977-.522c.423-1.6 1.828-2.917 3.316-4.316 1.947-1.83 3.953-3.713 4.364-6.44H29.712l-4.795 2.045H3.829v5.031a5.244 5.244 0 0 0 .4 2.638l-1.713 1.117a6.583 6.583 0 0 1-.725-3.755v-7.076h22.714l4.794-2.045h19.51V18.4c0 4.177-2.818 6.823-5.081 8.951-1.272 1.191-2.47 2.316-2.743 3.348z"/><path data-name="Path 118" d="M41.387 32.752l-3.375-2.646a.768.768 0 0 0-1.086.091l-1.262 1.268a2.823 2.823 0 0 1-3.856.213l-1.9-1.56a.763.763 0 0 0-1.082.052l-1.442 1.365a2.825 2.825 0 0 1-3.848.1l-1.726-1.5a.765.765 0 0 0-1.08.01l-1.618 1.45a2.819 2.819 0 0 1-3.846-.023l-1.552-1.419a.765.765 0 0 0-1.08-.027l-1.792 1.523a2.823 2.823 0 0 1-3.852-.141l-1.372-1.33a.766.766 0 0 0-1.081-.066l-3.259 2.631-1.283-1.591 3.257-2.632a2.8 2.8 0 0 1 3.789.191l1.372 1.33a.766.766 0 0 0 1.1.05l1.792-1.523a2.794 2.794 0 0 1 3.784.079l1.552 1.419a.764.764 0 0 0 1.1.006l1.62-1.45a2.8 2.8 0 0 1 3.781-.033l1.728 1.5a.766.766 0 0 0 1.1-.033l1.442-1.368a2.8 2.8 0 0 1 3.786-.145l1.9 1.56a.767.767 0 0 0 1.106-.075l1.262-1.27a2.8 2.8 0 0 1 3.8-.259l3.377 2.646z"/><path data-name="Path 119" d="M9.539 38.561L8.257 36.97l3.259-2.631a2.8 2.8 0 0 1 3.787.191l1.374 1.33a.766.766 0 0 0 1.1.052l1.795-1.525a2.8 2.8 0 0 1 3.781.077l1.552 1.421a.766.766 0 0 0 1.1.006l1.618-1.45a2.8 2.8 0 0 1 3.783-.033l1.726 1.5a.765.765 0 0 0 1.1-.033l1.44-1.368a2.8 2.8 0 0 1 3.788-.145l1.9 1.56a.766.766 0 0 0 1.106-.075l1.26-1.268a2.8 2.8 0 0 1 3.8-.261l.881.692-1.258 1.61-.885-.692a.767.767 0 0 0-1.086.091l-1.262 1.27a2.822 2.822 0 0 1-3.854.211l-1.9-1.56a.764.764 0 0 0-1.082.052l-1.44 1.365a2.827 2.827 0 0 1-3.848.1l-1.728-1.5a.761.761 0 0 0-1.078.01l-1.62 1.452a2.825 2.825 0 0 1-3.846-.023l-1.552-1.421a.765.765 0 0 0-1.08-.027l-1.792 1.525a2.823 2.823 0 0 1-3.85-.143l-1.372-1.328a.769.769 0 0 0-1.084-.068z"/><path data-name="Rectangle 82" d="M30.406 21.465h2.044v2.044h-2.044z"/></g></svg>