<svg id="Group_44" data-name="Group 44" xmlns="http://www.w3.org/2000/svg" width="55.482" height="62.875" viewBox="0 0 55.482 62.875">
  <path id="Path_54" data-name="Path 54" d="M889.821,151.248a4.627,4.627,0,0,1-3.338-1.325L868.765,132.2l1.865-1.865,17.718,17.721c1.047,1.045,3.094.633,4.663-.932,1.636-1.635,2-3.6.933-4.666l-7.46-7.46,1.865-1.865,7.46,7.46c2.129,2.128,1.767,5.7-.84,8.3A7.458,7.458,0,0,1,889.821,151.248Z" transform="translate(-841.711 -94.889)" fill="#444"/>
  <path id="Path_55" data-name="Path 55" d="M878.892,132.3l-1.865-1.865.932-.933-2.8-2.8-1.865,1.868-1.868-1.865,1.865-1.868a2.644,2.644,0,0,1,3.73,0l2.8,2.8a2.642,2.642,0,0,1,0,3.73Z" transform="translate(-836.915 -106.176)" fill="#444"/>
  <path id="Path_56" data-name="Path 56" d="M875.293,133.167l-1.865-1.865,2.8-2.8-2.8-2.8-2.8,2.8-1.865-1.865,2.8-2.8a2.644,2.644,0,0,1,3.73,0l2.8,2.8a2.64,2.64,0,0,1,0,3.733Z" transform="translate(-841.711 -107.974)" fill="#444"/>
  <path id="Path_57" data-name="Path 57" d="M875.51,140.67a2.628,2.628,0,0,1-1.851-.753l-2.428-2.389,1.848-1.882,2.431,2.392,6.536-6.539-2.8-2.795-3.733,3.727-1.865-1.865,3.733-3.727a2.637,2.637,0,0,1,3.73,0l2.8,2.795a2.642,2.642,0,0,1,0,3.73l-6.536,6.539A2.63,2.63,0,0,1,875.51,140.67Z" transform="translate(-837.271 -102.579)" fill="#444"/>
  <path id="Path_58" data-name="Path 58" d="M870.3,142.061l-1.865-1.865,1.865-1.865c1.131-1.129,2.705-1.095,4.089-1.078,1.582.034,2.6-.011,3.372-.787l2.8-2.8,1.862,1.868-2.8,2.795c-1.621,1.621-3.652,1.585-5.282,1.56-.947-.017-1.84-.031-2.179.305Z" transform="translate(-842.311 -88.892)" fill="#444"/>
  <path id="Path_59" data-name="Path 59" d="M878.025,148.717l-1.865-1.865a9.914,9.914,0,0,0,2.814-6.416,7.459,7.459,0,0,0-1.882-5.71,1.318,1.318,0,0,1,1.865-1.862l3.73,3.727a3.97,3.97,0,0,0,3.783,1.2,4.215,4.215,0,0,0,1.985-1.022l-9.5-9.5c-.863-.86-1.563-1.025-3.262-.767l-1.022.146c-1.479.207-3.954.554-4.612,1.039-.518.459-1.535,3.68-1.535,6.853,0,2.072-.165,7.06-1.691,8.586l-1.865,1.865-1.865-1.865,1.865-1.865c.28-.342.919-2.529.919-6.721,0-2.96.907-7.724,2.61-8.978,1.109-.812,3.2-1.159,5.808-1.523l.994-.143c2.092-.316,3.831-.182,5.523,1.509l10.261,10.258a1.323,1.323,0,0,1,.3,1.4,6.007,6.007,0,0,1-4.36,3.3,6.478,6.478,0,0,1-5.419-1.224,12.919,12.919,0,0,1,.005,1.437A12.578,12.578,0,0,1,878.025,148.717Z" transform="translate(-851.903 -106.739)" fill="#444"/>
  <path id="Path_60" data-name="Path 60" d="M877.589,142.767a2.629,2.629,0,0,1-1.865-.77l-2.8-2.8a2.637,2.637,0,0,1,0-3.73l.933-.933,1.865,1.865-.933.933,2.8,2.8,6.528-6.528-3.73-3.733,1.865-1.865,3.73,3.733a2.642,2.642,0,0,1,0,3.73L879.454,142A2.638,2.638,0,0,1,877.589,142.767Z" transform="translate(-835.612 -99.086)" fill="#444"/>
  <path id="Path_61" data-name="Path 61" d="M879.609,158.6a1.309,1.309,0,0,1-.933-.386l-18.654-18.642a1.319,1.319,0,0,1,0-1.865l7.455-7.46a1.361,1.361,0,0,1,1.865,0L888,148.889a1.318,1.318,0,0,1,0,1.865l-7.455,7.457A1.309,1.309,0,0,1,879.609,158.6ZM862.82,138.636l16.789,16.777,5.589-5.592-16.788-16.78Z" transform="translate(-858.147 -95.723)" fill="#444"/>
  <rect id="Rectangle_41" data-name="Rectangle 41" width="2.638" height="3.956" transform="translate(45.707 48.507) rotate(-45)" fill="#444"/>
  <rect id="Rectangle_42" data-name="Rectangle 42" width="2.638" height="2.638" transform="translate(8.402 42.91) rotate(-45)" fill="#444"/>
  <path id="Path_62" data-name="Path 62" d="M874.035,142.872l-2.826-2.828a11.111,11.111,0,0,1-8.833-3.234,11.229,11.229,0,0,1-2.181-12.753,1.319,1.319,0,0,1,2.123-.364l6.122,6.122,2.8-2.8-6.122-6.122a1.32,1.32,0,0,1,.364-2.123,11.2,11.2,0,0,1,15.744,12.635l4,4-1.865,1.865-4.539-4.539a1.312,1.312,0,0,1-.328-1.322,8.562,8.562,0,0,0-10.025-10.9l5.567,5.567a1.318,1.318,0,0,1,0,1.865l-4.663,4.663a1.318,1.318,0,0,1-1.865,0l-5.567-5.567a8.548,8.548,0,0,0,9.569,10.314,1.327,1.327,0,0,1,1.117.372l3.274,3.277Z" transform="translate(-859.104 -117.679)" fill="#444"/>
</svg>
